<svg width="28" height="28" viewBox="0 0 28 28" fill="none" xmlns="http://www.w3.org/2000/svg">
<path fill-rule="evenodd" clip-rule="evenodd" d="M13.1111 21H14.8889V14.8889H21V13.1111H14.8889V7H13.1111V13.1111H7V14.8889H13.1111V21Z" fill="#FEFEFE"/>
<path fill-rule="evenodd" clip-rule="evenodd" d="M14 0C21.7778 0 28 6.33333 28 14C28 21.7778 21.6667 28 14 28C6.22222 28 0 21.6667 0 14C0 6.22222 6.33333 0 14 0ZM14 1.33333C21 1.33333 26.6667 7 26.6667 14C26.6667 21 21 26.6667 14 26.6667C7 26.6667 1.33333 21 1.33333 14C1.33333 7 7 1.33333 14 1.33333Z" fill="#FEFEFE"/>
</svg>
