<svg width="21" height="21" viewBox="0 0 21 21" fill="none" xmlns="http://www.w3.org/2000/svg">
<path fill-rule="evenodd" clip-rule="evenodd" d="M3.47368 20.2105C2.05263 20.2105 0.947368 19.1053 0.947368 17.6842V3.63158C0.947368 2.21053 2.05263 1.10526 3.47368 1.10526H17.5263C18.9474 1.10526 20.0526 2.21053 20.0526 3.63158V17.6842C20.0526 19.1053 18.9474 20.2105 17.5263 20.2105H3.47368ZM15.4737 4.89474L10.4211 9.94737L5.36842 4.89474L4.57895 5.68421L9.63158 10.7368L4.57895 15.7895L5.36842 16.5789L10.4211 11.5263L15.4737 16.5789L16.2632 15.7895L11.2105 10.7368L16.2632 5.68421L15.4737 4.89474ZM3.47368 0C1.57895 0 0 1.57895 0 3.47368V17.5263C0 19.4211 1.57895 21 3.47368 21H17.5263C19.421 21 21 19.4211 21 17.5263V3.47368C21 1.57895 19.421 0 17.5263 0H3.47368Z" fill="#FE4F3E"/>
</svg>
