<svg width="44" height="44" viewBox="0 0 44 44" fill="none" xmlns="http://www.w3.org/2000/svg">
<path fill-rule="evenodd" clip-rule="evenodd" d="M43.3102 24.0796H40.1599L35.791 4.86771L35.9404 4.78723C36.9177 4.24686 37.4236 3.12012 37.2051 2.03938C36.9177 0.659711 35.561 -0.225578 34.1928 0.0503563C33.1351 0.268804 32.3303 1.1311 32.1808 2.20034L32.1578 2.3613L22.7071 4.31584V0.7057C22.7071 0.314793 22.3967 0.00436725 22.0057 0.00436725C21.6148 0.00436725 21.3044 0.314793 21.3044 0.7057V4.60327L11.5777 6.61529L11.4973 6.47732C10.9339 5.55754 9.85315 5.07466 8.7954 5.29311C7.41573 5.58054 6.53044 6.93721 6.80638 8.30539C6.96734 9.05271 7.45022 9.69656 8.12856 10.053L8.27802 10.1335L3.85158 29.6328H0.701333C0.310426 29.6328 0 29.9432 0 30.3341V31.2654C0 36.2437 4.05853 40.3023 9.03684 40.3023C14.0152 40.3023 18.0737 36.2437 18.0737 31.2654V30.3341C18.0737 29.9432 17.7633 29.6328 17.3724 29.6328H14.2221L9.83015 10.2944L10.0371 10.2369C10.9914 9.94949 11.7042 9.12169 11.8422 8.13293L11.8652 7.97197L21.3159 6.01743V42.5902H14.6015C14.2106 42.5902 13.9002 42.9006 13.9002 43.2915C13.9002 43.6824 14.2106 43.9929 14.6015 43.9929H29.4215C29.8124 43.9929 30.1228 43.6824 30.1228 43.2915C30.1228 42.9006 29.8124 42.5902 29.4215 42.5902H22.7071V5.73L32.4338 3.71798L32.5142 3.85595C32.8362 4.37332 33.3305 4.77573 33.9054 4.95969L34.1009 5.02867L29.7779 24.0681H26.6276C26.2367 24.0681 25.9263 24.3786 25.9263 24.7695V25.7007C25.9263 30.6791 29.9848 34.7376 34.9632 34.7376C39.9415 34.7376 44 30.6791 44 25.7007V24.7695C44 24.3786 43.6896 24.0681 43.2987 24.0681L43.3102 24.0796ZM9.03684 38.8996C4.82885 38.8996 1.40267 35.4734 1.40267 31.2654V31.0355H1.63261C6.57643 31.0355 11.5088 31.0355 16.4526 31.0355H16.6825V31.2654C16.6825 35.4734 13.2563 38.8996 9.04834 38.8996H9.03684ZM5.28874 29.6328L9.03684 13.1227L12.7849 29.6328H5.27724H5.28874ZM9.31278 8.93774C8.77241 8.93774 8.30102 8.54683 8.18605 8.01795C8.05958 7.3971 8.46198 6.78775 9.08283 6.66128C9.70368 6.53481 10.313 6.93721 10.4395 7.55806C10.5775 8.2364 10.0026 8.93774 9.31278 8.93774ZM34.7217 1.39554C35.2621 1.39554 35.7335 1.78644 35.8484 2.31532C35.9749 2.93617 35.5725 3.54552 34.9517 3.67199C34.3308 3.79846 33.7215 3.39606 33.595 2.77521C33.4455 2.06238 33.9974 1.39554 34.7217 1.39554ZM34.9862 7.56956L38.7343 24.0796H31.2265L34.9747 7.56956H34.9862ZM34.9862 33.3464C30.7782 33.3464 27.352 29.9202 27.352 25.7122V25.4823H27.5819C32.5257 25.4823 37.4581 25.4823 42.4019 25.4823H42.6318V25.7122C42.6318 29.9202 39.2056 33.3464 34.9977 33.3464H34.9862Z" fill="white"/>
</svg>
