<svg width="32" height="22" viewBox="0 0 32 22" fill="none" xmlns="http://www.w3.org/2000/svg">
<path fill-rule="evenodd" clip-rule="evenodd" d="M1.68421 0C0.842105 0 0 0.721734 0 1.68405V20.0883C0 20.9303 0.721804 21.7723 1.68421 21.7723H30.3158C31.1579 21.7723 32 21.0506 32 20.0883V1.68405C32 0.842023 31.2782 0 30.3158 0H1.68421ZM2.40602 1.32318H29.4737L17.0827 12.9912C16.3609 13.7129 15.5188 13.7129 14.9173 12.9912L2.52632 1.32318H2.40602ZM1.32331 2.1652L10.8271 11.0666L1.32331 19.4868V2.1652ZM30.5564 2.1652V19.4868L21.0526 11.0666L30.5564 2.1652ZM11.7895 12.0289L13.9549 14.0738C14.4361 14.555 15.1579 14.9158 15.8797 14.9158C16.7218 14.9158 17.4436 14.6753 18.0451 14.0738L20.2105 12.0289L29.594 20.4491H2.40602L11.7895 12.0289Z" fill="#FEFEFE"/>
</svg>
