<svg width="44" height="40" viewBox="0 0 44 40" fill="none" xmlns="http://www.w3.org/2000/svg">
<path fill-rule="evenodd" clip-rule="evenodd" d="M43.6617 21.9463C43.9727 21.7864 44.0882 21.4132 43.9283 21.1111C43.7683 20.809 43.3951 20.6846 43.0842 20.8445L34.7766 25.1716V23.439L43.6528 18.8098C43.9638 18.6499 44.0793 18.2767 43.9194 17.9657C43.7594 17.6636 43.3863 17.5481 43.0753 17.7081L34.7677 22.0351V20.3825L43.6439 15.7533C43.8572 15.6467 43.9816 15.4335 43.9816 15.1936C43.9816 14.9537 43.8394 14.7404 43.6262 14.6338L29.9697 8.04105C29.8009 7.96108 29.5965 7.96108 29.4277 8.04105L0.346672 22.2573C0.133428 22.3639 0.000151361 22.5771 0.000151361 22.817C0.000151361 23.0569 0.133428 23.2702 0.346672 23.3768L14.8828 30.4316C14.9716 30.476 15.0605 30.5027 15.1582 30.5027C15.2559 30.5027 15.3537 30.4671 15.4425 30.4227L25.0029 25.447V27.1085L15.1493 32.2442L0.888665 25.3137C0.58657 25.1627 0.213395 25.296 0.0623473 25.5981C-0.0887 25.9091 0.044577 26.2733 0.355557 26.4244L14.8916 33.4881C14.9805 33.5325 15.0693 33.5503 15.1671 33.5503C15.2648 33.5503 15.3625 33.5325 15.4514 33.4881L25.0118 28.5035V30.2361L15.1582 35.3717L0.89755 28.4502C0.58657 28.2992 0.213395 28.4324 0.0623473 28.7434C-0.0887 29.0455 0.044577 29.4187 0.355557 29.5697L14.8916 36.6245C14.9805 36.669 15.0693 36.6956 15.1671 36.6956C15.2648 36.6956 15.3625 36.6601 15.4514 36.6156L25.0118 31.64V33.2748L15.1582 38.4104L0.89755 31.4889C0.58657 31.3379 0.213395 31.4711 0.0623473 31.7821C-0.0887 32.0931 0.044577 32.4663 0.355557 32.6173L14.8916 39.6721C14.9805 39.7166 15.0693 39.7343 15.1671 39.7343C15.2648 39.7343 15.3625 39.6988 15.4514 39.6544L34.43 29.783L43.6439 24.9761C43.946 24.8162 44.0704 24.443 43.9105 24.1409C43.7506 23.8388 43.3774 23.7144 43.0664 23.8744L34.7588 28.2103V26.5666L43.635 21.9463H43.6617ZM22.7372 17.8325C22.1686 18.0724 19.8495 19.2807 20.2049 20.1426C20.5692 21.0045 23.0571 20.2137 23.6257 19.9827C24.1944 19.7428 26.5134 18.5344 26.158 17.6725C25.7937 16.8107 23.3059 17.6015 22.7372 17.8325ZM4.034 16.9973C3.83853 16.7041 3.44758 16.6419 3.16326 16.8373C2.87894 17.0328 2.81674 17.4237 3.01221 17.6992C3.53644 18.4633 4.9936 18.872 5.83769 19.0853C5.891 19.0942 5.93542 19.103 5.97985 19.103C6.26417 19.103 6.51296 18.9076 6.58404 18.6321C6.664 18.2945 6.45964 17.9657 6.12201 17.8858C5.62444 17.7614 4.39829 17.4326 4.02512 17.0061L4.034 16.9973ZM8.56542 17.2016C8.8764 17.2016 9.13407 16.9795 9.1785 16.6685C9.23181 16.3309 9.00079 16.011 8.65427 15.9577C7.74799 15.8244 4.576 15.2291 4.06066 14.2873C3.89184 13.9852 3.51866 13.8786 3.21657 14.0385C2.91448 14.1984 2.79897 14.5805 2.96779 14.8826C3.77633 16.3398 6.9039 16.9528 8.46768 17.1839C8.49434 17.1927 8.52988 17.1927 8.55654 17.1927L8.56542 17.2016ZM13.8077 14.4739C13.8077 14.1274 13.5322 13.8519 13.1857 13.8519C11.1599 13.8519 8.97414 13.6476 7.01941 13.0878C6.19309 12.8479 4.47826 12.2615 4.08731 11.4085C3.94515 11.0975 3.57198 10.9554 3.261 11.0975C2.95002 11.2397 2.80785 11.604 2.95002 11.9239C4.13174 14.5361 10.5912 15.1047 13.1857 15.1047C13.5233 15.1047 13.8077 14.8293 13.8077 14.4828V14.4739ZM23.4125 9.10726C23.5546 8.79628 23.4125 8.42311 23.1015 8.28095C22.7905 8.13878 22.4173 8.28095 22.2752 8.60081C21.8842 9.46267 20.1694 10.0402 19.352 10.2801C17.3972 10.8399 15.2115 11.0442 13.1857 11.0442C11.1599 11.0442 8.97414 10.8399 7.01941 10.2801C6.19309 10.0402 4.47826 9.46267 4.08731 8.60081C3.94515 8.28983 3.58086 8.14767 3.261 8.28983C2.95002 8.43199 2.80785 8.79628 2.95002 9.10726C4.14062 11.7195 10.5823 12.2881 13.1857 12.2881C15.7802 12.2881 22.2396 11.7284 23.4125 9.11615V9.10726ZM13.1768 9.6848C15.5225 9.6848 18.1525 9.35605 20.3293 8.41422C21.6443 7.84557 23.2792 6.8149 23.5458 5.27777C23.5724 5.13561 23.5813 4.98456 23.5813 4.8424C23.5813 4.69135 23.5724 4.54919 23.5458 4.40703C23.2703 2.8699 21.6443 1.83922 20.3293 1.27057C18.1614 0.32875 15.5314 0 13.1768 0C10.8311 0 8.20113 0.32875 6.03316 1.27057C4.71816 1.83922 3.09218 2.8699 2.81674 4.40703C2.79008 4.54919 2.7812 4.70024 2.7812 4.8424C2.7812 4.99345 2.79008 5.13561 2.81674 5.27777C3.09218 6.8149 4.71816 7.84557 6.03316 8.41422C8.20113 9.35605 10.8311 9.6848 13.1768 9.6848ZM13.1768 1.22615C15.327 1.22615 17.7438 1.52824 19.7429 2.36345C20.6759 2.75439 22.3374 3.64291 22.3374 4.83351C22.3374 6.03301 20.6759 6.91263 19.7429 7.30358C17.7438 8.13878 15.327 8.44088 13.1768 8.44088C11.0266 8.44088 8.60985 8.13878 6.61958 7.30358C5.68664 6.91263 4.02512 6.02412 4.02512 4.83351C4.02512 3.63402 5.68664 2.75439 6.61958 2.36345C8.61873 1.52824 11.0355 1.22615 13.1768 1.22615ZM29.712 9.28497L41.9824 15.2114L34.0924 19.3163L21.6799 13.2122L29.712 9.28497ZM15.1582 29.1699L2.05262 22.7993L11.5331 18.1701L24.2566 24.4341L15.1582 29.1699ZM26.2557 24.7984L31.0804 22.2839C31.3824 22.124 31.498 21.7508 31.3469 21.4487C31.187 21.1466 30.8138 21.0311 30.5117 21.1822L25.6249 23.7233L12.9369 17.4859L20.2583 13.9052L33.5149 20.4269V28.8323L26.2557 32.6173V24.7895V24.7984Z" fill="white"/>
</svg>
