<svg width="61" height="60" viewBox="0 0 61 60" fill="none" xmlns="http://www.w3.org/2000/svg">
<path fill-rule="evenodd" clip-rule="evenodd" d="M44.1877 53.096L42.6287 50.4235L41.2925 51.3144L42.8514 53.9869C39.0654 55.9912 35.0566 57.1048 31.0479 57.3275V52.8733H28.5981V57.3275C26.5937 57.3275 24.5893 56.8821 22.8076 56.4367C20.8033 55.7685 18.7989 55.1004 17.0172 54.2096L18.5762 51.3144L17.2399 50.4235L15.681 53.3187C12.1176 51.0916 8.99969 48.1964 6.7726 44.4104L9.44511 42.8514L8.55427 41.5152L5.88177 43.0741C3.87739 39.2881 2.76385 35.2793 2.54114 31.2706H6.99531V28.8208H2.54114C2.54114 26.8164 2.98655 24.812 3.43197 23.0303C4.1001 21.026 4.76822 19.0216 5.65906 17.2399L8.55427 18.7989L9.44511 17.4626L6.54989 15.9037C8.77698 12.3403 11.6722 9.2224 15.4582 6.99531L17.0172 9.66782L18.3535 8.77698L16.7945 6.10448C20.5805 4.1001 24.5893 2.98655 28.5981 2.98655V7.21802H31.0479V2.98655C35.0566 3.20926 39.0654 4.32281 42.8514 6.10448L41.2925 8.77698L42.6287 9.66782L44.1877 6.99531C47.751 9.2224 50.8689 12.1176 53.096 15.9037L50.4235 17.4626L51.3144 18.7989L53.9869 17.2399C55.9912 21.026 57.1048 25.0347 57.1048 29.0435H52.6506V31.4933H56.8821C56.6594 35.502 55.5458 39.5108 53.7642 43.2968L51.0916 41.7379L50.2008 43.0741L52.8733 44.6331C50.8689 48.1964 47.9737 51.3144 44.1877 53.5414V53.096ZM31.716 29.4889L30.8251 8.33156H28.8208L28.1526 24.1439L23.0303 16.3491L21.2487 17.4626L27.9299 30.3797V33.2749H29.4889L29.7116 33.9431L30.8251 33.2749H31.9387V32.6068L33.2749 31.716L31.716 29.4889ZM55.9912 15.0128C47.751 0.759467 29.2662 -4.36284 15.0128 4.1001C0.759467 12.3403 -4.36284 30.8251 4.1001 45.0785C8.10886 51.9825 14.5674 57.1048 22.3622 59.1092C25.0347 59.7773 27.7072 60 30.157 60C35.502 60 40.4016 58.6637 45.0785 55.9912C59.3319 47.751 64.4542 29.2662 55.9912 15.0128Z" fill="#FE4F3E"/>
</svg>
