<svg width="171" height="44" fill="none" xmlns="http://www.w3.org/2000/svg"><path fill-rule="evenodd" clip-rule="evenodd" d="M8.012 36.798c-.446-.52-1.041-.742-1.785-.742-.669 0-1.264.223-1.71.594-.446.371-.67.965-.744 1.708H2.51v-2.153H1.32v5.42h1.19v-2.377H3.7c.074.817.298 1.411.744 1.782.446.446.966.669 1.71.669.743 0 1.413-.223 1.859-.743.446-.52.669-1.188.669-2.079-.074-.89-.223-1.559-.67-2.079zm-2.826.669c.223-.297.52-.446.967-.446.446 0 .743.149.966.446.224.297.298.742.298 1.41 0 .594-.074 1.114-.298 1.41-.223.298-.52.446-.966.446-.446 0-.744-.148-.967-.445-.223-.297-.297-.817-.297-1.41 0-.595.148-1.114.297-1.411zm9.146 3.489c.372-.52.595-1.188.595-2.079 0-.89-.223-1.559-.595-2.079-.372-.52-.892-.742-1.562-.742-.743 0-1.264.297-1.635.817h-.075c-.074-.371-.148-.594-.148-.743h-.967V44h1.19v-2.227c0-.075 0-.372-.075-.817h.075c.371.52.892.742 1.636.742.669 0 1.19-.222 1.561-.742zm-.892-3.49c.223.298.297.743.297 1.411 0 .594-.074 1.114-.297 1.41-.223.298-.52.52-.893.52-.446 0-.818-.148-1.04-.445-.224-.297-.298-.742-.298-1.41v-.149c0-.594.074-1.04.297-1.262.223-.297.52-.371 1.041-.371.298-.149.67 0 .893.297zm2.825-1.336v5.42h1.413l2.751-4.232c0 .149 0 .371-.074.742v3.49h1.115v-5.42h-1.413l-2.75 4.232c.074-.668.074-1.114.074-1.41V36.13h-1.116zm12.045 4.603h-.817v-4.528h-3.346c-.074.89-.149 1.781-.372 2.524-.223.816-.52 1.485-.892 2.004h-.446v2.822h1.04v-1.93h3.718v1.93h1.116v-2.822zm-4.237 0c.297-.445.52-1.039.743-1.633.223-.668.298-1.336.372-2.005h1.19v3.638h-2.305zm5.279-4.603v5.42h1.413l2.75-4.232c0 .149 0 .371-.074.742v3.49h1.116v-5.42h-1.413l-2.751 4.232c.074-.668.074-1.114.074-1.41V36.13h-1.115zm6.692 0v2.005c0 .52.149.965.446 1.262.297.297.744.445 1.338.445.372 0 .67-.074.967-.148.297-.074.595-.223.892-.446v2.302h1.19v-5.42h-1.19v2.302c-.297.148-.594.297-.892.371-.297.074-.52.074-.818.074-.595 0-.892-.297-.892-.816v-2.005h-1.041v.074zm9.889 5.494c.298-.074.595-.148.892-.297v-.965c-.297.149-.594.223-.892.297-.297.074-.595.074-.892.074-.52 0-.892-.148-1.115-.445-.298-.297-.372-.668-.447-1.188h3.644v-.594c0-.742-.223-1.336-.595-1.782-.446-.445-.966-.668-1.71-.668s-1.413.223-1.859.742c-.446.52-.67 1.188-.67 2.08 0 .89.224 1.558.744 2.004.447.52 1.116.742 2.008.742.297.075.595.075.892 0zm-.371-4.38c.223.223.297.594.297 1.04h-2.454c.075-.446.149-.817.372-1.04a1.23 1.23 0 01.892-.371c.446.074.744.148.893.37zm5.874 4.38c.223-.074.446-.148.669-.297v-1.04a3.388 3.388 0 01-1.487.372c-.446 0-.818-.148-1.041-.445-.223-.297-.372-.743-.372-1.337 0-1.262.446-1.856 1.413-1.856.297 0 .743.074 1.19.297l.371-.89c-.446-.223-.966-.298-1.561-.298-.818 0-1.487.223-1.934.743-.446.52-.669 1.188-.669 2.153 0 .89.223 1.559.67 2.078.446.52 1.04.743 1.858.743.372-.149.67-.149.893-.223zm3.123-2.821V36.13h-1.19v5.494h1.19v-2.821l2.305 2.821h1.338l-2.454-2.821 2.231-2.673h-1.264l-2.156 2.673zm8.774 2.821v-3.638c0-.668-.15-1.113-.52-1.41-.373-.297-.893-.446-1.562-.446-.298 0-.67.075-.967.149-.372.074-.67.222-.967.37l.372.818c.223-.075.52-.223.744-.297.297-.075.52-.149.818-.149.371 0 .595.074.743.297.149.149.223.446.223.743v.297h-.966c-.893 0-1.487.148-1.934.445-.446.297-.595.742-.595 1.262s.15.965.447 1.262c.297.297.743.446 1.264.446.446 0 .743-.075 1.04-.149.298-.148.521-.371.819-.668h.074l.223.742h.744v-.074zm-3.198-1.04c-.148-.148-.223-.296-.223-.593s.149-.594.372-.743c.223-.148.67-.222 1.19-.296h.669v.445c0 .445-.149.742-.372.965-.223.223-.595.371-1.04.371a.579.579 0 01-.596-.148zm6.692-1.113h1.116v2.079h1.19v-5.42h-2.454c-.67 0-1.116.149-1.487.446-.372.297-.52.668-.52 1.188 0 .37.073.742.297 1.039.223.297.52.445.892.594l-1.487 2.227h1.264l1.19-2.153zm-.892-2.227c.149-.149.446-.223.744-.223h1.264v1.633h-1.116c-.371 0-.669-.074-.892-.222-.223-.149-.297-.371-.297-.594.074-.297.148-.446.297-.594zm8.625 1.559V36.13h-1.19v5.494h1.19v-2.821l2.305 2.821h1.339l-2.454-2.821 2.305-2.673h-1.264l-2.23 2.673zm8.7-2.005c-.446-.52-1.115-.742-1.859-.742-.818 0-1.487.223-1.933.742-.446.52-.67 1.188-.67 2.08 0 .593.075 1.039.298 1.484.223.446.52.742.892.965a2.57 2.57 0 001.339.372c.818 0 1.487-.223 1.933-.743.446-.52.67-1.188.67-2.079 0-.89-.224-1.559-.67-2.079zm-2.974.669c.223-.297.595-.52 1.04-.52.893 0 1.414.594 1.414 1.856s-.447 1.856-1.413 1.856c-.892 0-1.413-.594-1.413-1.856.074-.52.149-.965.372-1.336zm7.733 1.559l-1.19-2.896h-1.561v5.42h1.04v-4.38c.15.52.298 1.039.447 1.41l1.19 2.97h.892l1.19-2.895c.074-.223.222-.669.371-1.188l.075-.297v4.38h1.04v-5.42h-1.561l-1.19 2.97c-.074.297-.223.668-.371 1.114l-.075.222c-.074-.668-.223-1.113-.297-1.41zm5.205-2.896v5.494h1.19v-4.529h2.453v4.53h1.115V36.13h-4.758zm10.707 5.494v-3.638c0-.668-.149-1.113-.521-1.41-.371-.297-.892-.446-1.561-.446-.297 0-.669.075-.967.149-.371.074-.669.222-.966.37l.372.818c.223-.075.52-.223.743-.297.298-.075.521-.149.818-.149.372 0 .595.074.744.297.148.149.223.446.223.743v.297h-.967c-.892 0-1.487.148-1.933.445-.446.297-.595.742-.595 1.262s.149.965.446 1.262c.297.297.744.446 1.264.446.446 0 .744-.075 1.041-.149.298-.148.521-.371.818-.668h.074l.223.742h.744v-.074zm-3.197-1.04c-.149-.148-.223-.296-.223-.593s.148-.594.371-.743c.223-.148.67-.222 1.19-.296h.669v.445c0 .445-.148.742-.371.965-.224.223-.595.371-1.041.371-.298.075-.447 0-.595-.148zm4.758-4.454v5.494h1.19v-2.376h2.528v2.376h1.19V36.13h-1.19v2.227h-2.528V36.13h-1.19zm6.544 0v5.42h1.412l2.752-4.232c0 .149 0 .371-.075.742v3.49h1.116v-5.42h-1.413l-2.751 4.232c.074-.668.074-1.114.074-1.41V36.13h-1.115zm8.699 3.341h1.116v2.079h1.189v-5.42h-2.453c-.67 0-1.116.149-1.487.446-.372.297-.521.668-.521 1.188 0 .37.074.742.297 1.039.224.297.521.445.893.594l-1.487 2.227h1.264l1.189-2.153zm-.892-2.227c.149-.149.446-.223.744-.223h1.264v1.633h-1.116c-.371 0-.669-.074-.892-.222-.223-.149-.297-.371-.297-.594.074-.297.148-.446.297-.594zm46.919-33.409h.372c.223 0 .446-.074.52-.149a.672.672 0 00.223-.52c0-.222-.074-.37-.149-.519a1.149 1.149 0 00-.594-.148h-.298v1.336h-.074zm2.007-.743c0 .594-.223.966-.743 1.114l1.19 1.93h-1.041l-.967-1.707h-.446v1.707h-.967V1.682h1.264c.595 0 .967.148 1.264.371.298.297.446.594.446 1.04zm-4.61.891c0-.594.149-1.113.446-1.559.298-.445.67-.89 1.116-1.113.446-.297.966-.446 1.561-.446.521 0 1.041.149 1.562.446.446.297.892.668 1.115 1.113.297.446.446.965.446 1.56 0 .52-.149 1.039-.446 1.558a3.975 3.975 0 01-1.115 1.114c-.446.297-.967.446-1.562.446-.52 0-1.041-.149-1.561-.446-.446-.297-.893-.668-1.116-1.114-.297-.445-.446-.965-.446-1.559zm-.595 0c0-.668.149-1.262.521-1.856a2.917 2.917 0 011.338-1.336c.595-.297 1.19-.52 1.859-.52s1.264.149 1.859.52c.595.297 1.041.817 1.339 1.336.297.594.52 1.188.52 1.856 0 .669-.149 1.262-.446 1.856a2.922 2.922 0 01-1.338 1.337c-.595.371-1.19.52-1.859.52-.67 0-1.339-.149-1.859-.52-.595-.371-1.041-.817-1.339-1.337-.446-.594-.595-1.187-.595-1.856zM92.48 12.002h4.759v13.215H88.91l3.57-13.215zm9.072 13.215V8.215h-9.815c-1.86 0-3.049 1.04-3.495 2.747-.818 3.193-2.677 9.949-3.792 14.18h-2.677v7.499h4.313v-3.786h13.83v3.786h4.312v-7.424h-2.676zm-70.341 3.712V12.002h6.097V8.215h-14.35c-.596 0-1.116.223-1.562.594-.446.446-.67.965-.67 1.56v1.633h6.172v16.927h4.313zm121.274 0V12.002h10.113V8.215h-12.195c-.594 0-1.115.223-1.561.594-.446.446-.669.965-.669 1.56v18.56h4.312zm-40.97-15.368c1.041-1.188 2.454-1.782 4.313-1.782 1.784 0 3.272.594 4.313 1.782 1.041 1.262 1.561 2.97 1.561 5.122 0 2.153-.52 3.787-1.561 5.049-1.041 1.188-2.454 1.782-4.313 1.782-1.859 0-3.272-.594-4.313-1.782-1.041-1.114-1.487-2.821-1.487-5.049 0-2.227.521-3.934 1.487-5.122zm-3.123 12.62c1.785 1.857 4.313 2.748 7.436 2.748s5.577-.891 7.436-2.747c1.784-1.856 2.751-4.38 2.751-7.573 0-3.192-.893-5.717-2.751-7.647-1.934-1.856-4.387-2.821-7.436-2.821-3.049 0-5.502.965-7.436 2.821-1.784 1.856-2.676 4.38-2.676 7.647 0 3.267.892 5.791 2.676 7.573zM65.861 28.93V12.002h8.55v16.927h4.313V8.215h-15.02c-.595 0-1.115.223-1.561.594-.446.446-.67.965-.67 1.56v18.56h4.388zM44.446 13.56c.967-1.188 2.454-1.782 4.313-1.782 1.784 0 3.272.594 4.313 1.782 1.04 1.262 1.56 2.97 1.56 5.122 0 2.153-.52 3.787-1.56 5.049-1.041 1.188-2.454 1.782-4.313 1.782-1.86 0-3.272-.594-4.313-1.782-1.04-1.114-1.487-2.821-1.487-5.049 0-2.227.446-3.934 1.487-5.122zm-3.123 12.62c1.785 1.857 4.313 2.748 7.436 2.748s5.577-.891 7.435-2.747c1.785-1.856 2.752-4.38 2.752-7.573 0-3.192-.893-5.717-2.752-7.647-1.933-1.856-4.387-2.821-7.435-2.821-3.049 0-5.502.965-7.436 2.821-1.784 1.856-2.677 4.38-2.677 7.647 0 3.267.893 5.791 2.677 7.573zm-26.545-4.528c-.297 1.262-.892 2.153-1.636 2.747-.818.594-1.933.89-3.197.89-1.859 0-3.272-.593-4.164-1.78-.967-1.115-1.413-2.822-1.413-4.9 0-2.228.446-3.861 1.413-5.05 1.041-1.113 2.454-1.707 4.313-1.707 1.338 0 2.38.297 3.197.891a6.4 6.4 0 011.041 1.336c.372.817 1.115 1.188 2.082 1.188h2.602c-.223-2.227-1.04-3.935-2.528-5.123-1.561-1.262-3.643-1.856-6.32-1.856-3.272 0-5.725.891-7.51 2.673C.948 12.67.13 15.268.13 18.683c0 3.341.818 5.866 2.454 7.647 1.636 1.782 4.015 2.673 7.212 2.673 2.677 0 4.833-.594 6.544-1.856 1.635-1.262 2.528-3.118 2.75-5.345h-4.312v-.149zM144.901 8.215V28.93h-4.313V12.002h-4.758l-4.536 16.927h-4.461s3.494-13.067 4.758-17.967c.447-1.707 1.636-2.821 3.495-2.747h9.815z" fill="#fff"/></svg>