<svg width="210" height="159" viewBox="0 0 210 159" fill="none" xmlns="http://www.w3.org/2000/svg">
<path d="M48.1226 62.0318C56.9264 63.2027 63.7038 53.7009 64.5594 52.5075C65.9779 50.5261 72.8904 40.8892 68.2746 32.3105C65.6627 27.4695 59.2005 22.606 52.6934 24.5875C48.0325 26.006 44.2273 30.5092 44.1147 34.9449C43.9571 40.4613 49.6087 42.4203 48.7305 46.6983C47.7398 51.6519 39.6115 52.0121 39.4989 55.8174C39.4314 58.6319 44.0472 61.4914 48.1226 62.0318Z" fill="url(#paint0_linear)"/>
<path d="M11.714 126.383C6.60279 117.646 6.22002 103.574 11.714 93.6215C21.7562 75.406 45.5332 81.778 65.8653 60.8605C78.4969 47.8687 73.4533 41.1814 84.0809 28.0995C104.165 3.2867 153.588 -11.4389 184.21 11.2349C208.1 28.9326 215.8 65.8816 205.601 91.7977C179.752 157.432 34.0275 164.615 11.714 126.383Z" fill="url(#paint1_linear)"/>
<path d="M60.7091 158.941C60.4614 158.941 60.2138 158.918 59.9661 158.873C58.2999 158.558 57.0615 157.185 56.9039 155.496L54.6748 130.368C45.0154 130.571 35.3109 130.593 25.7865 130.458C21.7787 130.391 18.3337 127.644 17.4105 123.771C14.5735 111.747 12.5696 99.4083 11.4888 87.1144C10.408 74.9557 10.2279 62.5943 10.9034 50.3906C11.1285 46.3151 14.1232 42.9828 18.1536 42.3073C45.3981 37.714 73.1606 34.1339 100.698 31.6571C129.203 29.0903 158.182 27.6492 186.8 27.379C190.762 27.3565 194.275 30.0134 195.311 33.8637C198.508 45.7522 200.67 58.001 201.773 70.2498C203.011 84.1423 202.764 103.754 201.818 114.697C201.48 118.547 198.598 121.744 194.793 122.465C170.453 127.171 144.582 127.621 119.544 128.049C105.764 128.274 91.5563 128.522 78.0015 129.49C75.6148 134.173 64.0415 156.824 64.0415 156.824C63.4111 158.153 62.1051 158.941 60.7091 158.941ZM56.2284 126.968C57.1065 126.968 57.827 127.621 57.8946 128.499L60.2588 155.181C60.2588 155.271 60.2813 155.496 60.5965 155.564C60.9118 155.631 61.0243 155.406 61.0469 155.338L74.8267 128.364C75.6824 126.675 75.9075 126.248 76.8757 126.225C90.7682 125.189 105.381 124.942 119.499 124.694C144.379 124.266 170.138 123.838 194.162 119.177C196.504 118.727 198.26 116.768 198.463 114.427C199.409 103.619 199.634 84.2549 198.418 70.5651C197.337 58.4964 195.198 46.4502 192.068 34.7418C191.438 32.3776 189.276 30.7114 186.845 30.7565C158.294 31.0267 129.428 32.4677 101.013 35.012C73.5658 37.4888 45.8935 41.0464 18.739 45.6397C16.2622 46.0675 14.4159 48.0939 14.2808 50.5932C13.6053 62.6394 13.7854 74.8206 14.8437 86.8217C15.902 98.9579 17.8834 111.139 20.6979 122.983C21.2608 125.369 23.3773 127.036 25.8316 127.081C35.8288 127.216 46.0511 127.193 56.1834 126.946C56.2059 126.968 56.2059 126.968 56.2284 126.968Z" fill="#FFCA55"/>
<path d="M35.1758 133.16L35.0632 133.25C33.2169 134.669 30.56 134.354 29.1189 132.507C27.7004 130.661 26.2143 128.477 24.8634 125.933C21.5085 119.606 21.3283 114.9 20.8555 111.004L29.0064 108.82C29.6143 112.626 29.8394 116.678 32.654 122.398C33.7122 124.559 34.6579 125.82 35.6036 126.766C37.3824 128.612 37.2022 131.584 35.1758 133.16Z" fill="#EAEEF0"/>
<g opacity="0.15">
<path opacity="0.15" d="M22.4091 120.056L30.7851 117.804C29.6818 114.337 29.4342 111.522 29.0064 108.82L20.8555 111.004C21.1707 113.594 21.3509 116.521 22.4091 120.056Z" fill="#8C5213"/>
</g>
<path d="M31.258 114.765L21.1933 117.467C20.788 117.58 20.3602 117.332 20.2701 116.927L19.1893 112.919L30.7401 109.834L31.8209 113.842C31.911 114.247 31.6633 114.652 31.258 114.765Z" fill="url(#paint2_linear)"/>
<g opacity="0.47">
<path opacity="0.47" d="M29.7944 115.17L22.6793 117.084C21.4634 117.422 20.2025 116.679 19.8648 115.463L19.2568 113.189C19.2118 113.054 19.3019 112.896 19.4595 112.851L30.4699 109.901C30.605 109.856 30.7626 109.946 30.8076 110.104L31.4156 112.378C31.7308 113.571 31.0103 114.832 29.7944 115.17Z" fill="#8C5213"/>
</g>
<path d="M25.8541 75.4731L10.9484 79.4585C3.06773 81.575 -1.59311 89.6583 0.500893 97.539L2.14457 103.641C4.26109 111.522 12.3444 116.182 20.2251 114.088L35.1308 110.103C38.7333 109.135 42.5161 108.932 46.2087 109.473L70.1884 113.075L54.7198 55.3662L35.7387 70.4746C32.8341 72.7937 29.4567 74.505 25.8541 75.4731Z" fill="#EAEEF0"/>
<path d="M68.5447 82.5893C72.8228 98.5308 73.3857 112.221 69.8281 113.166C66.2706 114.112 59.921 101.976 55.643 86.0343C51.3649 70.0929 50.802 56.403 54.3595 55.4574C57.9396 54.4892 64.2892 66.6479 68.5447 82.5893Z" fill="url(#paint3_linear)"/>
<path d="M27.813 93.5091C26.0793 87.0019 24.9534 80.9001 24.4581 75.8564L10.9484 79.4815C3.06773 81.5981 -1.59311 89.6814 0.500893 97.562L2.14457 103.664C4.26109 111.545 12.3444 116.205 20.2251 114.111L33.7348 110.486C31.6407 105.87 29.5467 99.9938 27.813 93.5091Z" fill="url(#paint4_linear)"/>
<g opacity="0.47">
<path opacity="0.47" d="M69.8056 108.82C69.7381 109.203 69.2652 109.338 69.0176 109.023C66.6534 106.096 62.5329 98.1478 59.0429 85.1334C55.5529 72.1191 55.1476 63.1802 55.733 59.4425C55.8006 59.0597 56.2734 58.9246 56.5211 59.2399C58.8853 62.167 63.0057 70.1152 66.4957 83.1295C70.0083 96.1439 70.4136 105.083 69.8056 108.82Z" fill="#8C5213"/>
</g>
<mask id="mask0" mask-type="alpha" maskUnits="userSpaceOnUse" x="3" y="99" width="66" height="16">
<path d="M60.1237 99.6328C56.9264 99.6328 53.7066 99.6328 50.5093 99.6328C43.4167 99.6328 37.0671 100.196 29.5918 102.492C26.507 103.438 22.5667 104.924 16.5099 106.343C15.2039 106.658 13.2901 107.063 10.7232 107.176C7.57095 107.288 4.95907 106.838 3.1803 106.41C6.2425 112.58 13.3126 115.957 20.225 114.088L35.1307 110.103C38.7333 109.135 42.516 108.932 46.2087 109.472L68.1169 112.76C65.7977 111.319 62.8706 106.455 60.1237 99.6328Z" fill="url(#paint5_linear)"/>
</mask>
<g mask="url(#mask0)">
<path opacity="0.2" d="M60.1237 99.6328C56.9264 99.6328 53.7066 99.6328 50.5093 99.6328C43.4167 99.6328 37.0671 100.196 29.5918 102.492C26.507 103.438 22.5667 104.924 16.5099 106.343C15.2039 106.658 13.2901 107.063 10.7232 107.176C7.57095 107.288 4.95907 106.838 3.1803 106.41C6.2425 112.58 13.3126 115.957 20.225 114.088L35.1307 110.103C38.7333 109.135 42.516 108.932 46.2087 109.472L68.1169 112.76C65.7977 111.319 62.8706 106.455 60.1237 99.6328Z" fill="url(#paint6_linear)"/>
</g>
<mask id="mask1" mask-type="alpha" maskUnits="userSpaceOnUse" x="13" y="68" width="37" height="23">
<path d="M17.1629 83.6248C22.1389 82.2963 27.115 80.9454 32.0911 79.6169C37.6526 75.9468 43.2141 72.2766 48.7756 68.584C48.708 69.3721 48.6855 70.3628 48.8206 71.4886C49.0007 72.8846 49.3835 74.0554 49.7212 74.8885C44.7677 78.1534 39.8366 81.4182 34.8831 84.683C28.0832 86.5069 21.3058 88.3307 14.506 90.1545C13.6053 88.8936 13.4477 87.2499 14.1007 85.8989C15.0238 84.0301 16.9602 83.6473 17.1629 83.6248Z" fill="url(#paint7_linear)"/>
</mask>
<g mask="url(#mask1)">
<path d="M17.1629 83.6248C22.1389 82.2963 27.115 80.9454 32.0911 79.6169C37.6526 75.9468 43.2141 72.2766 48.7756 68.584C48.708 69.3721 48.6855 70.3628 48.8206 71.4886C49.0007 72.8846 49.3835 74.0554 49.7212 74.8885C44.7677 78.1534 39.8366 81.4182 34.8831 84.683C28.0832 86.5069 21.3058 88.3307 14.506 90.1545C13.6053 88.8936 13.4477 87.2499 14.1007 85.8989C15.0238 84.0301 16.9602 83.6473 17.1629 83.6248Z" fill="url(#paint8_linear)"/>
</g>
<path d="M87.8636 46.2247C86.963 46.2247 86.1974 45.5042 86.1749 44.581C86.1524 43.6579 86.8729 42.8698 87.8186 42.8473C92.0516 42.7347 97.433 41.9692 99.0541 39.0195C99.7071 37.8262 99.5945 36.5878 99.4594 34.8991C99.3018 33.0528 99.0992 30.7561 100.022 28.0542C101.238 24.5417 103.918 21.547 108.016 19.1828C108.826 18.71 109.839 19.0027 110.312 19.7907C110.785 20.6013 110.492 21.6146 109.704 22.0874C106.349 24.0238 104.165 26.4105 103.22 29.1349C102.522 31.1614 102.679 32.8952 102.814 34.5839C102.994 36.5203 103.152 38.5242 102.004 40.6182C100.067 44.1757 95.4515 45.9996 87.9086 46.2022C87.8861 46.2247 87.8861 46.2247 87.8636 46.2247Z" fill="white"/>
<path d="M122.111 136.041C121.953 136.041 121.818 136.041 121.66 136.041C113.217 135.839 111.348 130.367 109.682 125.571C108.533 122.262 107.453 119.132 104.413 117.353C102.229 116.07 99.0992 117.308 94.8436 121.136C94.1456 121.766 93.0873 121.699 92.4569 121.001C91.8264 120.303 91.894 119.244 92.592 118.614C94.6184 116.813 100.743 111.296 106.102 114.426C110.222 116.835 111.618 120.888 112.857 124.468C114.478 129.152 115.626 132.529 121.728 132.664C125.038 132.732 128.37 131.718 131.59 130.728C132.468 130.457 133.414 130.953 133.684 131.831C133.954 132.709 133.459 133.655 132.581 133.925C129.406 134.938 125.803 136.041 122.111 136.041Z" fill="white"/>
<path d="M108.533 39.0872C107.768 39.0872 107.092 38.5693 106.89 37.8038C106.642 36.768 105.989 33.0754 108.443 29.788C110.065 27.6039 112.226 26.7258 113.397 26.3881C114.298 26.1179 115.221 26.6358 115.491 27.5364C115.761 28.437 115.243 29.3602 114.343 29.6304C113.6 29.8556 112.181 30.4185 111.145 31.8145C109.524 33.976 110.042 36.5429 110.155 37.0157C110.38 37.9163 109.817 38.8395 108.916 39.0422C108.804 39.0872 108.669 39.0872 108.533 39.0872Z" fill="white"/>
<path d="M90.1828 73.8292L86.31 74.1895L87.3908 60.5222L81.6717 61.0401L80.5684 74.7074L76.6956 75.0676L78.024 58.2931L91.5337 57.0547L90.1828 73.8292Z" fill="white"/>
<path d="M97.0052 67.5465L96.5548 73.2431L92.6821 73.6034L94.0105 56.8288L99.9548 56.2884C101.801 56.1083 103.287 56.4911 104.436 57.4142C105.584 58.3374 106.169 59.6208 106.192 61.242C106.214 62.3678 105.944 63.3585 105.381 64.2366C104.841 65.1148 104.075 65.8128 103.107 66.3307C102.139 66.8485 101.013 67.1863 99.7521 67.2988L97.0052 67.5465ZM97.2754 64.4393L99.617 64.2366C100.608 64.1241 101.328 63.7413 101.779 63.0658C102.251 62.3903 102.387 61.6248 102.184 60.7241C102.071 60.2738 101.869 59.9135 101.553 59.6659C101.238 59.4182 100.833 59.3056 100.36 59.3281L97.6581 59.5758L97.2754 64.4393Z" fill="white"/>
<path d="M118.103 54.6005L122.088 54.2402L120.76 71.0148L116.864 71.375L117.698 61.0176L111.235 71.8929L107.25 72.2532L108.601 55.4786L112.496 55.1184L111.663 65.4758L118.103 54.6005Z" fill="white"/>
<path d="M123.191 70.7896L124.52 54.0151L129.766 53.5422C131.838 53.3621 133.414 53.6098 134.517 54.2853C135.62 54.9608 136.183 56.019 136.206 57.4375C136.251 59.1938 135.418 60.4997 133.684 61.4004C134.337 61.558 134.877 61.9408 135.305 62.5037C135.71 63.0666 135.936 63.7646 135.958 64.5977C136.003 66.1963 135.485 67.4797 134.404 68.4479C133.324 69.4161 131.793 70.0016 129.789 70.1817L123.191 70.7896ZM127.65 63.3143L127.312 67.3221L129.631 67.1195C130.352 67.0519 130.937 66.8268 131.387 66.4215C131.838 66.0162 132.085 65.5208 132.108 64.9129C132.198 63.6295 131.658 63.0215 130.464 63.0666L127.65 63.3143ZM127.852 60.6573L129.676 60.4997C131.365 60.2971 132.243 59.5766 132.333 58.2931C132.401 57.0322 131.703 56.4693 130.239 56.5819L128.168 56.762L127.852 60.6573Z" fill="white"/>
<path d="M148.365 61.4009L142.285 61.9638L141.947 65.9716L149.13 65.3187L148.882 68.4259L137.827 69.4391L139.155 52.6646L150.233 51.6514L149.986 54.7811L142.803 55.4341L142.51 58.9691L148.59 58.4062L148.365 61.4009Z" fill="white"/>
<path d="M165.252 71.0148L161.739 71.33L162.077 67.2096L153.386 68.0201L153.048 72.1406L149.468 72.4783L149.783 65.2732L150.751 65.2056C152.102 64.2599 152.98 62.5262 153.408 60.0494L154.714 51.2681L165.657 50.2549L164.554 63.9222L166.287 63.7646L165.252 71.0148ZM155.209 64.8228L160.636 64.2599L161.491 53.6999L158.114 54.0151L157.326 59.464C156.943 61.7156 156.245 63.4944 155.209 64.8228Z" fill="white"/>
<path d="M178.041 49.0839L182.026 48.7236L180.698 65.4982L176.802 65.8584L177.636 55.501L171.173 66.3763L167.188 66.7366L168.539 49.962L172.434 49.6018L171.601 59.9592L178.041 49.0839Z" fill="white"/>
<path d="M110.515 106.568L106.124 106.973L106.552 101.817L95.6767 102.83L95.2489 107.986L90.7682 108.391L91.151 99.385L92.3668 99.2949C94.0555 98.1016 95.1588 95.9625 95.6767 92.8328L97.2979 81.8449L110.965 80.584L109.592 97.6738L111.753 97.4711L110.515 106.568ZM97.9734 98.8221L104.773 98.1241L105.832 84.9296L101.598 85.3124L100.608 92.1348C100.135 94.9268 99.2568 97.1559 97.9734 98.8221Z" fill="#2D3B3F"/>
<path d="M118.643 93.6211L118.08 100.759L113.239 101.209L114.906 80.224L122.336 79.5485C124.632 79.3459 126.501 79.8187 127.942 80.967C129.383 82.1154 130.104 83.714 130.126 85.763C130.149 87.159 129.811 88.3974 129.136 89.5007C128.46 90.604 127.492 91.4596 126.276 92.1125C125.06 92.7655 123.642 93.1708 122.066 93.3059L118.643 93.6211ZM118.936 89.7258L121.863 89.4782C123.079 89.3431 124.002 88.8477 124.565 88.0146C125.15 87.1815 125.308 86.2133 125.083 85.0875C124.948 84.5246 124.7 84.0743 124.295 83.7816C123.889 83.4889 123.394 83.3312 122.809 83.3538L119.409 83.6465L118.936 89.7258Z" fill="#2D3B3F"/>
<path d="M140.326 86.866L140.304 87.0462L144.379 77.4768L149.693 76.9814L141.655 94.2513C140.912 95.9401 140.056 97.1784 139.088 98.0115C138.12 98.8446 136.949 99.3175 135.598 99.4526L133.954 99.5652L133.887 95.6248H134.81C135.508 95.5798 136.093 95.3997 136.521 95.0619C136.971 94.7242 137.354 94.1838 137.669 93.4408L138.007 92.6752L132.04 78.5801L136.881 78.1298L140.326 86.866Z" fill="#2D3B3F"/>
<path d="M164.554 79.5252L155.84 80.3358L154.466 97.4255L149.625 97.8759L151.292 76.8908L164.869 75.6299L164.554 79.5252Z" fill="#2D3B3F"/>
<path d="M174.686 91.6392L168.089 92.2471L166.625 96.3L161.266 96.7954L170.295 75.1348L174.866 74.707L180.585 95.0166L175.542 95.4895L174.686 91.6392ZM169.552 88.2392L173.83 87.834L172.277 80.7864L169.552 88.2392Z" fill="#2D3B3F"/>
<path d="M185.336 87.2937L182.724 73.9416L188.128 73.4463L188.466 87.001L185.336 87.2937ZM184.953 94.589L184.48 89.5228L189.547 89.05L190.019 94.1161L184.953 94.589Z" fill="#2D3B3F"/>
<defs>
<linearGradient id="paint0_linear" x1="58.2846" y1="29.9625" x2="5.56529" y2="292.504" gradientUnits="userSpaceOnUse">
<stop stop-color="#FE4F3E"/>
<stop offset="1" stop-color="#CD3B2C"/>
</linearGradient>
<linearGradient id="paint1_linear" x1="120.666" y1="84.9173" x2="-76.504" y2="255.728" gradientUnits="userSpaceOnUse">
<stop stop-color="#FE4F3E"/>
<stop offset="1" stop-color="#CD3B2C"/>
</linearGradient>
<linearGradient id="paint2_linear" x1="-4.18386" y1="141.617" x2="59.9056" y2="81.2221" gradientUnits="userSpaceOnUse">
<stop stop-color="#30C3F1"/>
<stop offset="1" stop-color="#0299DC"/>
</linearGradient>
<linearGradient id="paint3_linear" x1="8.49765" y1="160.27" x2="115.832" y2="8.16529" gradientUnits="userSpaceOnUse">
<stop stop-color="#30C3F1"/>
<stop offset="1" stop-color="#0299DC"/>
</linearGradient>
<linearGradient id="paint4_linear" x1="-2.77363" y1="128.233" x2="57.6969" y2="40.6945" gradientUnits="userSpaceOnUse">
<stop stop-color="#30C3F1"/>
<stop offset="1" stop-color="#0299DC"/>
</linearGradient>
<linearGradient id="paint5_linear" x1="32.0576" y1="86.8192" x2="36.7651" y2="116.692" gradientUnits="userSpaceOnUse">
<stop offset="0.2799" stop-color="white"/>
<stop offset="1"/>
</linearGradient>
<linearGradient id="paint6_linear" x1="32.0576" y1="86.8192" x2="36.7651" y2="116.692" gradientUnits="userSpaceOnUse">
<stop offset="0.2799" stop-color="#603813"/>
<stop offset="1" stop-color="#603813"/>
</linearGradient>
<linearGradient id="paint7_linear" x1="52.1381" y1="73.5765" x2="19.3373" y2="83.3354" gradientUnits="userSpaceOnUse">
<stop stop-color="white"/>
<stop offset="1"/>
</linearGradient>
<linearGradient id="paint8_linear" x1="52.1381" y1="73.5765" x2="19.3373" y2="83.3354" gradientUnits="userSpaceOnUse">
<stop stop-color="white"/>
<stop offset="1" stop-color="white"/>
</linearGradient>
</defs>
</svg>
