<svg width="24" height="19" fill="none" xmlns="http://www.w3.org/2000/svg"><path d="M23.303 2.242a9.538 9.538 0 01-2.746.751A4.794 4.794 0 0022.659.35a9.57 9.57 0 01-3.035 1.16 4.781 4.781 0 00-8.146 4.36A13.57 13.57 0 011.623.875a4.78 4.78 0 001.48 6.383 4.747 4.747 0 01-2.166-.599v.061a4.783 4.783 0 003.834 4.687 4.764 4.764 0 01-2.158.083 4.786 4.786 0 004.465 3.32 9.592 9.592 0 01-5.937 2.046c-.385 0-.767-.023-1.14-.067a13.522 13.522 0 007.327 2.148c8.793 0 13.602-7.284 13.602-13.602 0-.207-.005-.414-.014-.618a9.695 9.695 0 002.386-2.474z" fill="#36BA5F"/></svg>