<svg width="33" height="41" viewBox="0 0 33 41" fill="none" xmlns="http://www.w3.org/2000/svg">
<path fill-rule="evenodd" clip-rule="evenodd" d="M0.739269 0.0568668C0.720313 0.0568668 0.701358 0.0568668 0.682402 0.0568668C0.663447 0.0568668 0.625535 0.0568668 0.60658 0.0568668C0.246423 0.113734 0 0.435979 0 0.77718V32.869C0 33.2671 0.322246 33.6083 0.739269 33.6083H12.7003L12.7571 33.722C14.3873 37.5321 18.1405 40.0153 22.2918 40.0153C28.0164 40.0153 32.6605 35.3712 32.6605 29.6466C32.6605 24.7939 29.2864 20.5858 24.5665 19.5243L24.4148 19.4864V8.07509C24.4148 8.07509 24.4148 8.07509 24.4148 8.05614C24.4148 7.86658 24.339 7.67702 24.2063 7.54434L16.8705 0.208512C16.7378 0.0758225 16.5483 0 16.3587 0C16.3587 0 16.3587 0 16.3397 0H0.758225L0.739269 0.0568668ZM4.77682 19.7707C4.75786 19.7707 4.75786 19.7707 4.7389 19.7707C4.35979 19.8086 4.07546 20.1309 4.07546 20.51C4.07546 20.927 4.3977 21.2492 4.81473 21.2492C4.83368 21.2492 4.85264 21.2492 4.87159 21.2492H16.245L15.809 21.5904C15.0128 22.2349 14.3115 22.9742 13.7428 23.8083L13.686 23.8841H4.87159C4.85264 23.8841 4.83368 23.8841 4.81473 23.8841C4.79577 23.8841 4.79577 23.8841 4.77682 23.8841C4.75786 23.8841 4.75786 23.8841 4.7389 23.8841C4.35979 23.922 4.07546 24.2442 4.07546 24.6233C4.07546 25.0404 4.3977 25.3626 4.81473 25.3626C4.83368 25.3626 4.85264 25.3626 4.87159 25.3626H12.8519L12.7382 25.628C12.4349 26.3483 12.2074 27.0876 12.0747 27.8458L12.0368 27.9974H4.87159C4.85264 27.9974 4.83368 27.9974 4.81473 27.9974C4.79577 27.9974 4.79577 27.9974 4.77682 27.9974C4.75786 27.9974 4.75786 27.9974 4.7389 27.9974C4.35979 28.0354 4.07546 28.3576 4.07546 28.7367C4.07546 29.1537 4.3977 29.476 4.81473 29.476C4.83368 29.476 4.85264 29.476 4.87159 29.476H11.9231V29.6655C11.9231 30.4048 11.9989 31.163 12.1506 31.8833L12.2074 32.1108H1.47854V1.47854H15.6005V8.07509C15.6005 8.47316 15.9227 8.81436 16.3397 8.81436H22.9363V19.2589H22.7278C22.5761 19.2589 22.4435 19.24 22.2918 19.24C21.2303 19.24 20.1688 19.4106 19.1452 19.7328L19.0883 19.7518L19.0314 19.7328C18.9746 19.7138 18.9177 19.7138 18.8608 19.7138H4.87159C4.85264 19.7138 4.83368 19.7138 4.81473 19.7138C4.79577 19.7138 4.79577 19.7138 4.77682 19.7138V19.7707ZM17.0601 2.57796L21.8748 7.39269H17.0601V2.57796ZM22.2918 20.7943C27.2013 20.7943 31.182 24.775 31.182 29.6845C31.182 34.594 27.2013 38.5747 22.2918 38.5747C17.3823 38.5747 13.4016 34.594 13.4016 29.6845C13.4016 24.775 17.3823 20.7943 22.2918 20.7943ZM4.79577 15.6384C4.77682 15.6384 4.77682 15.6384 4.75786 15.6384C4.37875 15.6763 4.09441 15.9985 4.09441 16.3777C4.09441 16.7947 4.41666 17.1169 4.83368 17.1169C4.85264 17.1169 4.87159 17.1169 4.89055 17.1169H19.5622C19.5812 17.1169 19.5622 17.1169 19.5622 17.1169C19.9603 17.1169 20.3015 16.7947 20.3015 16.3777C20.3015 15.9796 19.9792 15.6384 19.5622 15.6384C19.5622 15.6384 19.5622 15.6384 19.5432 15.6384H4.87159C4.85264 15.6384 4.83368 15.6384 4.81473 15.6384C4.79577 15.6384 4.79577 15.6384 4.77682 15.6384H4.79577ZM22.2539 24.7939C22.2349 24.7939 22.216 24.7939 22.216 24.7939C21.8558 24.8319 21.5715 25.1541 21.5715 25.5332V25.5522V28.9452H18.1974C18.1784 28.9452 18.1595 28.9452 18.1405 28.9452C18.1216 28.9452 18.1216 28.9452 18.1026 28.9452C18.0837 28.9452 18.0837 28.9452 18.0647 28.9452C17.6856 28.9831 17.4013 29.3054 17.4013 29.6845C17.4013 30.1015 17.7235 30.4238 18.1405 30.4238C18.1595 30.4238 18.1784 30.4238 18.1974 30.4238H21.5715V33.8168C21.5715 33.8358 21.5715 33.8168 21.5715 33.8168C21.5715 34.2149 21.8937 34.5561 22.3108 34.5561C22.7088 34.5561 23.05 34.2338 23.05 33.8168C23.05 33.8168 23.05 33.8168 23.05 33.7979V30.4048H26.4431C26.8412 30.4048 27.1824 30.0826 27.1824 29.6655C27.1824 29.2675 26.8601 28.9263 26.4431 28.9263H23.05V25.5332V25.5143C23.05 25.1162 22.7278 24.775 22.3108 24.775C22.2918 24.775 22.2729 24.775 22.2729 24.775L22.2539 24.7939Z" fill="#FEFEFE"/>
</svg>
