<svg width="108" height="108" viewBox="0 0 108 108" fill="none" xmlns="http://www.w3.org/2000/svg">
<g filter="url(#filter0_d)">
<path d="M104 50C104 77.6253 81.594 100 54 100C26.375 100 4 77.6253 4 50C4 22.4063 26.375 0 54 0C81.594 0 104 22.4063 104 50Z" fill="#E24B4B"/>
<path d="M43.7407 40.1469C43.1094 40.1469 42.5125 39.8407 42.1469 39.3219C38.6875 34.4407 33.9657 31.3282 27.2813 29.5345C26.2407 29.2532 25.6219 28.1813 25.9031 27.1407C26.1844 26.0969 27.25 25.4876 28.2969 25.7626C34.7563 27.5001 39.7875 30.4782 43.5875 34.8407L46.3281 30.6032C46.9094 29.6969 48.125 29.4376 49.025 30.0219C49.9313 30.6095 50.1907 31.8157 49.6063 32.7219L45.3813 39.2532C45.0313 39.7969 44.4313 40.1313 43.7844 40.1469C43.7657 40.1469 43.75 40.1469 43.7407 40.1469Z" fill="#3E4347"/>
<path d="M35.6813 57.9093C40.0409 57.9093 43.575 53.8911 43.575 48.9344C43.575 43.9776 40.0409 39.9594 35.6813 39.9594C31.3217 39.9594 27.7875 43.9776 27.7875 48.9344C27.7875 53.8911 31.3217 57.9093 35.6813 57.9093Z" fill="#3E4347"/>
<path d="M64.2594 40.1469C64.2438 40.1469 64.2313 40.1469 64.2157 40.1469C63.5687 40.1344 62.9719 39.7969 62.6157 39.2531L58.3938 32.7219C57.8094 31.8156 58.0687 30.6063 58.975 30.0219C59.8781 29.4344 61.0907 29.6969 61.675 30.6031L64.4094 34.8375C68.2125 30.4781 73.2407 27.4969 79.7033 25.7625C80.75 25.4781 81.8153 26.0969 82.0967 27.1407C82.378 28.1813 81.7593 29.2531 80.7187 29.5344C74.0347 31.3313 69.3125 34.4406 65.85 39.325C65.4875 39.8406 64.8907 40.1469 64.2594 40.1469Z" fill="#3E4347"/>
<path d="M72.3187 57.9093C76.6787 57.9093 80.2127 53.8911 80.2127 48.9344C80.2127 43.9776 76.6787 39.9594 72.3187 39.9594C67.9592 39.9594 64.4251 43.9776 64.4251 48.9344C64.4251 53.8911 67.9592 57.9093 72.3187 57.9093Z" fill="#3E4347"/>
<path d="M68.3781 78.4034C64.6938 74.55 59.4251 72.344 53.9157 72.344C48.4063 72.344 43.1375 74.5534 39.4532 78.4034C38.2563 79.6534 36.2751 79.6907 35.0344 78.5C33.7875 77.306 33.7438 75.328 34.9375 74.0813C39.7969 69.0033 46.7125 66.0938 53.9157 66.0938C61.1219 66.0938 68.0375 69.006 72.894 74.0813C74.0873 75.328 74.044 77.306 72.7967 78.5C71.556 79.6907 69.5751 79.6534 68.3781 78.4034Z" fill="#3E4347"/>
<path d="M76.7093 47.7001C76.0347 47.9719 75.1747 47.4063 74.7687 46.4313C74.3873 45.4532 74.6033 44.4469 75.278 44.1751C75.978 43.9001 76.8407 44.4657 77.2187 45.4438C77.6247 46.4157 77.3847 47.4282 76.7093 47.7001Z" fill="#5A5F63"/>
<path d="M39.7469 47.7001C39.0719 47.9719 38.2125 47.4063 37.8063 46.4313C37.4281 45.4532 37.6407 44.4469 38.3188 44.1751C39.0188 43.9001 39.8813 44.4657 40.2594 45.4438C40.6625 46.4157 40.4219 47.4282 39.7469 47.7001Z" fill="#5A5F63"/>
</g>
<defs>
<filter id="filter0_d" x="0" y="0" width="108" height="108" filterUnits="userSpaceOnUse" color-interpolation-filters="sRGB">
<feFlood flood-opacity="0" result="BackgroundImageFix"/>
<feColorMatrix in="SourceAlpha" type="matrix" values="0 0 0 0 0 0 0 0 0 0 0 0 0 0 0 0 0 0 127 0"/>
<feOffset dy="4"/>
<feGaussianBlur stdDeviation="2"/>
<feColorMatrix type="matrix" values="0 0 0 0 0 0 0 0 0 0 0 0 0 0 0 0 0 0 0.25 0"/>
<feBlend mode="normal" in2="BackgroundImageFix" result="effect1_dropShadow"/>
<feBlend mode="normal" in="SourceGraphic" in2="effect1_dropShadow" result="shape"/>
</filter>
</defs>
</svg>
