<svg width="108" height="108" viewBox="0 0 108 108" fill="none" xmlns="http://www.w3.org/2000/svg">
<g filter="url(#filter0_d)">
<path d="M54 100C81.614 100 104 77.614 104 50C104 22.3857 81.614 0 54 0C26.3857 0 4 22.3857 4 50C4 77.614 26.3857 100 54 100Z" fill="#FFD93B"/>
<path d="M76.3753 67.2653C76.3753 68.7687 75.1593 69.9847 73.656 69.9847H34.3406C32.8531 69.9847 31.6219 68.7687 31.6219 67.2653C31.6219 65.7625 32.8531 64.5469 34.3406 64.5469H73.656C75.1627 64.55 76.3753 65.7625 76.3753 67.2653Z" fill="#3E4347"/>
<path d="M38.0844 47.8969C42.1989 47.8969 45.5344 44.5615 45.5344 40.4469C45.5344 36.3325 42.1989 32.9969 38.0844 32.9969C33.9699 32.9969 30.6344 36.3325 30.6344 40.4469C30.6344 44.5615 33.9699 47.8969 38.0844 47.8969Z" fill="#3E4347"/>
<path d="M42.2555 36.6479C41.6105 35.7811 40.633 35.4167 40.0722 35.8339C39.5114 36.2512 39.5797 37.2922 40.2247 38.159C40.8697 39.0258 41.8471 39.3902 42.4079 38.9729C42.9687 38.5557 42.9005 37.5147 42.2555 36.6479Z" fill="#5A5F63"/>
<path d="M69.9062 47.8969C74.0206 47.8969 77.356 44.5615 77.356 40.4469C77.356 36.3325 74.0206 32.9969 69.9062 32.9969C65.7917 32.9969 62.4563 36.3325 62.4563 40.4469C62.4563 44.5615 65.7917 47.8969 69.9062 47.8969Z" fill="#3E4347"/>
<path d="M74.0753 36.6559C73.43 35.7891 72.4527 35.4249 71.892 35.8421C71.3313 36.2595 71.4 37.3003 72.0447 38.167C72.69 39.0337 73.6674 39.3981 74.228 38.9807C74.7887 38.5635 74.72 37.5226 74.0753 36.6559Z" fill="#5A5F63"/>
</g>
<defs>
<filter id="filter0_d" x="0" y="0" width="108" height="108" filterUnits="userSpaceOnUse" color-interpolation-filters="sRGB">
<feFlood flood-opacity="0" result="BackgroundImageFix"/>
<feColorMatrix in="SourceAlpha" type="matrix" values="0 0 0 0 0 0 0 0 0 0 0 0 0 0 0 0 0 0 127 0"/>
<feOffset dy="4"/>
<feGaussianBlur stdDeviation="2"/>
<feColorMatrix type="matrix" values="0 0 0 0 0 0 0 0 0 0 0 0 0 0 0 0 0 0 0.25 0"/>
<feBlend mode="normal" in2="BackgroundImageFix" result="effect1_dropShadow"/>
<feBlend mode="normal" in="SourceGraphic" in2="effect1_dropShadow" result="shape"/>
</filter>
</defs>
</svg>
