<svg width="108" height="108" viewBox="0 0 108 108" fill="none" xmlns="http://www.w3.org/2000/svg">
<g filter="url(#filter0_d)">
<path d="M54 100C81.614 100 104 77.614 104 50C104 22.3857 81.614 0 54 0C26.3857 0 4 22.3857 4 50C4 77.614 26.3857 100 54 100Z" fill="#77F6B1"/>
<path d="M72.394 51.9094C76.7273 51.9094 80.2407 48.3962 80.2407 44.0625C80.2407 39.7288 76.7273 36.2156 72.394 36.2156C68.0601 36.2156 64.5469 39.7288 64.5469 44.0625C64.5469 48.3962 68.0601 51.9094 72.394 51.9094Z" fill="#3E4347"/>
<path d="M75.2427 39.1803C74.044 38.6486 72.7927 38.8467 72.4487 39.6229C72.1047 40.3991 72.7973 41.4594 73.996 41.9912C75.1953 42.5229 76.4467 42.3248 76.7907 41.5486C77.1347 40.7724 76.442 39.712 75.2427 39.1803Z" fill="#5A5F63"/>
<path d="M35.6063 51.9094C39.94 51.9094 43.4532 48.3962 43.4532 44.0625C43.4532 39.7288 39.94 36.2156 35.6063 36.2156C31.2726 36.2156 27.7594 39.7288 27.7594 44.0625C27.7594 48.3962 31.2726 51.9094 35.6063 51.9094Z" fill="#3E4347"/>
<path d="M38.453 39.1791C37.254 38.6473 36.003 38.8455 35.6588 39.6217C35.3145 40.3979 36.0074 41.4582 37.2064 41.9899C38.4054 42.5217 39.6565 42.3235 40.0007 41.5473C40.345 40.7711 39.652 39.7108 38.453 39.1791Z" fill="#5A5F63"/>
<path d="M33.5187 69.7373C32.575 68.85 32.5313 67.3653 33.4187 66.425C34.3063 65.4844 35.7875 65.4375 36.7313 66.325C46.4156 75.4407 61.5843 75.4407 71.2687 66.325C72.2127 65.4375 73.694 65.4844 74.5813 66.425C75.4687 67.3686 75.4247 68.85 74.4813 69.7373C62.9969 80.55 45.0031 80.55 33.5187 69.7373Z" fill="#3E4347"/>
</g>
<defs>
<filter id="filter0_d" x="0" y="0" width="108" height="108" filterUnits="userSpaceOnUse" color-interpolation-filters="sRGB">
<feFlood flood-opacity="0" result="BackgroundImageFix"/>
<feColorMatrix in="SourceAlpha" type="matrix" values="0 0 0 0 0 0 0 0 0 0 0 0 0 0 0 0 0 0 127 0"/>
<feOffset dy="4"/>
<feGaussianBlur stdDeviation="2"/>
<feColorMatrix type="matrix" values="0 0 0 0 0 0 0 0 0 0 0 0 0 0 0 0 0 0 0.25 0"/>
<feBlend mode="normal" in2="BackgroundImageFix" result="effect1_dropShadow"/>
<feBlend mode="normal" in="SourceGraphic" in2="effect1_dropShadow" result="shape"/>
</filter>
</defs>
</svg>
