<svg width="254" height="49" viewBox="0 0 254 49" fill="none" xmlns="http://www.w3.org/2000/svg">
    <path fill-rule="evenodd" clip-rule="evenodd" d="M19.2582 26.5788H28.7758V0H12.1944C5.50234 0 0 5.49394 0 12.1758V36.5273C0 43.2833 5.50234 48.703 12.1944 48.703H28.7014V41.7985H14.3507C11.6739 41.7985 9.51756 39.6455 9.51756 36.9727V11.8045C9.51756 9.13182 11.6739 6.97879 14.3507 6.97879H20.0761C19.5556 8.61212 19.2582 10.3939 19.2582 12.25V26.5788ZM42.9778 36.6015C42.9778 38.4576 42.6803 40.2394 42.1598 41.8727H47.8852C50.5621 41.8727 52.7184 39.7197 52.7184 37.047V11.8045C52.7184 9.13182 50.5621 6.97879 47.8852 6.97879L33.4602 6.90455V0H49.9672C56.7336 0 62.1616 5.49394 62.1616 12.1758V36.5273C62.1616 43.2833 56.6592 48.703 49.9672 48.703H33.4602V22.1985H42.9778V36.6015Z" fill="white"/>
    <path fill-rule="evenodd" clip-rule="evenodd" d="M91.0117 41.7985C90.5656 41.2788 89.9708 41.056 89.2272 41.056C88.558 41.056 87.9631 41.2788 87.517 41.65C87.0709 42.0212 86.8478 42.6151 86.7734 43.3576H85.5094V41.2045H84.3197V46.6242H85.5094V44.2485H86.6991C86.7734 45.0651 86.9965 45.6591 87.4426 46.0303C87.8888 46.4757 88.4093 46.6985 89.1528 46.6985C89.8964 46.6985 90.5656 46.4757 91.0117 45.956C91.4579 45.4363 91.6809 44.7682 91.6809 43.8772C91.6066 42.9863 91.4579 42.3182 91.0117 41.7985ZM88.1862 42.4666C88.4093 42.1697 88.7067 42.0212 89.1528 42.0212C89.599 42.0212 89.8964 42.1697 90.1195 42.4666C90.3425 42.7636 90.4169 43.2091 90.4169 43.8772C90.4169 44.4712 90.3425 44.9909 90.1195 45.2879C89.8964 45.5848 89.599 45.7333 89.1528 45.7333C88.7067 45.7333 88.4093 45.5848 88.1862 45.2879C87.9631 44.9909 87.8888 44.4712 87.8888 43.8772C87.8888 43.2833 88.0375 42.7636 88.1862 42.4666Z" fill="white"/>
    <path fill-rule="evenodd" clip-rule="evenodd" d="M97.332 45.956C97.7037 45.4363 97.9268 44.7682 97.9268 43.8772C97.9268 42.9863 97.7037 42.3182 97.332 41.7985C96.9602 41.2788 96.4397 41.056 95.7705 41.056C95.0269 41.056 94.5064 41.353 94.1346 41.8727H94.0603C93.9859 41.5015 93.9116 41.2788 93.9116 41.1303H92.9449V49H94.1346V46.7727C94.1346 46.6985 94.1346 46.4015 94.0603 45.956H94.1346C94.5064 46.4757 95.0269 46.6985 95.7705 46.6985C96.4397 46.6985 96.9602 46.4757 97.332 45.956ZM96.4397 42.4666C96.6627 42.7636 96.7371 43.2091 96.7371 43.8772C96.7371 44.4712 96.6627 44.9909 96.4397 45.2879C96.2166 45.5848 95.9192 45.8076 95.5474 45.8076C95.1013 45.8076 94.7295 45.6591 94.5064 45.3621C94.2834 45.0651 94.209 44.6197 94.209 43.9515V43.803C94.209 43.2091 94.2834 42.7636 94.5064 42.5409C94.7295 42.2439 95.0269 42.1697 95.5474 42.1697C95.8448 42.0212 96.2166 42.1697 96.4397 42.4666Z" fill="white"/>
    <path fill-rule="evenodd" clip-rule="evenodd" d="M99.2653 41.1302V46.5499H100.678L103.429 42.3181C103.429 42.4666 103.429 42.6893 103.355 43.0605C103.355 43.4318 103.355 43.6545 103.355 43.803V46.5499H104.47V41.1302H103.057L100.306 45.3621C100.381 44.6939 100.381 44.2484 100.381 43.9515V41.1302H99.2653V41.1302Z" fill="white"/>
    <path fill-rule="evenodd" clip-rule="evenodd" d="M111.311 45.7334H110.493V41.2046H107.147C107.073 42.0955 106.998 42.9864 106.775 43.7288C106.552 44.5455 106.255 45.2137 105.883 45.7334H105.437V48.5546H106.478V46.6243H110.196V48.5546H111.311V45.7334V45.7334ZM107.073 45.7334C107.37 45.2879 107.593 44.694 107.816 44.1C108.039 43.4319 108.114 42.7637 108.188 42.0955H109.378V45.7334H107.073V45.7334Z" fill="white"/>
    <path fill-rule="evenodd" clip-rule="evenodd" d="M112.352 41.1302V46.5499H113.765L116.516 42.3181C116.516 42.4666 116.516 42.6893 116.442 43.0605C116.442 43.4318 116.442 43.6545 116.442 43.803V46.5499H117.557V41.1302H116.144L113.393 45.3621C113.467 44.6939 113.467 44.2484 113.467 43.9515V41.1302H112.352V41.1302Z" fill="white"/>
    <path fill-rule="evenodd" clip-rule="evenodd" d="M119.044 41.1303V43.1348C119.044 43.6545 119.193 44.1 119.49 44.3969C119.787 44.6939 120.234 44.8424 120.828 44.8424C121.2 44.8424 121.498 44.7682 121.795 44.6939C122.093 44.6197 122.39 44.4712 122.687 44.2485V46.55H123.877V41.1303H122.687V43.4318C122.39 43.5803 122.093 43.7288 121.795 43.803C121.498 43.8772 121.275 43.8772 120.977 43.8772C120.382 43.8772 120.085 43.5803 120.085 43.0606V41.056H119.044V41.1303Z" fill="white"/>
    <path fill-rule="evenodd" clip-rule="evenodd" d="M128.933 46.6242C129.231 46.55 129.528 46.4757 129.826 46.3272V45.3621C129.528 45.5106 129.231 45.5848 128.933 45.6591C128.636 45.7333 128.338 45.7333 128.041 45.7333C127.52 45.7333 127.149 45.5848 126.926 45.2878C126.628 44.9909 126.554 44.6197 126.479 44.1H130.123V43.506C130.123 42.7636 129.9 42.1697 129.528 41.7242C129.082 41.2788 128.561 41.056 127.818 41.056C127.074 41.056 126.405 41.2788 125.959 41.7985C125.513 42.3182 125.29 42.9863 125.29 43.8772C125.29 44.7682 125.513 45.4363 126.033 45.8818C126.479 46.4015 127.149 46.6242 128.041 46.6242C128.338 46.6985 128.636 46.6985 128.933 46.6242ZM128.561 42.2439C128.785 42.4666 128.859 42.8378 128.859 43.2833H126.405C126.479 42.8378 126.554 42.4666 126.777 42.2439C127 42.0212 127.297 41.8727 127.669 41.8727C128.115 41.9469 128.413 42.0212 128.561 42.2439Z" fill="white"/>
    <path fill-rule="evenodd" clip-rule="evenodd" d="M134.436 46.6242C134.659 46.5499 134.882 46.4757 135.105 46.3272V45.2878C134.659 45.5106 134.138 45.659 133.618 45.659C133.172 45.659 132.8 45.5106 132.577 45.2136C132.354 44.9166 132.205 44.4712 132.205 43.8772C132.205 42.6151 132.651 42.0212 133.618 42.0212C133.915 42.0212 134.361 42.0954 134.807 42.3181L135.179 41.4272C134.733 41.2045 134.213 41.1302 133.618 41.1302C132.8 41.1302 132.131 41.353 131.684 41.8727C131.238 42.3924 131.015 43.0606 131.015 44.0257C131.015 44.9166 131.238 45.5848 131.684 46.1045C132.131 46.6242 132.725 46.8469 133.543 46.8469C133.915 46.6984 134.213 46.6984 134.436 46.6242Z" fill="white"/>
    <path fill-rule="evenodd" clip-rule="evenodd" d="M137.559 43.803V41.1302H136.369V46.6242H137.559V43.803L139.864 46.6242H141.202L138.748 43.803L140.979 41.1302H139.715L137.559 43.803Z" fill="white"/>
    <path fill-rule="evenodd" clip-rule="evenodd" d="M146.333 46.6242V42.9863C146.333 42.3181 146.184 41.8727 145.812 41.5757C145.44 41.2787 144.92 41.1302 144.251 41.1302C143.953 41.1302 143.581 41.2045 143.284 41.2787C142.912 41.353 142.615 41.5015 142.317 41.6499L142.689 42.4666C142.912 42.3924 143.21 42.2439 143.433 42.1696C143.73 42.0954 143.953 42.0212 144.251 42.0212C144.622 42.0212 144.845 42.0954 144.994 42.3181C145.143 42.4666 145.217 42.7636 145.217 43.0606V43.3575H144.251C143.358 43.3575 142.764 43.506 142.317 43.803C141.871 44.0999 141.723 44.5454 141.723 45.0651C141.723 45.5848 141.871 46.0302 142.169 46.3272C142.466 46.6242 142.912 46.7727 143.433 46.7727C143.879 46.7727 144.176 46.6984 144.474 46.6242C144.771 46.4757 144.994 46.253 145.292 45.956H145.366L145.589 46.6984H146.333V46.6242ZM143.135 45.5848C142.987 45.4363 142.912 45.2878 142.912 44.9909C142.912 44.6939 143.061 44.3969 143.284 44.2484C143.507 44.0999 143.953 44.0257 144.474 43.9515H145.143V44.3969C145.143 44.8424 144.994 45.1393 144.771 45.3621C144.548 45.5848 144.176 45.7333 143.73 45.7333C143.507 45.8075 143.284 45.7333 143.135 45.5848Z" fill="white"/>
    <path fill-rule="evenodd" clip-rule="evenodd" d="M149.827 44.4712H150.943V46.5499H152.132V41.1302H149.679C149.009 41.1302 148.563 41.2787 148.192 41.5757C147.82 41.8727 147.671 42.2439 147.671 42.7636C147.671 43.1348 147.745 43.506 147.969 43.803C148.192 44.0999 148.489 44.2484 148.861 44.3969L147.374 46.6242H148.638L149.827 44.4712ZM148.935 42.2439C149.084 42.0954 149.381 42.0212 149.679 42.0212H150.943V43.6545H149.827C149.456 43.6545 149.158 43.5802 148.935 43.4318C148.712 43.2833 148.638 43.0606 148.638 42.8378C148.712 42.5409 148.786 42.3924 148.935 42.2439Z" fill="white"/>
    <path fill-rule="evenodd" clip-rule="evenodd" d="M157.56 43.803V41.1302H156.371V46.6242H157.56V43.803L159.865 46.6242H161.204L158.75 43.803L161.055 41.1302H159.791L157.56 43.803Z" fill="white"/>
    <path fill-rule="evenodd" clip-rule="evenodd" d="M166.26 41.7985C165.814 41.2788 165.145 41.056 164.401 41.056C163.583 41.056 162.914 41.2788 162.468 41.7985C162.022 42.3182 161.799 42.9863 161.799 43.8772C161.799 44.4712 161.873 44.9166 162.096 45.3621C162.319 45.8076 162.617 46.1045 162.988 46.3273C163.36 46.55 163.806 46.6985 164.327 46.6985C165.145 46.6985 165.814 46.4757 166.26 45.956C166.706 45.4363 166.929 44.7682 166.929 43.8772C166.929 42.9863 166.706 42.3182 166.26 41.7985ZM163.286 42.4666C163.509 42.1697 163.881 41.9469 164.327 41.9469C165.219 41.9469 165.74 42.5409 165.74 43.803C165.74 45.0651 165.293 45.6591 164.327 45.6591C163.435 45.6591 162.914 45.0651 162.914 43.803C162.988 43.2833 163.063 42.8379 163.286 42.4666Z" fill="white"/>
    <path fill-rule="evenodd" clip-rule="evenodd" d="M171.019 44.0257L169.829 41.1302H168.268V46.5499H169.309V42.1696C169.457 42.6893 169.606 43.209 169.755 43.5802L170.944 46.5499H171.837L173.026 43.6545C173.101 43.4318 173.249 42.9863 173.398 42.4666L173.472 42.1696V46.5499H174.513V41.1302H172.952L171.762 44.0999C171.688 44.3969 171.539 44.7681 171.391 45.2136L171.316 45.4363C171.242 44.7681 171.093 44.3227 171.019 44.0257Z" fill="white"/>
    <path fill-rule="evenodd" clip-rule="evenodd" d="M176.224 41.1302V46.6242H177.413V42.0954H179.867V46.6242H180.982V41.1302H176.224Z" fill="white"/>
    <path fill-rule="evenodd" clip-rule="evenodd" d="M186.931 46.6242V42.9863C186.931 42.3181 186.782 41.8727 186.41 41.5757C186.039 41.2787 185.518 41.1302 184.849 41.1302C184.552 41.1302 184.18 41.2045 183.882 41.2787C183.511 41.353 183.213 41.5015 182.916 41.6499L183.288 42.4666C183.511 42.3924 183.808 42.2439 184.031 42.1696C184.329 42.0954 184.552 42.0212 184.849 42.0212C185.221 42.0212 185.444 42.0954 185.593 42.3181C185.741 42.4666 185.816 42.7636 185.816 43.0606V43.3575H184.849C183.957 43.3575 183.362 43.506 182.916 43.803C182.47 44.0999 182.321 44.5454 182.321 45.0651C182.321 45.5848 182.47 46.0302 182.767 46.3272C183.064 46.6242 183.511 46.7727 184.031 46.7727C184.477 46.7727 184.775 46.6984 185.072 46.6242C185.37 46.4757 185.593 46.253 185.89 45.956H185.964L186.187 46.6984H186.931V46.6242ZM183.734 45.5848C183.585 45.4363 183.511 45.2878 183.511 44.9909C183.511 44.6939 183.659 44.3969 183.882 44.2484C184.105 44.0999 184.552 44.0257 185.072 43.9515H185.741V44.3969C185.741 44.8424 185.593 45.1393 185.37 45.3621C185.146 45.5848 184.775 45.7333 184.329 45.7333C184.031 45.8075 183.882 45.7333 183.734 45.5848Z" fill="white"/>
    <path fill-rule="evenodd" clip-rule="evenodd" d="M188.492 41.1302V46.6242H189.682V44.2484H192.21V46.6242H193.4V41.1302H192.21V43.3575H189.682V41.1302H188.492Z" fill="white"/>
    <path fill-rule="evenodd" clip-rule="evenodd" d="M195.036 41.1302V46.5499H196.448L199.2 42.3181C199.2 42.4666 199.2 42.6893 199.125 43.0605C199.125 43.4318 199.125 43.6545 199.125 43.803V46.5499H200.241V41.1302H198.828L196.077 45.3621C196.151 44.6939 196.151 44.2484 196.151 43.9515V41.1302H195.036V41.1302Z" fill="white"/>
    <path fill-rule="evenodd" clip-rule="evenodd" d="M203.735 44.4712H204.851V46.5499H206.04V41.1302H203.587C202.917 41.1302 202.471 41.2787 202.1 41.5757C201.728 41.8727 201.579 42.2439 201.579 42.7636C201.579 43.1348 201.653 43.506 201.876 43.803C202.1 44.0999 202.397 44.2484 202.769 44.3969L201.282 46.6242H202.546L203.735 44.4712ZM202.843 42.2439C202.992 42.0954 203.289 42.0212 203.587 42.0212H204.851V43.6545H203.735C203.364 43.6545 203.066 43.5802 202.843 43.4318C202.62 43.2833 202.546 43.0606 202.546 42.8378C202.62 42.5409 202.694 42.3924 202.843 42.2439Z" fill="white"/>
    <path fill-rule="evenodd" clip-rule="evenodd" d="M249.762 8.83488H250.134C250.357 8.83488 250.58 8.76063 250.654 8.68639C250.803 8.53791 250.877 8.38942 250.877 8.1667C250.877 7.94397 250.803 7.79548 250.728 7.647C250.58 7.57276 250.431 7.49851 250.134 7.49851H249.836V8.83488H249.762ZM251.769 8.09245C251.769 8.68639 251.546 9.0576 251.026 9.20609L252.216 11.1364H251.175L250.208 9.42882H249.762V11.1364H248.795V6.68185H250.059C250.654 6.68185 251.026 6.83033 251.323 7.05306C251.621 7.35003 251.769 7.647 251.769 8.09245ZM247.159 8.98336C247.159 8.38942 247.308 7.86973 247.605 7.42427C247.903 6.97882 248.275 6.53336 248.721 6.31063C249.167 6.01366 249.687 5.86518 250.282 5.86518C250.803 5.86518 251.323 6.01366 251.844 6.31063C252.29 6.6076 252.736 6.97882 252.959 7.42427C253.256 7.86973 253.405 8.38942 253.405 8.98336C253.405 9.50306 253.256 10.0228 252.959 10.5425C252.662 10.9879 252.29 11.3591 251.844 11.6561C251.398 11.9531 250.877 12.1015 250.282 12.1015C249.762 12.1015 249.241 11.9531 248.721 11.6561C248.275 11.3591 247.828 10.9879 247.605 10.5425C247.308 10.097 247.159 9.5773 247.159 8.98336ZM246.564 8.98336C246.564 8.31518 246.713 7.72124 247.085 7.1273C247.382 6.53336 247.829 6.08791 248.423 5.79094C249.018 5.49397 249.613 5.27124 250.282 5.27124C250.951 5.27124 251.546 5.41973 252.141 5.79094C252.736 6.08791 253.182 6.6076 253.48 7.1273C253.777 7.72124 254 8.31518 254 8.98336C254 9.65154 253.851 10.2455 253.554 10.8394C253.256 11.4334 252.81 11.8788 252.216 12.1758C251.621 12.547 251.026 12.6955 250.357 12.6955C249.687 12.6955 249.018 12.547 248.498 12.1758C247.903 11.8046 247.457 11.3591 247.159 10.8394C246.713 10.2455 246.564 9.65154 246.564 8.98336Z" fill="white"/>
    <path fill-rule="evenodd" clip-rule="evenodd" d="M175.48 17.0015H180.239V30.2167H171.911L175.48 17.0015ZM184.552 30.2167V13.2152H174.737C172.878 13.2152 171.688 14.2546 171.242 15.9621C170.424 19.1546 168.565 25.9106 167.45 30.1424H164.773V37.6409H169.086V33.8546H182.916V37.6409H187.228V30.2167H184.552ZM114.211 33.9288V17.0015H120.308V13.2152H105.957C105.362 13.2152 104.842 13.4379 104.396 13.8091C103.95 14.2546 103.727 14.7743 103.727 15.3682V17.0015H109.898V33.9288H114.211ZM235.485 33.9288V17.0015H245.598V13.2152H235.485H233.403C232.809 13.2152 232.288 13.4379 231.842 13.8091C231.396 14.2546 231.173 14.7743 231.173 15.3682V33.9288H235.485ZM194.515 18.5606C195.556 17.3727 196.969 16.7788 198.828 16.7788C200.612 16.7788 202.1 17.3727 203.141 18.5606C204.182 19.8227 204.702 21.5303 204.702 23.6834C204.702 25.8364 204.182 27.4697 203.141 28.7318C202.1 29.9197 200.687 30.5137 198.828 30.5137C196.969 30.5137 195.556 29.9197 194.515 28.7318C193.474 27.6182 193.028 25.9106 193.028 23.6834C193.028 21.4561 193.549 19.7485 194.515 18.5606ZM191.392 31.1818C193.177 33.0379 195.705 33.9288 198.828 33.9288C201.951 33.9288 204.405 33.0379 206.264 31.1818C208.048 29.3258 209.015 26.8015 209.015 23.6091C209.015 20.4167 208.122 17.8924 206.264 15.9621C204.33 14.1061 201.877 13.1409 198.828 13.1409C195.779 13.1409 193.326 14.1061 191.392 15.9621C189.608 17.8182 188.716 20.3424 188.716 23.6091C188.716 26.8758 189.608 29.4 191.392 31.1818ZM148.861 33.9288V17.0015H157.412V33.9288H161.724V13.2152H146.704C146.11 13.2152 145.589 13.4379 145.143 13.8091C144.697 14.2546 144.474 14.7743 144.474 15.3682V33.9288H148.861ZM127.446 18.5606C128.413 17.3727 129.9 16.7788 131.759 16.7788C133.543 16.7788 135.03 17.3727 136.071 18.5606C137.112 19.8227 137.633 21.5303 137.633 23.6834C137.633 25.8364 137.112 27.4697 136.071 28.7318C135.03 29.9197 133.618 30.5137 131.759 30.5137C129.9 30.5137 128.487 29.9197 127.446 28.7318C126.405 27.6182 125.959 25.9106 125.959 23.6834C125.959 21.4561 126.405 19.7485 127.446 18.5606ZM124.323 31.1818C126.108 33.0379 128.636 33.9288 131.759 33.9288C134.882 33.9288 137.336 33.0379 139.194 31.1818C140.979 29.3258 141.946 26.8015 141.946 23.6091C141.946 20.4167 141.053 17.8924 139.194 15.9621C137.261 14.1061 134.807 13.1409 131.759 13.1409C128.71 13.1409 126.256 14.1061 124.323 15.9621C122.539 17.8182 121.646 20.3424 121.646 23.6091C121.646 26.8758 122.539 29.4 124.323 31.1818ZM97.7781 26.653C97.4807 27.9152 96.8859 28.8061 96.1423 29.4C95.3244 29.994 94.209 30.2909 92.945 30.2909C91.0861 30.2909 89.6733 29.697 88.7811 28.5091C87.8144 27.3955 87.3683 25.6879 87.3683 23.6091C87.3683 21.3818 87.8144 19.7485 88.7811 18.5606C89.822 17.447 91.2348 16.8531 93.0937 16.8531C94.4321 16.8531 95.4731 17.15 96.291 17.744C96.6628 18.1152 97.0346 18.5606 97.332 19.0803C97.7038 19.897 98.4473 20.2682 99.414 20.2682H102.016C101.793 18.0409 100.975 16.3334 99.4883 15.1455C97.9268 13.8834 95.8449 13.2894 93.1681 13.2894C89.8964 13.2894 87.4426 14.1803 85.6581 15.9621C83.9479 17.6697 83.13 20.2682 83.13 23.6834C83.13 27.0243 83.9479 29.5485 85.5837 31.3303C87.2196 33.1121 89.599 34.003 92.7963 34.003C95.4731 34.003 97.6294 33.4091 99.3396 32.147C100.975 30.8849 101.868 29.0288 102.091 26.8015H97.7781V26.653ZM227.901 13.2152V33.9288H223.588V17.0015H218.83L214.294 33.9288H209.833C209.833 33.9288 213.327 20.8621 214.591 15.9621C215.038 14.2546 216.227 13.1409 218.086 13.2152H227.901Z" fill="white"/>
</svg>
