<svg width="292" height="75" viewBox="0 0 292 75" fill="none" xmlns="http://www.w3.org/2000/svg">
    <path fill-rule="evenodd" clip-rule="evenodd" d="M13.4692 62.4214C12.7068 61.5333 11.6903 61.1526 10.4196 61.1526C9.27598 61.1526 8.25944 61.5333 7.49704 62.1676C6.73464 62.802 6.35344 63.817 6.22637 65.0857H4.06624V61.4064H2.03317V70.6681H4.06624V66.6082H6.09931C6.22637 68.0038 6.60758 69.0188 7.36998 69.6531C8.13238 70.4144 9.02185 70.795 10.2925 70.795C11.5632 70.795 12.7068 70.4144 13.4692 69.5263C14.2316 68.6382 14.6128 67.4963 14.6128 65.9738C14.4857 64.4513 14.2316 63.3095 13.4692 62.4214ZM8.64064 63.5632C9.02185 63.0557 9.53012 62.802 10.2925 62.802C11.0549 62.802 11.5632 63.0557 11.9444 63.5632C12.3256 64.0707 12.4527 64.832 12.4527 65.9738C12.4527 66.9888 12.3256 67.8769 11.9444 68.3844C11.5632 68.8919 11.0549 69.1457 10.2925 69.1457C9.53012 69.1457 9.02185 68.8919 8.64064 68.3844C8.25944 67.8769 8.13238 66.9888 8.13238 65.9738C8.13238 64.9588 8.38651 64.0707 8.64064 63.5632Z" fill="white"/>
    <path fill-rule="evenodd" clip-rule="evenodd" d="M24.2698 69.5263C24.9052 68.6382 25.2864 67.4963 25.2864 65.9738C25.2864 64.4513 24.9052 63.3095 24.2698 62.4214C23.6345 61.5333 22.745 61.1526 21.6014 61.1526C20.3307 61.1526 19.4413 61.6601 18.8059 62.5483H18.6789C18.5518 61.9139 18.4247 61.5333 18.4247 61.2795H16.7729V74.7281H18.8059V70.9219C18.8059 70.795 18.8059 70.2875 18.6789 69.5263H18.8059C19.4413 70.4144 20.3307 70.795 21.6014 70.795C22.745 70.795 23.6345 70.4144 24.2698 69.5263ZM22.745 63.5632C23.1262 64.0707 23.2533 64.832 23.2533 65.9738C23.2533 66.9888 23.1262 67.8769 22.745 68.3844C22.3638 68.8919 21.8555 69.2725 21.2202 69.2725C20.4578 69.2725 19.8225 69.0188 19.4413 68.5113C19.0601 68.0038 18.933 67.2426 18.933 66.1007V65.847C18.933 64.832 19.0601 64.0707 19.4413 63.6901C19.8225 63.1826 20.3307 63.0557 21.2202 63.0557C21.7285 62.802 22.3638 63.0557 22.745 63.5632Z" fill="white"/>
    <path fill-rule="evenodd" clip-rule="evenodd" d="M27.5736 61.2795V70.5412H29.9879L34.6894 63.3094C34.6894 63.5632 34.6894 63.9438 34.5623 64.5782C34.5623 65.2125 34.5623 65.5932 34.5623 65.8469V70.5412H36.4683V61.2795H34.0541L29.3526 68.5112C29.4796 67.3694 29.4796 66.6081 29.4796 66.1006V61.2795H27.5736V61.2795Z" fill="white"/>
    <path fill-rule="evenodd" clip-rule="evenodd" d="M48.1584 69.1457H46.7607V61.4065H41.0427C40.9156 62.929 40.7886 64.4514 40.4074 65.7202C40.0262 67.1158 39.5179 68.2576 38.8825 69.1457H38.1201V73.9669H39.8991V70.6682H46.2524V73.9669H48.1584V69.1457V69.1457ZM40.9156 69.1457C41.4239 68.3845 41.8051 67.3695 42.1863 66.3545C42.5675 65.2127 42.6946 64.0708 42.8216 62.929H44.8547V69.1457H40.9156V69.1457Z" fill="white"/>
    <path fill-rule="evenodd" clip-rule="evenodd" d="M49.9373 61.2795V70.5412H52.3516L57.0531 63.3094C57.0531 63.5632 57.0531 63.9438 56.926 64.5782C56.926 65.2125 56.926 65.5932 56.926 65.8469V70.5412H58.832V61.2795H56.4177L51.7163 68.5112C51.8433 67.3694 51.8433 66.6081 51.8433 66.1006V61.2795H49.9373V61.2795Z" fill="white"/>
    <path fill-rule="evenodd" clip-rule="evenodd" d="M61.3734 61.2795V64.7051C61.3734 65.5932 61.6276 66.3544 62.1358 66.8619C62.6441 67.3694 63.4065 67.6232 64.423 67.6232C65.0584 67.6232 65.5666 67.4963 66.0749 67.3694C66.5832 67.2426 67.0914 66.9888 67.5997 66.6082V70.5412H69.6328V61.2795H67.5997V65.2126C67.0914 65.4663 66.5832 65.7201 66.0749 65.8469C65.5666 65.9738 65.1854 65.9738 64.6772 65.9738C63.6606 65.9738 63.1524 65.4663 63.1524 64.5782V61.1526H61.3734V61.2795Z" fill="white"/>
    <path fill-rule="evenodd" clip-rule="evenodd" d="M78.2733 70.6681C78.7815 70.5412 79.2898 70.4144 79.7981 70.1606V68.5113C79.2898 68.765 78.7815 68.8919 78.2733 69.0188C77.765 69.1456 77.2567 69.1456 76.7485 69.1456C75.859 69.1456 75.2237 68.8919 74.8425 68.3844C74.3342 67.8769 74.2071 67.2426 74.0801 66.3544H80.3063V65.3395C80.3063 64.0707 79.9251 63.0557 79.2898 62.2945C78.5274 61.5333 77.6379 61.1526 76.3673 61.1526C75.0966 61.1526 73.953 61.5333 73.1906 62.4214C72.4282 63.3095 72.047 64.4513 72.047 65.9738C72.047 67.4963 72.4282 68.6382 73.3177 69.3994C74.0801 70.2875 75.2237 70.6681 76.7485 70.6681C77.2567 70.795 77.765 70.795 78.2733 70.6681ZM77.6379 63.1826C78.0191 63.5632 78.1462 64.1976 78.1462 64.9588H73.953C74.0801 64.1976 74.2071 63.5632 74.5883 63.1826C74.9695 62.802 75.4778 62.5483 76.1131 62.5483C76.8755 62.6751 77.3838 62.802 77.6379 63.1826Z" fill="white"/>
    <path fill-rule="evenodd" clip-rule="evenodd" d="M87.6763 70.6681C88.0575 70.5412 88.4387 70.4143 88.8199 70.1606V68.3844C88.0575 68.765 87.1681 69.0187 86.2786 69.0187C85.5162 69.0187 84.8809 68.765 84.4997 68.2575C84.1185 67.75 83.8643 66.9888 83.8643 65.9738C83.8643 63.8169 84.6267 62.802 86.2786 62.802C86.7869 62.802 87.5493 62.9288 88.3117 63.3094L88.947 61.787C88.1846 61.4064 87.2951 61.2795 86.2786 61.2795C84.8808 61.2795 83.7373 61.6601 82.9749 62.5482C82.2125 63.4363 81.8312 64.5782 81.8312 66.2275C81.8312 67.75 82.2125 68.8919 82.9749 69.78C83.7373 70.6681 84.7538 71.0487 86.1515 71.0487C86.7869 70.7949 87.2951 70.795 87.6763 70.6681Z" fill="white"/>
    <path fill-rule="evenodd" clip-rule="evenodd" d="M93.0131 65.8469V61.2795H90.9801V70.6681H93.0131V65.8469L96.9522 70.6681H99.2394L95.0462 65.8469L98.8582 61.2795H96.6981L93.0131 65.8469Z" fill="white"/>
    <path fill-rule="evenodd" clip-rule="evenodd" d="M108.007 70.6681V64.4513C108.007 63.3094 107.753 62.5482 107.118 62.0407C106.482 61.5332 105.593 61.2795 104.449 61.2795C103.941 61.2795 103.306 61.4063 102.797 61.5332C102.162 61.6601 101.654 61.9138 101.145 62.1676L101.781 63.5632C102.162 63.4363 102.67 63.1826 103.051 63.0557C103.56 62.9288 103.941 62.802 104.449 62.802C105.085 62.802 105.466 62.9288 105.72 63.3094C105.974 63.5632 106.101 64.0707 106.101 64.5782V65.0857H104.449C102.924 65.0857 101.908 65.3394 101.145 65.8469C100.383 66.3544 100.129 67.1156 100.129 68.0037C100.129 68.8919 100.383 69.6531 100.891 70.1606C101.4 70.6681 102.162 70.9218 103.051 70.9218C103.814 70.9218 104.322 70.7949 104.83 70.6681C105.339 70.4143 105.72 70.0337 106.228 69.5262H106.355L106.736 70.7949H108.007V70.6681ZM102.543 68.8919C102.289 68.6381 102.162 68.3844 102.162 67.8769C102.162 67.3694 102.416 66.8619 102.797 66.6081C103.179 66.3544 103.941 66.2275 104.83 66.1006H105.974V66.8619C105.974 67.6231 105.72 68.1306 105.339 68.5112C104.957 68.8918 104.322 69.1456 103.56 69.1456C103.179 69.2725 102.797 69.1456 102.543 68.8919Z" fill="white"/>
    <path fill-rule="evenodd" clip-rule="evenodd" d="M113.979 66.9888H115.885V70.5412H117.918V61.2795H113.725C112.582 61.2795 111.819 61.5332 111.184 62.0407C110.549 62.5482 110.294 63.1826 110.294 64.0707C110.294 64.705 110.421 65.3394 110.803 65.8469C111.184 66.3544 111.692 66.6081 112.327 66.8619L109.786 70.6681H111.946L113.979 66.9888ZM112.454 63.1826C112.709 62.9288 113.217 62.802 113.725 62.802H115.885V65.5932H113.979C113.344 65.5932 112.836 65.4663 112.454 65.2125C112.073 64.9588 111.946 64.5782 111.946 64.1976C112.073 63.6901 112.2 63.4363 112.454 63.1826Z" fill="white"/>
    <path fill-rule="evenodd" clip-rule="evenodd" d="M127.194 65.8469V61.2795H125.161V70.6681H127.194V65.8469L131.133 70.6681H133.42L129.227 65.8469L133.166 61.2795H131.006L127.194 65.8469Z" fill="white"/>
    <path fill-rule="evenodd" clip-rule="evenodd" d="M142.061 62.4214C141.299 61.5333 140.155 61.1526 138.884 61.1526C137.487 61.1526 136.343 61.5333 135.581 62.4214C134.818 63.3095 134.437 64.4513 134.437 65.9738C134.437 66.9888 134.564 67.75 134.945 68.5113C135.327 69.2725 135.835 69.78 136.47 70.1606C137.105 70.5413 137.868 70.795 138.757 70.795C140.155 70.795 141.299 70.4144 142.061 69.5263C142.823 68.6382 143.205 67.4963 143.205 65.9738C143.205 64.4513 142.823 63.3095 142.061 62.4214ZM136.978 63.5632C137.36 63.0557 137.995 62.6751 138.757 62.6751C140.282 62.6751 141.172 63.6901 141.172 65.847C141.172 68.0038 140.409 69.0188 138.757 69.0188C137.233 69.0188 136.343 68.0038 136.343 65.847C136.47 64.9588 136.597 64.1976 136.978 63.5632Z" fill="white"/>
    <path fill-rule="evenodd" clip-rule="evenodd" d="M150.193 66.2275L148.16 61.2795H145.492V70.5412H147.271V63.0557C147.525 63.9438 147.779 64.8319 148.033 65.4663L150.066 70.5412H151.591L153.624 65.5932C153.751 65.2125 154.005 64.4513 154.259 63.5632L154.386 63.0557V70.5412H156.165V61.2795H153.497L151.464 66.3544C151.337 66.8619 151.083 67.4962 150.829 68.2575L150.701 68.6381C150.574 67.4962 150.32 66.735 150.193 66.2275Z" fill="white"/>
    <path fill-rule="evenodd" clip-rule="evenodd" d="M159.088 61.2795V70.6681H161.121V62.9288H165.314V70.6681H167.22V61.2795H159.088Z" fill="white"/>
    <path fill-rule="evenodd" clip-rule="evenodd" d="M177.386 70.6681V64.4513C177.386 63.3094 177.132 62.5482 176.496 62.0407C175.861 61.5332 174.971 61.2795 173.828 61.2795C173.32 61.2795 172.684 61.4063 172.176 61.5332C171.541 61.6601 171.032 61.9138 170.524 62.1676L171.159 63.5632C171.541 63.4363 172.049 63.1826 172.43 63.0557C172.938 62.9288 173.32 62.802 173.828 62.802C174.463 62.802 174.844 62.9288 175.099 63.3094C175.353 63.5632 175.48 64.0707 175.48 64.5782V65.0857H173.828C172.303 65.0857 171.287 65.3394 170.524 65.8469C169.762 66.3544 169.508 67.1156 169.508 68.0037C169.508 68.8919 169.762 69.6531 170.27 70.1606C170.778 70.6681 171.541 70.9218 172.43 70.9218C173.193 70.9218 173.701 70.7949 174.209 70.6681C174.717 70.4143 175.099 70.0337 175.607 69.5262H175.734L176.115 70.7949H177.386V70.6681ZM171.922 68.8919C171.668 68.6381 171.541 68.3844 171.541 67.8769C171.541 67.3694 171.795 66.8619 172.176 66.6081C172.557 66.3544 173.32 66.2275 174.209 66.1006H175.353V66.8619C175.353 67.6231 175.099 68.1306 174.717 68.5112C174.336 68.8918 173.701 69.1456 172.938 69.1456C172.43 69.2725 172.176 69.1456 171.922 68.8919Z" fill="white"/>
    <path fill-rule="evenodd" clip-rule="evenodd" d="M180.054 61.2795V70.6681H182.087V66.6081H186.407V70.6681H188.44V61.2795H186.407V65.0857H182.087V61.2795H180.054Z" fill="white"/>
    <path fill-rule="evenodd" clip-rule="evenodd" d="M191.236 61.2795V70.5412H193.65L198.351 63.3094C198.351 63.5632 198.351 63.9438 198.224 64.5782C198.224 65.2125 198.224 65.5932 198.224 65.8469V70.5412H200.13V61.2795H197.716L193.015 68.5112C193.142 67.3694 193.142 66.6081 193.142 66.1006V61.2795H191.236V61.2795Z" fill="white"/>
    <path fill-rule="evenodd" clip-rule="evenodd" d="M206.103 66.9888H208.009V70.5412H210.042V61.2795H205.849C204.705 61.2795 203.942 61.5332 203.307 62.0407C202.672 62.5482 202.418 63.1826 202.418 64.0707C202.418 64.705 202.545 65.3394 202.926 65.8469C203.307 66.3544 203.815 66.6081 204.451 66.8619L201.909 70.6681H204.07L206.103 66.9888ZM204.578 63.1826C204.832 62.9288 205.34 62.802 205.849 62.802H208.009V65.5932H206.103C205.467 65.5932 204.959 65.4663 204.578 65.2125C204.197 64.9588 204.07 64.5782 204.07 64.1976C204.197 63.6901 204.324 63.4363 204.578 63.1826Z" fill="white"/>
    <path fill-rule="evenodd" clip-rule="evenodd" d="M284.757 6.0899H285.392C285.774 6.0899 286.155 5.96303 286.282 5.83615C286.536 5.58241 286.663 5.32866 286.663 4.94804C286.663 4.56743 286.536 4.31368 286.409 4.05993C286.155 3.93306 285.901 3.80619 285.392 3.80619H284.884V6.0899H284.757ZM288.188 4.82117C288.188 5.83615 287.807 6.47052 286.917 6.72427L288.95 10.023H287.171L285.52 7.10488H284.757V10.023H283.105V2.41059H285.265C286.282 2.41059 286.917 2.66433 287.426 3.04495C287.934 3.55244 288.188 4.05993 288.188 4.82117ZM280.31 6.34365C280.31 5.32866 280.564 4.44055 281.072 3.67932C281.581 2.91808 282.216 2.15684 282.978 1.77622C283.741 1.26873 284.63 1.01498 285.647 1.01498C286.536 1.01498 287.426 1.26873 288.315 1.77622C289.077 2.28371 289.84 2.91808 290.221 3.67932C290.729 4.44055 290.983 5.32866 290.983 6.34365C290.983 7.23176 290.729 8.11987 290.221 9.00798C289.713 9.76922 289.077 10.4036 288.315 10.9111C287.553 11.4186 286.663 11.6723 285.647 11.6723C284.757 11.6723 283.868 11.4186 282.978 10.9111C282.216 10.4036 281.453 9.76922 281.072 9.00798C280.564 8.24674 280.31 7.35863 280.31 6.34365ZM279.293 6.34365C279.293 5.20179 279.547 4.18681 280.183 3.17182C280.691 2.15684 281.453 1.3956 282.47 0.888111C283.487 0.380619 284.503 0 285.647 0C286.79 0 287.807 0.253746 288.823 0.888111C289.84 1.3956 290.602 2.28371 291.111 3.17182C291.619 4.18681 292 5.20179 292 6.34365C292 7.4855 291.746 8.50049 291.238 9.51547C290.729 10.5305 289.967 11.2917 288.95 11.7992C287.934 12.4335 286.917 12.6873 285.774 12.6873C284.63 12.6873 283.487 12.4335 282.597 11.7992C281.581 11.1648 280.818 10.4036 280.31 9.51547C279.547 8.50049 279.293 7.4855 279.293 6.34365Z" fill="white"/>
    <path fill-rule="evenodd" clip-rule="evenodd" d="M157.817 20.0458H165.949V42.6292H151.718L157.817 20.0458ZM173.319 42.6292V13.5753H156.547C153.37 13.5753 151.337 15.3515 150.574 18.2696C149.177 23.7251 146 35.2706 144.094 42.5023H139.52V55.3165H146.889V48.846H170.524V55.3165H177.894V42.6292H173.319ZM53.114 48.9728V20.0458H63.5335V13.5753H39.0096C37.993 13.5753 37.1035 13.9559 36.3411 14.5903C35.5787 15.3515 35.1976 16.2396 35.1976 17.2546V20.0458H45.7441V48.9728H53.114ZM260.36 48.9728V20.0458H277.641V13.5753H260.36H256.802C255.786 13.5753 254.896 13.9559 254.134 14.5903C253.372 15.3515 252.99 16.2396 252.99 17.2546V48.9728H260.36ZM190.346 22.7101C192.125 20.6802 194.54 19.6652 197.716 19.6652C200.766 19.6652 203.307 20.6802 205.086 22.7101C206.865 24.867 207.754 27.7851 207.754 31.4644C207.754 35.1437 206.865 37.9349 205.086 40.0917C203.307 42.1217 200.893 43.1367 197.716 43.1367C194.54 43.1367 192.125 42.1217 190.346 40.0917C188.567 38.1886 187.805 35.2706 187.805 31.4644C187.805 27.6582 188.694 24.7401 190.346 22.7101ZM185.01 44.2785C188.059 47.4504 192.379 48.9728 197.716 48.9728C203.053 48.9728 207.246 47.4504 210.423 44.2785C213.473 41.1067 215.124 36.793 215.124 31.3375C215.124 25.882 213.6 21.5683 210.423 18.2696C207.119 15.0978 202.926 13.4484 197.716 13.4484C192.506 13.4484 188.313 15.0978 185.01 18.2696C181.96 21.4414 180.435 25.7551 180.435 31.3375C180.435 36.9199 181.96 41.2336 185.01 44.2785ZM112.327 48.9728V20.0458H126.94V48.9728H134.31V13.5753H108.642C107.626 13.5753 106.736 13.9559 105.974 14.5903C105.211 15.3515 104.83 16.2396 104.83 17.2546V48.9728H112.327ZM75.7319 22.7101C77.3838 20.6802 79.9251 19.6652 83.1018 19.6652C86.1514 19.6652 88.6927 20.6802 90.4717 22.7101C92.2506 24.867 93.1401 27.7851 93.1401 31.4644C93.1401 35.1437 92.2506 37.9349 90.4717 40.0917C88.6927 42.1217 86.2785 43.1367 83.1018 43.1367C79.9251 43.1367 77.5108 42.1217 75.7319 40.0917C73.953 38.1886 73.1906 35.2706 73.1906 31.4644C73.1906 27.6582 73.953 24.7401 75.7319 22.7101ZM70.3951 44.2785C73.4447 47.4504 77.765 48.9728 83.1018 48.9728C88.4386 48.9728 92.6318 47.4504 95.8085 44.2785C98.8581 41.1067 100.51 36.793 100.51 31.3375C100.51 25.882 98.9852 21.5683 95.8085 18.2696C92.5048 15.0978 88.3115 13.4484 83.1018 13.4484C77.8921 13.4484 73.6988 15.0978 70.3951 18.2696C67.3455 21.4414 65.8207 25.7551 65.8207 31.3375C65.8207 36.9199 67.3455 41.2336 70.3951 44.2785ZM25.0322 36.5393C24.5239 38.6961 23.5074 40.2186 22.2367 41.2336C20.839 42.2486 18.933 42.7561 16.7728 42.7561C13.5962 42.7561 11.1819 41.7411 9.65709 39.7111C8.00522 37.808 7.24281 34.8899 7.24281 31.3375C7.24281 27.5313 8.00522 24.7401 9.65709 22.7101C11.436 20.8071 13.8503 19.7921 17.027 19.7921C19.3142 19.7921 21.0931 20.2996 22.4909 21.3145C23.1262 21.9489 23.7615 22.7101 24.2698 23.5983C24.9051 24.9939 26.1758 25.6282 27.8277 25.6282H32.275C31.8938 21.822 30.4961 18.904 27.9547 16.874C25.2863 14.7172 21.7285 13.7022 17.154 13.7022C11.5631 13.7022 7.36988 15.2246 4.32027 18.2696C1.39773 21.1877 0 25.6282 0 31.4644C0 37.1737 1.39773 41.4873 4.1932 44.5323C6.98868 47.5772 11.0548 49.0997 16.5187 49.0997C21.0931 49.0997 24.7781 48.0847 27.7006 45.9279C30.4961 43.771 32.0209 40.5992 32.4021 36.793H25.0322V36.5393ZM247.399 13.5753V48.9728H240.03V20.0458H231.897L224.146 48.9728H216.522C216.522 48.9728 222.494 26.6432 224.654 18.2696C225.417 15.3515 227.45 13.4484 230.627 13.5753H247.399Z" fill="white"/>
</svg>
