<svg width="512" height="512" viewBox="0 0 512 512" fill="none" xmlns="http://www.w3.org/2000/svg">
<path d="M404.531 405.13C486.43 323.231 486.43 190.447 404.531 108.548C322.632 26.6488 189.848 26.6488 107.949 108.548C26.0499 190.447 26.0499 323.231 107.949 405.13C189.848 487.029 322.632 487.029 404.531 405.13Z" fill="#FE646F"/>
<path fill-rule="evenodd" clip-rule="evenodd" d="M256.296 320.114C251.642 320.114 247.66 316.143 246.852 310.682L223.05 150.141C220.058 129.923 233.119 111.388 250.357 111.388H262.224C279.461 111.388 292.523 129.923 289.53 150.141L265.728 310.682C264.932 316.143 260.949 320.114 256.296 320.114ZM278.073 380.507C278.073 368.515 268.288 358.73 256.296 358.73C244.304 358.73 234.519 368.515 234.519 380.507C234.519 392.499 244.304 402.284 256.296 402.284C268.288 402.284 278.073 392.511 278.073 380.507Z" fill="#E6E9ED"/>
</svg>
