<svg width="210" height="134" viewBox="0 0 210 134" fill="none" xmlns="http://www.w3.org/2000/svg">
    <path d="M184.907 106.572L166.163 119.336C164.209 120.716 161.679 118.991 162.139 116.576L165.933 97.9478L184.907 106.572Z"
          fill="#CD3B2C"/>
    <path d="M184.102 54.2505H60.6008L62.2106 45.5111C62.5556 43.5563 60.2558 42.2914 58.7609 43.6713L2.29984 98.5224C-0.804947 101.512 1.3799 106.802 5.6346 106.802H51.1714V106.687H184.792L192.497 64.5998C193.531 59.0802 189.507 54.2505 184.102 54.2505Z"
          fill="#FE4F3E"/>
    <path d="M93.9485 29.1821L100.273 46.5459H88.5438L84.5191 34.1268H80.9544L78.5395 46.5459H67.5003L74.0548 12.0483H85.0941L82.6792 24.9274H85.4391L94.8684 12.0483H107.173L93.9485 29.1821Z"
          fill="#6EBCBB"/>
    <path d="M120.397 20.9027L119.592 24.9274H133.506L131.896 33.3219H117.982L117.177 37.8065H133.621L131.896 46.5459H104.643L111.197 12.0483H137.99L136.265 20.7877H120.397V20.9027Z"
          fill="#6EBCBB"/>
    <path d="M190.772 12.1636L184.217 46.6612H138.335L144.89 12.1636H155.814L151.099 37.5768H157.769L162.484 12.1636H173.408L168.693 37.5768H175.248L179.962 12.1636H190.772Z"
          fill="#6EBCBB"/>
    <path d="M67.2703 63.5664H95.7883L94.0634 72.3058H76.4697L75.6647 76.3305H83.4842C86.9339 76.3305 89.5787 77.1355 91.4186 78.7453C93.2585 80.3552 94.1784 82.6551 94.1784 85.6449C94.1784 88.1747 93.4885 90.3595 92.2236 92.1994C90.9586 94.0393 89.0038 95.5342 86.589 96.4541C84.1741 97.489 81.2993 97.949 77.9646 97.949H60.7158L67.2703 63.5664ZM78.7695 89.8996C80.0344 89.8996 81.0693 89.5546 81.7593 88.9796C82.4492 88.4047 82.9092 87.5997 82.9092 86.5648C82.9092 85.0699 81.8743 84.265 79.8044 84.265H74.1698L73.1349 89.7846H78.7695V89.8996Z"
          fill="white"/>
    <path d="M124.421 64.6006C126.606 65.8655 128.331 67.5904 129.481 69.8902C130.631 72.1901 131.206 74.7199 131.206 77.7097C131.206 81.7344 130.171 85.2992 128.216 88.5189C126.261 91.7387 123.616 94.2685 120.282 96.1084C117.062 97.9483 113.497 98.8682 109.932 98.8682C107.172 98.8682 104.528 98.2933 102.113 97.1433C99.698 95.9934 97.8581 94.2685 96.2483 91.9687L104.528 85.4142C106.023 88.059 108.092 89.4389 110.967 89.4389C112.577 89.4389 113.957 89.0939 115.337 88.289C116.602 87.484 117.637 86.3341 118.442 84.9542H108.092L109.702 76.5598H119.822C119.477 75.1799 118.787 74.03 117.867 73.34C116.947 72.6501 115.797 72.1901 114.302 72.1901C111.542 72.1901 108.897 73.57 106.368 76.2148L100.618 69.6603C102.573 67.4754 104.988 65.7505 107.747 64.6006C110.507 63.3357 113.382 62.7607 116.487 62.7607C119.592 62.7607 122.236 63.3357 124.421 64.6006Z"
          fill="white"/>
    <path d="M160.184 80.5845L166.508 97.9483H154.779L150.754 85.5291H147.19L144.775 97.9483H133.736L140.29 63.4507H151.329L148.915 76.3298H151.674L161.104 63.4507H173.408L160.184 80.5845Z"
          fill="white"/>
    <path d="M45.3068 123.131C45.3068 122.441 45.7668 121.981 46.4567 121.981C47.1467 121.981 47.6067 122.441 47.6067 123.131C47.6067 123.706 47.0317 124.281 46.4567 124.281C45.7668 124.281 45.3068 123.821 45.3068 123.131ZM39.5572 123.131C39.5572 122.441 40.0172 121.981 40.7071 121.981C41.2821 121.981 41.8571 122.441 41.8571 123.131C41.8571 123.706 41.3971 124.281 40.7071 124.281C40.0172 124.281 39.5572 123.821 39.5572 123.131ZM33.8076 123.131C33.8076 122.441 34.2676 121.981 34.9576 121.981C35.5325 121.981 36.1075 122.441 36.1075 123.131C36.1075 123.706 35.6475 124.281 34.9576 124.281C34.2676 124.281 33.8076 123.821 33.8076 123.131ZM28.058 123.131C28.058 122.441 28.518 121.981 29.208 121.981C29.7829 121.981 30.3579 122.441 30.3579 123.131C30.3579 123.706 29.7829 124.281 29.208 124.281C28.518 124.281 28.058 123.821 28.058 123.131ZM22.3084 123.131C22.3084 122.441 22.7684 121.981 23.4584 121.981C24.0333 121.981 24.6083 122.441 24.6083 123.131C24.6083 123.706 24.0333 124.281 23.4584 124.281C22.7684 124.281 22.3084 123.821 22.3084 123.131ZM16.5588 123.131C16.5588 122.441 17.0188 121.981 17.7088 121.981C18.2837 121.981 18.8587 122.441 18.8587 123.131C18.8587 123.706 18.2837 124.281 17.7088 124.281C17.0188 124.281 16.5588 123.821 16.5588 123.131Z"
          fill="#FFBB00"/>
    <path d="M68.5352 127.27H70.605L69.3401 133.825H65.4304L66.0054 130.72H56.2311L55.6561 133.825H51.6314L52.8963 127.27H53.2413C54.1612 127.27 54.9661 126.58 55.6561 125.316C56.346 124.051 56.921 122.211 57.496 120.026L58.6459 115.426H70.95L68.5352 127.27ZM60.0258 124.741C59.6808 125.776 59.2208 126.58 58.7609 127.27H64.3955L66.1204 118.876H61.7507L61.2907 120.716C60.7157 122.326 60.3708 123.706 60.0258 124.741Z"
          fill="#FFBB00"/>
    <path d="M77.3896 130.145C76.2396 129.571 75.3197 128.766 74.7447 127.731C74.1698 126.696 73.8248 125.546 73.8248 124.281C73.8248 122.556 74.2848 120.946 75.0897 119.566C75.8947 118.186 77.0446 117.036 78.4245 116.231C79.9194 115.427 81.5293 115.082 83.3691 115.082C84.864 115.082 86.2439 115.312 87.3939 115.886C88.5438 116.461 89.4637 117.266 90.0387 118.301C90.6136 119.336 90.9586 120.486 90.9586 121.751C90.9586 123.476 90.4986 125.086 89.6937 126.466C88.8887 127.846 87.7388 128.996 86.3589 129.801C84.864 130.605 83.2541 130.95 81.4143 130.95C79.9194 130.95 78.5395 130.72 77.3896 130.145ZM84.4041 126.696C85.094 126.236 85.669 125.546 86.1289 124.741C86.4739 123.936 86.7039 123.016 86.7039 122.096C86.7039 121.061 86.3589 120.256 85.784 119.566C85.094 118.991 84.2891 118.646 83.1392 118.646C82.2192 118.646 81.2993 118.876 80.6093 119.336C79.9194 119.796 79.3444 120.486 78.8844 121.291C78.4245 122.096 78.3095 123.016 78.3095 123.936C78.3095 124.971 78.6545 125.776 79.2294 126.466C79.9194 127.041 80.7243 127.386 81.8742 127.386C82.7942 127.386 83.5991 127.156 84.4041 126.696Z"
          fill="#FFBB00"/>
    <path d="M109.472 115.426L106.368 130.72H101.998L104.413 118.761H101.538L102.343 115.426H109.472Z" fill="#FFBB00"/>
    <path d="M117.292 118.761L116.602 120.946H117.292C119.132 120.946 120.627 121.291 121.546 122.096C122.466 122.901 123.041 123.936 123.041 125.316C123.041 126.465 122.696 127.5 122.121 128.42C121.431 129.34 120.627 129.915 119.477 130.375C118.327 130.835 117.062 131.065 115.682 131.065C114.532 131.065 113.497 130.95 112.462 130.605C111.427 130.375 110.622 129.915 109.932 129.34L111.887 126.236C112.462 126.695 113.037 126.925 113.727 127.155C114.417 127.385 115.107 127.5 115.912 127.5C116.832 127.5 117.407 127.385 117.982 127.04C118.442 126.695 118.672 126.351 118.672 125.776C118.672 125.316 118.442 124.971 118.097 124.741C117.752 124.511 117.062 124.396 116.257 124.396H111.887L114.417 115.426H124.191L123.501 118.761H117.292Z"
          fill="#FFBB00"/>
    <path d="M127.296 122.671C126.606 122.096 126.376 121.176 126.376 120.141C126.376 119.221 126.606 118.416 126.951 117.611C127.296 116.806 127.871 116.231 128.561 115.886C129.251 115.426 130.056 115.196 130.976 115.196C132.011 115.196 132.816 115.541 133.506 116.116C134.196 116.691 134.426 117.611 134.426 118.646C134.426 119.566 134.196 120.371 133.851 121.176C133.506 121.981 132.931 122.556 132.356 122.901C131.666 123.361 130.861 123.591 129.941 123.591C128.676 123.706 127.871 123.361 127.296 122.671ZM139.945 115.426H143.28L129.941 130.72H126.606L139.945 115.426ZM131.206 120.716C131.436 120.141 131.551 119.566 131.551 118.761C131.551 118.186 131.436 117.841 131.206 117.611C130.976 117.381 130.746 117.266 130.401 117.266C129.826 117.266 129.481 117.496 129.251 118.071C129.021 118.646 128.906 119.221 128.906 120.026C128.906 120.601 129.021 120.946 129.251 121.176C129.481 121.406 129.711 121.521 130.056 121.521C130.516 121.636 130.976 121.291 131.206 120.716ZM136.61 129.915C135.92 129.34 135.69 128.42 135.69 127.27C135.69 126.351 135.92 125.546 136.265 124.741C136.61 123.936 137.185 123.361 137.76 123.016C138.45 122.556 139.255 122.326 140.175 122.326C141.21 122.326 142.015 122.671 142.705 123.246C143.395 123.821 143.625 124.741 143.625 125.776C143.625 126.695 143.395 127.5 143.05 128.305C142.705 129.11 142.13 129.685 141.555 130.03C140.865 130.49 140.06 130.72 139.14 130.72C138.105 130.835 137.185 130.605 136.61 129.915ZM140.52 127.96C140.75 127.385 140.865 126.695 140.865 126.006C140.865 125.431 140.75 125.086 140.635 124.856C140.52 124.626 140.175 124.511 139.83 124.511C139.255 124.511 138.91 124.741 138.68 125.316C138.45 125.891 138.335 126.465 138.335 127.27C138.335 127.845 138.45 128.19 138.68 128.42C138.91 128.65 139.14 128.765 139.485 128.765C139.945 128.765 140.29 128.535 140.52 127.96Z"
          fill="#FFBB00"/>
    <path d="M146.385 130.26C145.925 129.8 145.695 129.34 145.695 128.765C145.695 128.075 145.925 127.5 146.385 127.04C146.845 126.58 147.535 126.351 148.225 126.351C148.915 126.351 149.489 126.58 149.949 126.925C150.409 127.27 150.639 127.845 150.639 128.42C150.639 129.11 150.409 129.685 149.834 130.145C149.259 130.605 148.685 130.835 147.995 130.835C147.42 130.835 146.845 130.72 146.385 130.26ZM148.455 115.426H153.399L150.639 125.201H147.305L148.455 115.426Z"
          fill="#FFBB00"/>
    <path d="M196.061 50.2262C198.729 50.2262 200.891 48.0639 200.891 45.3966C200.891 42.7292 198.729 40.5669 196.061 40.5669C193.394 40.5669 191.232 42.7292 191.232 45.3966C191.232 48.0639 193.394 50.2262 196.061 50.2262Z"
          fill="#FE4F3E"/>
    <path d="M31.5078 94.3836C31.7377 94.3836 31.8527 94.2686 31.9677 94.2686C32.3127 94.1536 32.7727 94.0386 33.1176 93.8086C33.4626 93.6936 33.6926 93.5786 34.0376 93.4637C34.3826 93.3487 34.6125 93.2337 34.9575 93.1187C35.5325 92.8887 36.2224 92.5437 36.7974 92.1987C37.3723 91.8538 38.0623 91.5088 38.6373 91.1638C38.8672 91.0488 38.9822 90.9338 39.2122 90.8188C39.5572 90.5889 39.9022 90.3589 40.3621 90.0139C40.5921 89.8989 40.8221 89.6689 41.0521 89.5539C41.3971 89.3239 41.742 88.979 42.087 88.749C42.202 88.634 42.432 88.404 42.662 88.289C43.007 88.059 43.2369 87.7141 43.5819 87.4841C44.0419 87.0241 44.5018 86.5641 44.9618 85.9892C45.4218 85.5292 45.7668 84.9542 46.2267 84.4943C50.4814 78.6297 51.7463 71.6152 48.6416 65.9806C48.4116 65.5206 48.1816 65.1756 47.8366 64.7157C47.6066 64.2557 47.4916 63.7957 47.2617 63.4508C46.2267 61.6109 44.9618 60.116 43.3519 58.8511L10.8092 90.2439C15.4089 95.1885 23.4583 96.7984 31.5078 94.3836Z"
          fill="#CD3B2C"/>
    <path d="M38.7427 85.2615C49.7663 79.3462 54.9541 67.5652 50.33 58.9477C45.7058 50.3303 33.0209 48.1398 21.9973 54.0551C10.9738 59.9704 5.786 71.7514 10.4101 80.3688C15.0342 88.9862 27.7192 91.1767 38.7427 85.2615Z"
          fill="#FF9F1A"/>
    <path d="M31.9677 87.8285C34.2676 87.2535 36.5674 86.4486 38.7523 85.1837C40.8221 84.0338 42.777 82.6539 44.3869 81.159L34.4976 62.7603L22.0784 69.4298L31.9677 87.8285Z"
          fill="#ED701A"/>
    <path d="M35.0725 86.9083C36.3374 86.4484 37.6024 85.8734 38.7523 85.2985C39.5572 84.8385 40.2472 84.4935 40.9371 84.0335L37.3724 77.249L31.5078 80.3538L35.0725 86.9083Z"
          fill="#FFC21A"/>
    <path d="M45.3068 80.4682C46.2268 79.5482 47.1467 78.5133 47.8367 77.4784L35.8775 55.1699L32.6577 56.8948L45.3068 80.4682Z"
          fill="#FFE6A1"/>
    <path d="M37.3548 82.7517C48.3784 76.8364 53.5661 65.0554 48.942 56.438C44.3179 47.8206 31.633 45.6301 20.6094 51.5453C9.58584 57.4606 4.39806 69.2416 9.02218 77.8591C13.6463 86.4765 26.3312 88.667 37.3548 82.7517Z"
          fill="#FFC21A"/>
    <path d="M35.9989 80.2263C45.2328 75.2719 49.5784 65.4032 45.705 58.1839C41.8315 50.9646 31.2058 49.1285 21.9719 54.083C12.7379 59.0374 8.39231 68.9061 12.2658 76.1254C16.1392 83.3447 26.7649 85.1807 35.9989 80.2263Z"
          fill="#FF861A"/>
    <path d="M35.5639 79.416C44.1823 74.7919 48.2236 65.5538 44.5904 58.7822C40.9571 52.0107 31.0252 50.2698 22.4068 54.8939C13.7885 59.518 9.7472 68.7561 13.3804 75.5276C17.0137 82.2992 26.9456 84.0401 35.5639 79.416Z"
          fill="#FF9F1A"/>
    <path d="M12.1891 68.51C14.029 68.51 15.8688 67.935 17.7087 67.0151C22.7683 64.2553 25.1832 58.8506 22.9983 54.9409C22.9983 54.8259 22.8833 54.7109 22.8833 54.7109C22.7683 54.8259 22.5384 54.8259 22.4234 54.9409C16.5588 58.0457 12.879 63.3353 12.1891 68.51Z"
          fill="#FFC21A"/>
    <path d="M63.1568 22.0251C65.7766 16.5197 62.2286 9.35776 55.2321 6.02844C48.2357 2.69911 40.4402 4.46318 37.8204 9.96859C35.2006 15.474 38.7486 22.636 45.745 25.9653C52.7415 29.2946 60.537 27.5305 63.1568 22.0251Z"
          fill="#FF9F1A"/>
    <path d="M41.9721 23.433C43.1221 24.353 44.387 25.2729 45.7669 25.8479C47.1468 26.5378 48.5267 26.8828 49.7916 27.2278L55.4262 15.3836L47.4918 11.5889L41.9721 23.433Z"
          fill="#ED701A"/>
    <path d="M43.582 24.6973C44.2719 25.1573 44.9619 25.6173 45.7668 25.9622C46.2268 26.1922 46.6867 26.4222 47.2617 26.5372L49.3316 22.2825L45.6518 20.5576L43.582 24.6973Z"
          fill="#FFC21A"/>
    <path d="M50.5965 27.4575C51.4014 27.5725 52.2064 27.6875 53.0113 27.6875L59.7959 13.4285L57.726 12.3936L50.5965 27.4575Z"
          fill="#FFE6A1"/>
    <path d="M63.9355 20.4428C61.2907 25.9625 53.4713 27.6873 46.4567 24.3526C39.4422 21.0178 35.8775 13.8883 38.5223 8.36869C41.1671 2.84908 48.9866 1.1242 56.0011 4.45896C63.0156 7.79373 66.5803 14.9232 63.9355 20.4428Z"
          fill="#FFC21A"/>
    <path d="M61.8657 19.4084C59.6808 24.0081 53.1263 25.503 47.2617 22.6282C41.3971 19.8684 38.4073 13.8888 40.5921 9.17415C42.777 4.57447 49.3315 3.07958 55.1961 5.95438C61.0607 8.82917 64.0505 14.8088 61.8657 19.4084Z"
          fill="#FF861A"/>
    <path d="M61.2218 19.0977C63.2686 14.7966 60.4647 9.18613 54.9593 6.56633C49.4539 3.94654 43.3317 5.30951 41.285 9.61061C39.2383 13.9117 42.0421 19.5222 47.5475 22.142C53.0529 24.7618 59.1751 23.3988 61.2218 19.0977Z"
          fill="#FF9F1A"/>
    <path d="M44.3868 6.52923C45.0768 7.33417 45.9967 8.13912 47.1466 8.71408C50.3664 10.209 53.9312 9.40403 55.1961 6.8742C55.1961 6.75921 55.1961 6.75921 55.3111 6.64422C55.1961 6.64422 55.0811 6.52923 55.0811 6.52923C51.2864 4.80435 47.1466 4.91934 44.3868 6.52923Z"
          fill="#FFC21A"/>
    <path d="M190.082 78.1691C185.482 77.9391 181.457 79.779 179.502 83.3438C179.387 83.5737 179.272 83.9187 179.157 84.1487C179.042 84.3787 178.812 84.6087 178.697 84.9537C176.743 88.5184 177.548 93.0031 180.307 96.7978C180.537 97.1428 180.767 97.4878 181.112 97.7178C181.342 98.0627 181.687 98.2927 181.917 98.6377C182.147 98.8677 182.262 98.9827 182.492 99.2127C182.952 99.6726 183.527 100.018 183.987 100.478C184.102 100.593 184.217 100.593 184.332 100.708C184.792 101.053 185.367 101.398 185.827 101.627L190.082 78.1691Z"
          fill="#CD3B2C"/>
    <path d="M48.1816 38.0367L45.7668 33.667L43.352 38.0367L38.8673 40.4515L43.352 42.8664L45.7668 47.351L48.1816 42.8664L52.5513 40.4515L48.1816 38.0367Z"
          fill="#FFC21A"/>
    <path d="M204.226 66.21L202.731 63.4502L201.121 66.21L198.246 67.8199L201.121 69.3148L202.731 72.1896L204.226 69.3148L207.101 67.8199L204.226 66.21Z"
          fill="#FFC21A"/>
    <path d="M194.566 104.157L193.301 101.973L192.152 104.157L189.852 105.422L192.152 106.572L193.301 108.757L194.566 106.572L196.751 105.422L194.566 104.157Z"
          fill="#FFC21A"/>
    <path d="M27.3681 35.8518L25.7582 32.9771L24.2633 35.8518L21.3885 37.3467L24.2633 38.9566L25.7582 41.7164L27.3681 38.9566L30.1279 37.3467L27.3681 35.8518Z"
          fill="#FFC21A"/>
    <path d="M5.86459 94.2681L4.36969 91.5083L2.8748 94.2681L0 95.763L2.8748 97.3729L4.36969 100.133L5.86459 97.3729L8.73939 95.763L5.86459 94.2681Z"
          fill="#FFC21A"/>
    <path d="M204.672 93.5109C207.615 88.0271 204.33 80.5389 197.335 76.7856C190.34 73.0322 182.285 74.435 179.342 79.9188C176.399 85.4026 179.684 92.8908 186.679 96.6442C193.674 100.398 201.729 98.9947 204.672 93.5109Z"
          fill="#FF9F1A"/>
    <path d="M191.002 98.2927C189.507 97.9477 188.127 97.3728 186.632 96.6828C185.252 95.9929 184.102 95.0729 183.067 94.153L189.392 82.4238L197.326 86.6785L191.002 98.2927Z"
          fill="#ED701A"/>
    <path d="M189.047 97.7181C188.242 97.3731 187.437 97.0281 186.632 96.6832C186.172 96.4532 185.712 96.1082 185.252 95.8782L187.552 91.6235L191.232 93.5784L189.047 97.7181Z"
          fill="#FFC21A"/>
    <path d="M182.607 93.5779C182.032 93.0029 181.457 92.313 180.997 91.738L188.587 77.479L190.657 78.6289L182.607 93.5779Z"
          fill="#FFE6A1"/>
    <path d="M180.192 78.284C177.203 83.8036 180.537 91.2781 187.552 95.0728C194.566 98.8675 202.616 97.3726 205.606 91.968C208.595 86.4484 205.261 78.9739 198.246 75.1792C191.232 71.3845 183.182 72.8794 180.192 78.284Z"
          fill="#FFC21A"/>
    <path d="M182.262 79.4337C179.847 84.0333 182.607 90.3579 188.472 93.4627C194.336 96.5675 201.121 95.4175 203.536 90.8179C205.951 86.2182 203.191 79.8936 197.326 76.7889C191.462 73.6841 184.792 74.834 182.262 79.4337Z"
          fill="#FF861A"/>
    <path d="M182.952 79.7786C180.652 84.0333 183.182 89.8979 188.702 92.8876C194.221 95.8774 200.546 94.7275 202.846 90.4728C205.146 86.2181 202.616 80.3535 197.096 77.3637C191.577 74.3739 185.252 75.5239 182.952 79.7786Z"
          fill="#FF9F1A"/>
    <path d="M203.651 85.9889C202.501 85.9889 201.236 85.6439 200.086 85.069C196.866 83.3441 195.371 79.8943 196.751 77.3645C196.751 77.2495 196.866 77.2495 196.866 77.2495C196.981 77.2495 197.096 77.3645 197.096 77.3645C200.776 79.3194 203.191 82.7691 203.651 85.9889Z"
          fill="#FFC21A"/>
</svg>
