<svg width="140" height="140" viewBox="0 0 140 140" fill="none" xmlns="http://www.w3.org/2000/svg">
    <path d="M70 140C108.66 140 140 108.66 140 70C140 31.3401 108.66 0 70 0C31.3401 0 0 31.3401 0 70C0 108.66 31.3401 140 70 140Z"
          fill="#6EBCBB"/>
    <path opacity="0.18"
          d="M31.6 55.2003L28.2 42.5003L29.6 42.1003C29.9 43.4003 31.2 44.1003 32.5 43.8003C33.8 43.5003 34.5 42.2003 34.2 40.9003L35.8 40.5003C36.1 41.8003 37.4 42.5003 38.7 42.2003C40 41.9003 40.7 40.6003 40.4 39.3003L42 38.9003C42.3 40.2003 43.6 40.9003 44.9 40.6003C46.2 40.3003 46.9 39.0003 46.6 37.7003L48.2 37.3003C48.5 38.6003 49.8 39.3003 51.1 39.0003C52.4 38.7003 53.1 37.4003 52.8 36.1003L54.4 35.7003C54.7 37.0003 56 37.7003 57.3 37.4003C58.6 37.1003 59.3 35.8003 59 34.5003L60.6 34.1003C60.9 35.4003 62.2 36.1003 63.5 35.8003C64.8 35.5003 65.5 34.2003 65.2 32.9003L66.8 32.5003C67.1 33.8003 68.4 34.5003 69.7 34.2003C71 33.9003 71.7 32.6003 71.4 31.3003L73 30.9003C73.3 32.2003 74.6 32.9003 75.9 32.6003C77.2 32.3003 77.9 31.0003 77.6 29.7003L79.2 29.3003L96.6 93.8003L100 106.5L98.6 106.9C98.3 105.6 97 104.9 95.7 105.2C94.4 105.5 93.7 106.8 94 108.1L92 108C91.7 106.7 90.4 106 89.1 106.3C87.8 106.6 87.1 107.9 87.4 109.2L85.8 109.6C85.5 108.3 84.2 107.6 82.9 107.9C81.6 108.2 80.9 109.5 81.2 110.8L79.6 111.2C79.3 109.9 78 109.2 76.7 109.5C75.4 109.8 74.7 111.1 75 112.4L73.4 112.8C73.1 111.5 71.8 110.8 70.5 111.1C69.2 111.4 68.5 112.7 68.8 114L67.2 114.4C66.9 113.1 65.6 112.4 64.3 112.7C63 113 62.3 114.3 62.6 115.6L61 116C60.7 114.7 59.4 114 58.1 114.3C56.8 114.6 56.1 115.9 56.4 117.2L54.8 117.6C54.5 116.3 53.2 115.6 51.9 115.9C50.6 116.2 49.9 117.5 50.2 118.8L48.6 119.2L31.6 55.2003Z"
          fill="#D6D6D6"/>
    <path d="M128.5 102.7L120.6 83.5003C119.5 81.5003 117.7 79.9003 115.6 79.0003L93.9 69.3003L98 83.9003L100.8 88.4003L110.6 123.2C117.9 117.7 124 110.7 128.5 102.7Z"
          fill="#E2A27D"/>
    <path d="M97.7 82.0999L95.8 74.3999L106.6 81.9999C109.1 83.4999 110.9 85.8999 111.8 88.6999L116.1 98.1999L97.7 82.0999Z"
          fill="#D99676"/>
    <path d="M87 94.3L89 100.1C90 102.9 92.2 105.1 95 106L100.7 107.8L92 91L87 94.3Z" fill="#D99676"/>
    <path d="M89.7 100.7L91.7 106.5C92.7 109.3 94.9 111.5 97.7 112.4L103.4 114.2L94.7 97.3999L89.7 100.7Z"
          fill="#D99676"/>
    <path d="M95.3 108.5L97.3 114.3C98.3 117.1 100.5 119.3 103.3 120.2L109 122L100.3 105.2L95.3 108.5Z" fill="#D99676"/>
    <path d="M35.2 43.5001L31.8 30.8001L33.2 30.4001C33.5 31.7001 34.8 32.4001 36.1 32.1001C37.4 31.8001 38.1 30.5001 37.8 29.2001L39.4 28.8001C39.7 30.1001 41 30.8001 42.3 30.5001C43.6 30.2001 44.3 28.9001 44 27.6001L45.6 27.2001C45.9 28.5001 47.2 29.2001 48.5 28.9001C49.8 28.6001 50.5 27.3001 50.2 26.0001L51.8 25.6001C52.1 26.9001 53.4 27.6001 54.7 27.3001C56 27.0001 56.7 25.7001 56.4 24.4001L58 24.0001C58.3 25.3001 59.6 26.0001 60.9 25.7001C62.2 25.4001 62.9 24.1001 62.6 22.8001L64.2 22.4001C64.5 23.7001 65.8 24.4001 67.1 24.1001C68.4 23.8001 69.1 22.5001 68.8 21.2001L70.4 20.8001C70.7 22.1001 72 22.8001 73.3 22.5001C74.6 22.2001 75.3 20.9001 75 19.6001L76.6 19.2001C76.9 20.5001 78.2 21.2001 79.5 20.9001C80.8 20.6001 81.5 19.3001 81.2 18.0001L82.8 17.6001L100.2 82.1001L103.6 94.8001L102.2 95.2001C101.9 93.9001 100.6 93.2001 99.3 93.5001C98 93.8001 97.3 95.1001 97.6 96.4001L96 96.8001C95.7 95.5001 94.4 94.8001 93.1 95.1001C91.8 95.4001 91.1 96.7001 91.4 98.0001H89.5C89.2 96.7001 87.9 96.0001 86.6 96.3001C85.3 96.6001 84.6 97.9001 84.9 99.2001L83.3 99.6001C83 98.3001 81.7 97.6001 80.4 97.9001C79.1 98.2001 78.4 99.5001 78.7 100.8L77.1 101.2C76.8 99.9001 75.5 99.2001 74.2 99.5001C72.9 99.8001 72.2 101.1 72.5 102.4L70.9 102.8C70.6 101.5 69.3 100.8 68 101.1C66.7 101.4 66 102.7 66.3 104L64.7 104.4C64.4 103.1 63.1 102.4 61.8 102.7C60.5 103 59.8 104.3 60.1 105.6L58.5 106C58.2 104.7 56.9 104 55.6 104.3C54.3 104.6 53.6 105.9 53.9 107.2L52.3 107.6L35.2 43.5001Z"
          fill="#FDFFFB"/>
    <path d="M112.4 95.1002L99.5 84.5002L92.2 74.7002C90.4 72.3002 87.1 71.7002 84.6 73.3002L84.4 73.4002C81.7 75.1002 81 78.6002 82.7 81.3002L92.3 96.3002L96.8 108.3C98.2 112 100.1 115.4 102.6 118.5L107.9 125.1C109.6 123.9 111.2 122.7 112.8 121.4L112.4 95.1002Z"
          fill="#E2A27D"/>
    <path d="M86.7 82.1003L91.6 79.0003C92 78.7003 92.2 78.1003 91.9 77.7003L91.2 76.6003C90.1 74.8003 87.7 74.3003 85.9 75.4003C84.1 76.5003 83.6 78.9003 84.7 80.7003L85.4 81.8003C85.7 82.2003 86.3 82.4003 86.7 82.1003Z"
          fill="#E9C3AE"/>
    <path d="M39.9 39.9L39.2 40.1L38.4 37.3L37.1 37.6L37.9 40.4L37.2 40.6L36.3 37.2L39 36.5L39.9 39.9Z" fill="#707070"/>
    <path d="M43.5 39.0003L42.8 39.2003L42 36.3003L41.2 36.5003V36.8003C41.3 37.6003 41.4 38.2003 41.4 38.6003C41.4 38.9003 41.4 39.2003 41.3 39.4003C41.2 39.6003 41 39.7003 40.8 39.7003C40.7 39.7003 40.5 39.7003 40.4 39.7003L40.2 39.1003C40.3 39.1003 40.4 39.1003 40.5 39.1003C40.6 39.1003 40.6 39.0003 40.7 38.9003C40.7 38.8003 40.7 38.7003 40.7 38.4003C40.7 38.1003 40.7 37.8003 40.6 37.3003C40.5 36.8003 40.5 36.3003 40.4 35.9003L42.6 35.3003L43.5 39.0003Z"
          fill="#707070"/>
    <path d="M46.5 38.1999L46 37.3999L44.7 37.6999V38.5999L44 38.8999L44.3 35.0999L45.2 34.8999L47.4 37.9999L46.5 38.1999ZM45.7 36.7999C45.3 36.0999 45 35.6999 45 35.5999C44.9 35.4999 44.9 35.3999 44.9 35.3999C44.9 35.5999 44.9 36.1999 44.9 36.9999L45.7 36.7999Z"
          fill="#707070"/>
    <path d="M49.1 37.4999L48.4 37.6999L47.6 34.8999L46.7 35.1999L46.5 34.5999L49.1 33.8999L49.3 34.4999L48.4 34.7999L49.1 37.4999Z"
          fill="#707070"/>
    <path d="M49.6 32.9003C49.6 32.8003 49.6 32.7003 49.6 32.6003C49.6 32.5003 49.7 32.5003 49.8 32.5003C49.9 32.5003 50 32.5003 50.1 32.5003C50.2 32.5003 50.2 32.6003 50.3 32.7003C50.4 32.8003 50.3 32.9003 50.3 33.0003C50.3 33.1003 50.2 33.1003 50.1 33.2003C50 33.2003 49.9 33.2003 49.8 33.2003C49.7 33.1003 49.6 33.0003 49.6 32.9003ZM52.5 36.5003L50.5 37.0003L49.6 33.6003L51.6 33.1003L51.8 33.7003L50.5 34.0003L50.7 34.8003L51.9 34.5003L52.1 35.1003L50.9 35.4003L51.1 36.3003L52.4 36.0003L52.5 36.5003ZM50.6 32.7003C50.6 32.6003 50.6 32.5003 50.6 32.4003C50.6 32.3003 50.7 32.3003 50.8 32.3003C50.9 32.3003 51 32.3003 51.1 32.3003C51.2 32.3003 51.2 32.4003 51.3 32.5003C51.3 32.6003 51.3 32.7003 51.3 32.8003C51.3 32.9003 51.2 32.9003 51.1 33.0003C51 33.0003 50.9 33.0003 50.8 33.0003C50.7 32.8003 50.6 32.8003 50.6 32.7003Z"
          fill="#707070"/>
    <path d="M53.6 34.3003L51.9 33.0003L52.7 32.8003L54.3 34.2003L53.8 32.5003L54.5 32.3003L55 34.0003L55.7 32.0003L56.5 31.8003L55.8 33.8003L57.5 35.3003L56.7 35.5003L55 34.0003L55.5 35.7003L54.8 35.9003L54.3 34.2003L53.6 36.3003L52.8 36.5003L53.6 34.3003Z"
          fill="#707070"/>
    <path d="M61.8 34.0002L61 34.2002L60.2 31.4002L59 31.7002L59.8 34.5002L59 34.8002L58.1 31.4002L60.8 30.7002L61.8 34.0002Z"
          fill="#707070"/>
    <path d="M65.3 31.2002C65.5 31.8002 65.4 32.2002 65.2 32.6002C65 33.0002 64.6 33.2002 64.1 33.4002C63.6 33.5002 63.1 33.5002 62.8 33.3002C62.4 33.1002 62.2 32.7002 62 32.1002C61.8 31.5002 61.9 31.1002 62.1 30.7002C62.3 30.3002 62.7 30.1002 63.2 29.9002C63.7 29.8002 64.2 29.8002 64.5 30.0002C64.8 30.2002 65.2 30.7002 65.3 31.2002ZM62.8 31.9002C62.9 32.3002 63.1 32.6002 63.3 32.7002C63.5 32.9002 63.7 32.9002 64 32.8002C64.6 32.6002 64.8 32.2002 64.6 31.4002C64.4 30.6002 64 30.3002 63.4 30.5002C63.1 30.6002 62.9 30.7002 62.8 31.0002C62.7 31.2002 62.7 31.5002 62.8 31.9002Z"
          fill="#707070"/>
    <path d="M69.2 31.9999L68.5 32.1999L67.7 29.3999L66.9 29.5999V29.8999C67 30.6999 67.1 31.2999 67.1 31.6999C67.1 31.9999 67.1 32.2999 67 32.4999C66.9 32.6999 66.7 32.7999 66.5 32.7999C66.4 32.7999 66.2 32.7999 66.1 32.7999L65.9 32.1999C66 32.1999 66.1 32.1999 66.2 32.1999C66.3 32.1999 66.3 32.0999 66.4 31.9999C66.4 31.8999 66.4 31.7999 66.4 31.4999C66.4 31.2999 66.4 30.8999 66.3 30.3999C66.2 29.8999 66.2 29.3999 66.1 28.9999L68.3 28.3999L69.2 31.9999Z"
          fill="#707070"/>
    <path d="M71.9 27.6001L71.5 30.3001C71.5 30.6001 71.4 30.9001 71.3 31.1001C71.2 31.3001 71.1 31.4001 71 31.5001C70.9 31.6001 70.7 31.7001 70.4 31.8001C70.2 31.9001 70 31.9001 69.8 31.9001L69.6 31.3001C69.8 31.3001 69.9 31.3001 70.1 31.2001C70.2 31.2001 70.3 31.1001 70.4 31.0001C70.5 30.9001 70.5 30.8001 70.5 30.6001L68.6 28.4001L69.4 28.2001L70.8 29.9001V29.8001L71 27.8001L71.9 27.6001Z"
          fill="#707070"/>
    <path d="M75.9 30.2003L75.2 30.4003L74.8 29.1003C74.6 29.2003 74.4 29.4003 74.2 29.4003C74 29.5003 73.9 29.5003 73.8 29.6003C73.5 29.7003 73.2 29.7003 73 29.6003C72.8 29.5003 72.6 29.3003 72.6 29.0003L72.2 27.6003L72.9 27.4003L73.2 28.6003C73.2 28.8003 73.3 28.9003 73.4 28.9003C73.5 28.9003 73.6 29.0003 73.8 28.9003C73.9 28.9003 74.1 28.8003 74.2 28.8003C74.3 28.7003 74.5 28.7003 74.6 28.5003L74.2 27.0003L74.9 26.8003L75.9 30.2003Z"
          fill="#707070"/>
    <path d="M78.7 29.5001L76.7 30.0001L75.8 26.6001L77.8 26.1001L78 26.7001L76.7 27.0001L76.9 27.8001L78.1 27.5001L78.3 28.1001L77.1 28.4001L77.3 29.3001L78.6 29.0001L78.7 29.5001Z"
          fill="#707070"/>
    <path d="M82.3 28.5001L81.6 28.7001L81.2 27.2001L79.8 27.6001L80.2 29.1001L79.5 29.3001L78.6 25.9001L79.3 25.7001L79.7 27.1001L81.1 26.7001L80.7 25.3001L81.4 25.1001L82.3 28.5001Z"
          fill="#707070"/>
    <path d="M79.6442 33.6493L42.7659 43.6118L43.1832 45.1565L80.0615 35.1939L79.6442 33.6493Z" fill="#707070"/>
    <path d="M87.9353 64.3509L51.057 74.3135L51.4743 75.8581L88.3525 65.8956L87.9353 64.3509Z" fill="#707070"/>
    <path d="M78.7882 71.3001L61.6041 75.9424L62.0214 77.487L79.2055 72.8448L78.7882 71.3001Z" fill="#707070"/>
    <path d="M65.7253 46.5405L45.0657 52.1216L45.483 53.6662L66.1425 48.0851L65.7253 46.5405Z" fill="#DADADA"/>
    <path d="M53.3706 54.0484L46.1301 56.0044L46.5474 57.549L53.7879 55.593L53.3706 54.0484Z" fill="#DADADA"/>
    <path d="M61.8447 55.9401L47.1707 59.9043L47.5879 61.4489L62.262 57.4848L61.8447 55.9401Z" fill="#DADADA"/>
    <path d="M68.9222 58.1235L48.2626 63.7046L48.6799 65.2492L69.3395 59.6681L68.9222 58.1235Z" fill="#DADADA"/>
    <path d="M57.9451 65.2607L49.2565 67.6079L49.6738 69.1525L58.3624 66.8053L57.9451 65.2607Z" fill="#DADADA"/>
    <path d="M81.7528 42.2604L73.1607 44.5815L73.578 46.1262L82.17 43.8051L81.7528 42.2604Z" fill="#DADADA"/>
    <path d="M82.7365 46.0744L74.1444 48.3955L74.5617 49.9401L83.1538 47.619L82.7365 46.0744Z" fill="#DADADA"/>
    <path d="M83.8432 49.9587L75.2511 52.2798L75.6684 53.8244L84.2604 51.5033L83.8432 49.9587Z" fill="#DADADA"/>
    <path d="M84.8531 53.8698L76.261 56.1909L76.6783 57.7356L85.2704 55.4144L84.8531 53.8698Z" fill="#DADADA"/>
    <path d="M85.9336 57.6574L77.3415 59.9785L77.7588 61.5232L86.3508 59.202L85.9336 57.6574Z" fill="#DADADA"/>
    <path d="M55.0594 86.8677L54.3836 87.0503L57.0438 96.8974L57.7196 96.7148L55.0594 86.8677Z" fill="#707070"/>
    <path d="M56.3799 86.5836L55.7041 86.7661L58.3643 96.6132L59.04 96.4306L56.3799 86.5836Z" fill="#707070"/>
    <path d="M59.483 85.7323L59.1934 85.8105L61.8535 95.6576L62.1432 95.5794L59.483 85.7323Z" fill="#707070"/>
    <path d="M60.4799 85.4442L60.1902 85.5225L62.8504 95.3695L63.14 95.2913L60.4799 85.4442Z" fill="#707070"/>
    <path d="M58.6406 85.8737L57.096 86.291L59.7561 96.1381L61.3008 95.7208L58.6406 85.8737Z" fill="#707070"/>
    <path d="M62.8407 84.7512L61.2961 85.1685L63.9562 95.0155L65.5009 94.5983L62.8407 84.7512Z" fill="#707070"/>
    <path d="M63.7773 84.5782L63.1016 84.7607L65.7617 94.6078L66.4375 94.4253L63.7773 84.5782Z" fill="#707070"/>
    <path d="M65.1684 84.171L64.4926 84.3535L67.1528 94.2006L67.8285 94.018L65.1684 84.171Z" fill="#707070"/>
    <path d="M72.8619 82.0689L72.1861 82.2515L74.8463 92.0985L75.522 91.916L72.8619 82.0689Z" fill="#707070"/>
    <path d="M74.1556 81.689L73.4798 81.8716L76.14 91.7187L76.8157 91.5361L74.1556 81.689Z" fill="#707070"/>
    <path d="M68.1748 83.3456L67.8851 83.4238L70.5453 93.2709L70.8349 93.1927L68.1748 83.3456Z" fill="#707070"/>
    <path d="M69.2682 83.0321L68.9785 83.1104L71.6387 92.9574L71.9283 92.8792L69.2682 83.0321Z" fill="#707070"/>
    <path d="M67.4471 83.5643L65.9024 83.9814L68.5615 93.8285L70.1062 93.4114L67.4471 83.5643Z" fill="#707070"/>
    <path d="M71.5587 82.4611L70.014 82.8784L72.6742 92.7255L74.2188 92.3082L71.5587 82.4611Z" fill="#707070"/>
    <path d="M70 137C33.1 137 3 106.9 3 70C3 33.1 33.1 3 70 3C106.9 3 137 33.1 137 70C137 106.9 106.9 137 70 137ZM70 5C34.2 5 5 34.2 5 70C5 105.8 34.2 135 70 135C105.8 135 135 105.8 135 70C135 34.2 105.8 5 70 5Z"
          fill="white"/>
</svg>
