<svg width="140" height="140" viewBox="0 0 140 140" fill="none" xmlns="http://www.w3.org/2000/svg">
    <path d="M140 70C140 108.7 108.7 140 70 140C31.3 140 0 108.7 0 70C0 31.3 31.3 0 70 0C108.7 0 140 31.3 140 70Z"
          fill="#6EBCBB"/>
    <path d="M109.7 57.4002L134.7 58.1002C132.3 45.3002 126.4 33.7002 117.7 24.7002H109.7V57.4002Z" fill="#44403E"/>
    <path d="M41.4 86.9002L4.70001 78.7002C6.20001 90.7002 11.1 101.6 18.2 110.7L34.6 116.5L41.4 86.9002Z"
          fill="#FE4F3E"/>
    <path d="M67.8 55.0001C67.7 56.2001 68.8 57.2001 70.2 57.4001C71.6 57.5001 72.9 56.7001 73 55.5001L74.8 36.9001C74.9 35.7001 73.8 34.7001 72.4 34.5001C71 34.4001 69.7 35.2001 69.6 36.4001L67.8 55.0001Z"
          fill="#F6B968"/>
    <path d="M67.9 55.0004V35.6004C68 35.0004 70.2 34.2004 70.8 33.9004L69 55.3004C69 55.6004 68.7 56.5004 68.7 56.8004C68.2 56.3004 67.8 55.7004 67.9 55.0004Z"
          fill="#EEAA59"/>
    <path d="M62.9 57.9C62.8 59.1 63.9 60.1 65.4 60.2C66.8 60.3 68.1 59.4 68.1 58.2L69.3 39.2C69.4 38 68.1 37.3 66.7 37.2C65.3 37.1 64 38 64 39.2L62.9 57.9Z"
          fill="#F6B968"/>
    <path d="M62.9 57.8001L63.9 38.6001C64 38.0001 65.2 38.0001 65.7 37.6001L63.6 58.7001C63.6 59.0001 63.6 59.2001 63.7 59.5001C63.2 59.1001 62.8 58.5001 62.9 57.8001Z"
          fill="#EEAA59"/>
    <path d="M57.6 58.3004C57.5 59.5004 58.6 60.5004 60.1 60.6004C61.5 60.7004 62.8 59.8004 62.8 58.6004L64 39.9004C64.1 38.7004 63 37.7004 61.5 37.6004C60.1 37.5004 58.8 38.4004 58.8 39.6004L57.6 58.3004Z"
          fill="#F6B968"/>
    <path d="M119.5 52.9001C119.7 52.7001 119.9 52.6001 120.1 52.5001L120.2 51.0001C120.2 50.7001 120.5 50.4001 120.8 50.5001C121.1 50.5001 121.4 50.8001 121.3 51.1001L121.2 52.6001C121.4 52.7001 121.6 52.8001 121.8 53.0001C122.4 53.7001 122.4 54.7001 121.7 55.3001C121 55.9001 120 55.9001 119.4 55.2001C118.8 54.6001 118.8 53.6001 119.5 52.9001Z"
          fill="#33302F"/>
    <path d="M125.1 52.5001L125.2 51.0001C125.2 50.7001 125.5 50.4001 125.8 50.5001C126.1 50.5001 126.4 50.8001 126.3 51.1001L126.2 52.6001C126.4 52.7001 126.6 52.8001 126.8 53.0001C127.4 53.7001 127.4 54.7001 126.7 55.3001C126 55.9001 125 55.9001 124.4 55.2001C123.8 54.5001 123.8 53.5001 124.5 52.9001C124.6 52.7001 124.8 52.6001 125.1 52.5001Z"
          fill="#33302F"/>
    <path d="M130.1 52.4L130.2 50.9C130.2 50.6 130.5 50.3 130.8 50.4C131.1 50.4 131.4 50.7 131.3 51L131.2 52.5C131.4 52.6 131.6 52.7 131.8 52.9C132.4 53.6 132.4 54.6 131.7 55.2C131 55.8 130 55.8 129.4 55.1C128.8 54.4 128.8 53.4 129.5 52.8C129.6 52.6 129.8 52.5 130.1 52.4Z"
          fill="#33302F"/>
    <path d="M126.6 53.1003C127.2 53.8003 127.2 54.8003 126.5 55.4003C125.8 56.0003 124.8 56.0003 124.2 55.3003C123.6 54.6003 123.6 53.6003 124.3 53.0003C124.9 52.4003 126 52.5003 126.6 53.1003Z"
          fill="#22201F"/>
    <path d="M131.5 53.1002C132.1 53.8002 132.1 54.8002 131.4 55.4002C130.7 56.0002 129.7 56.0002 129.1 55.3002C128.5 54.6002 128.5 53.6002 129.2 53.0002C129.9 52.4002 130.9 52.4002 131.5 53.1002Z"
          fill="#22201F"/>
    <path d="M121.7 53.2003C122.3 53.9003 122.3 54.9003 121.6 55.5003C120.9 56.1003 119.9 56.1003 119.3 55.4003C118.7 54.7003 118.7 53.7003 119.4 53.1003C120 52.5003 121.1 52.5003 121.7 53.2003Z"
          fill="#22201F"/>
    <path d="M75.3 28.6001C73.8 29.1001 56.8 38.3001 56.3 40.8001C55.9 42.9001 56 55.9001 56.2 59.5001C56.2 59.6001 56.2 59.9001 56.2 59.9001C56.2 61.3001 57.5 62.5001 59.1 62.5001C60.7 62.5001 62 61.4001 62 59.9001V45.0001C62.2 44.5001 62.3 44.2001 62.5 44.0001C63.5 43.1001 71.8 39.3001 75.8 39.0001L80.8 33.5001L75.6 28.6001C75.4 28.6001 75.3 28.6001 75.3 28.6001Z"
          fill="#FFCC90"/>
    <path d="M58.1 60.2001C58.1 60.2001 57.7 60.4001 57.2 60.4001C56.7 60.4001 56.3 60.2001 56.3 60.2001C56.2 59.0001 56.1 57.2001 56.5 56.5001C56.6 56.2001 56.9 56.1001 57 56.1001C57.2 56.1001 57.4 56.2001 57.6 56.5001C57.9 57.2001 58 59.0001 58.1 60.2001Z"
          fill="#FFE0BC"/>
    <path d="M56.7 40.2C56.6 40.3 56.7 40.4 56.8 40.5L57.8 41.2C57.9 41.3 58 41.2 58.1 41.2C58.2 41.1 58.1 41 58 40.9L57 40.2C56.9 40.1 56.8 40.1 56.7 40.2Z"
          fill="#FFE0BC"/>
    <path d="M56.3 40.9002C56.2 41.0002 56.3 41.1002 56.4 41.2002L57.4 41.9002C57.5 42.0002 57.6 41.9002 57.7 41.9002C57.8 41.8002 57.7 41.7002 57.6 41.6002L56.6 40.9002C56.5 40.8002 56.4 40.8002 56.3 40.9002Z"
          fill="#FFE0BC"/>
    <path d="M41.1699 43.7218L36.6768 68.5186L90.9936 78.3607L95.4867 53.5639L41.1699 43.7218Z" fill="#C1E4EA"/>
    <path d="M89.1 76.1001L39.4 67.1001L43.2 46.1001L92.9 55.1001L89.1 76.1001ZM41.6 65.5001L87.6 73.8001L90.7 56.6001L44.7 48.3001L41.6 65.5001Z"
          fill="#2A7B6D"/>
    <path d="M53.6 58.8003C53.3 60.6003 51.6 61.7003 49.8 61.4003C48 61.1003 46.9 59.4003 47.2 57.6003C47.5 55.8003 49.2 54.7003 51 55.0003C52.8 55.3003 54 57.0003 53.6 58.8003Z"
          fill="#2A7B6D"/>
    <path d="M84.9 64.4004C84.6 66.2004 82.9 67.3004 81.1 67.0004C79.3 66.7004 78.2 65.0004 78.5 63.2004C78.8 61.4004 80.5 60.3004 82.3 60.6004C84.1 61.0004 85.3 62.7004 84.9 64.4004Z"
          fill="#2A7B6D"/>
    <path d="M73.5 62.4001C72.8 66.5001 68.8 69.2001 64.7 68.5001C60.6 67.8001 57.9 63.8001 58.6 59.7001C59.3 55.6001 63.3 52.9001 67.4 53.6001C71.6 54.4001 74.3 58.3001 73.5 62.4001Z"
          fill="#2A7B6D"/>
    <path d="M75.4 28.5003L75.7 39.0003C76.5 38.9003 77.2 39.0003 77.5 39.4003C80.2 41.8003 79.9 43.8003 78 46.9003C76.9 48.7003 75.4 50.5003 73.5 53.9003C69.5 61.4003 72.2 61.7003 73.6 62.6003C76.1 64.2003 80.3 54.9003 83.8 52.3003C88.5 48.8003 94.7 44.5003 94.7 44.5003H109.7V28.6003C109.7 28.6003 78.4 28.1003 75.4 28.5003Z"
          fill="#FFCC90"/>
    <path d="M75.4 61.0004C75.4 61.0004 74.7 60.7004 73.9 60.1004C73.1 59.5004 72.6 58.9004 72.6 58.9004C73.3 57.9004 74.4 56.5004 75.4 56.3004C75.8 56.2004 76.2 56.4004 76.5 56.7004C76.8 56.9004 77.1 57.3004 77.2 57.7004C77.3 58.6004 76.2 60.1004 75.4 61.0004Z"
          fill="#FFE0BC"/>
    <path d="M78.3 50.7001C78.2 50.8001 78.3 51.0001 78.5 51.1001L80.6 52.5001C80.8 52.6001 81 52.6001 81 52.6001C81.1 52.5001 81 52.3001 80.8 52.2001L78.7 50.8001C78.5 50.7001 78.3 50.6001 78.3 50.7001Z"
          fill="#FFE0BC"/>
    <path d="M77.9 51.4002C77.8 51.5002 77.9 51.7002 78.1 51.8002L80.2 53.2002C80.4 53.3002 80.6 53.3002 80.6 53.3002C80.7 53.2002 80.6 53.0002 80.4 52.9002L78.3 51.5002C78.1 51.3002 77.9 51.3002 77.9 51.4002Z"
          fill="#FFE0BC"/>
    <path d="M109.7 25.6001H101.5V50.7001H109.7V25.6001Z" fill="#F2EBEC"/>
    <path d="M75.9 99.0002C75.3 100 73.9 100.3 72.9 99.7002C71.9 99.1002 71.5 97.7002 72.2 96.7002L76.5 89.7002C77.1 88.7002 78.5 88.3002 79.5 89.0002C80.5 89.6002 80.8 91.0002 80.2 92.0002L75.9 99.0002Z"
          fill="#F6B968"/>
    <path d="M67.1 103.3C66 103.8 61.9 104.4 61.5 103.3L60.5 102.3C60 101.2 58.5 97.6002 59.5 98.3002C64.5 101.8 73 96.1002 73 96.1002C74.1 95.6002 75.4 96.1002 75.8 97.3002C76.3 98.4002 75.8 99.7002 74.6 100.1L67.1 103.3Z"
          fill="#F6B968"/>
    <path d="M69.5 101.4L76.6 97.5004C76.8 97.4004 77 97.2004 77.2 97.0004C77.4 96.8004 77.6 96.6004 77.7 96.3004L80.2 89.9004C80.4 89.5004 76.7 95.7004 76.7 95.7004L65.7 102.5C67.1 102.3 68.8 101.8 69.5 101.4Z"
          fill="#EEAA59"/>
    <path d="M81.3 98.2002C80.8 99.3002 79.5 99.8002 78.4 99.3002C77.3 98.8002 76.8 97.5002 77.3 96.4002L80.7 88.9002C81.2 87.8002 82.5 87.3002 83.6 87.8002C84.7 88.3002 85.2 89.6002 84.7 90.7002L81.3 98.2002Z"
          fill="#F6B968"/>
    <path d="M73 103.5C72 104.1 68 105.2 67.4 104.2L66.3 103.3C65.7 102.3 66.7 102 67.8 101.4L78 95.7004C79 95.1004 80.4 95.5004 81 96.5004C81.6 97.5004 81.2 98.9004 80.2 99.5004L73 103.5Z"
          fill="#F6B968"/>
    <path d="M73 101.6L80.1 97.7002C80.3 97.6002 80.5 97.4002 80.7 97.2002C80.9 97.0002 81.1 96.8002 81.2 96.5002L84.6 89.3002C84.8 88.9002 84.8 88.6002 84.8 88.2002L80.2 95.9002L69.2 102.7C70.7 102.5 72.4 102 73 101.6Z"
          fill="#EEAA59"/>
    <path d="M85 98.2002C84.5 99.3002 83.2 99.8002 82.1 99.3002C81 98.8002 80.5 97.5002 81 96.4002L84.4 88.9002C84.9 87.8002 86.2 87.3002 87.3 87.8002C88.4 88.3002 88.9 89.6002 88.4 90.7002L85 98.2002Z"
          fill="#F6B968"/>
    <path d="M76.7 103.6C75.7 104.2 71.7 105.3 71.1 104.3L70 103.4C69.4 102.4 70.4 102.1 71.5 101.5L81.7 95.8C82.7 95.2 84.1 95.6 84.7 96.6C85.3 97.6 84.9 99 83.9 99.6L76.7 103.6Z"
          fill="#F6B968"/>
    <path d="M83 104.2C81.9 105.1 80 104.8 78.9 103.4C77.8 102 78.1 100.4 79.2 99.4002L88.7 92.1002C90.1 91.2002 92 90.5002 93 91.8002C94.3 93.4002 92.8 95.1002 91.2 96.7002L83 104.2Z"
          fill="#FFCC90"/>
    <path d="M79.2 99.5003C78 100.1 66.8 102.2 65.5 100.3C63.8 97.7003 64.4 96.1003 66.7 93.9003C68 92.6003 69.7 91.4003 71.9 89.0003C76.8 83.5003 74.7 82.6003 73.6 81.7003C71.6 80.1003 66.3 86.8003 62.9 88.2003C58.2 90.1003 52.1 92.5003 52.1 92.5003L41.4 90.0003L38.5 103.4C38.5 103.4 63.8 110.1 65.2 110C66.4 109.9 79.6 106.9 83 104.5L79.5 99.4003C79.4 99.3003 79.3 99.4003 79.2 99.5003Z"
          fill="#FFCC90"/>
    <path d="M41.1781 87.7007L35.9822 110.414L43.3907 112.108L48.5866 89.3955L41.1781 87.7007Z" fill="#F2EBEC"/>
    <path d="M30.6 110.2C30.5 110 30.3 109.8 30.1 109.7L30.4 108.3C30.5 108 30.3 107.7 30 107.7C29.7 107.6 29.4 107.8 29.4 108.1L29.1 109.5C28.9 109.5 28.7 109.6 28.5 109.7C27.8 110.1 27.5 111.1 27.9 111.8C28.3 112.5 29.3 112.8 30 112.4C30.7 111.9 31 110.9 30.6 110.2Z"
          fill="#A83A48"/>
    <path d="M25.7 108.3L26 106.9C26.1 106.6 25.9 106.3 25.6 106.3C25.3 106.2 25 106.4 25 106.7L24.7 108.1C24.5 108.1 24.3 108.2 24.1 108.3C23.4 108.7 23.1 109.7 23.5 110.4C23.9 111.1 24.9 111.4 25.6 111C26.3 110.6 26.6 109.6 26.2 108.9C26.1 108.6 25.9 108.4 25.7 108.3Z"
          fill="#A83A48"/>
    <path d="M21.3 106.9L21.6 105.5C21.7 105.2 21.5 104.9 21.2 104.9C20.9 104.8 20.6 105 20.6 105.3L20.3 106.7C20.1 106.7 19.9 106.8 19.7 106.9C19 107.3 18.7 108.3 19.1 109C19.5 109.7 20.5 110 21.2 109.6C21.9 109.2 22.2 108.2 21.8 107.5C21.7 107.1 21.5 107 21.3 106.9Z"
          fill="#A83A48"/>
    <path d="M24.2 108.4C23.5 108.8 23.2 109.8 23.6 110.5C24 111.2 25 111.5 25.7 111.1C26.4 110.7 26.7 109.7 26.3 109C25.9 108.3 25 108 24.2 108.4Z"
          fill="#702730"/>
    <path d="M19.8 107C19.1 107.4 18.8 108.4 19.2 109.1C19.6 109.8 20.6 110.1 21.3 109.7C22 109.3 22.3 108.3 21.9 107.6C21.5 106.9 20.6 106.6 19.8 107Z"
          fill="#702730"/>
    <path d="M28.6 109.8C27.9 110.2 27.6 111.2 28 111.9C28.4 112.6 29.4 112.9 30.1 112.5C30.8 112.1 31.1 111.1 30.7 110.4C30.2 109.7 29.3 109.4 28.6 109.8Z"
          fill="#702730"/>
    <path d="M73.8 84.3003C73.8 84.3003 73.5 83.8003 72.9 83.2003C72.3 82.7003 71.8 82.3003 71.8 82.3003C71.2 83.0003 70.2 84.0003 70.2 84.8003C70.2 85.1003 70.4 85.4003 70.6 85.6003C70.8 85.8003 71.1 86.0003 71.5 86.0003C72.2 86.0003 73.2 85.0003 73.8 84.3003Z"
          fill="#FFE0BC"/>
    <path d="M92.8 94.5003C92.8 94.5003 92.6 94.1003 92.3 93.8003C91.9 93.5003 91.6 93.3003 91.6 93.3003C90.9 94.0003 90 95.0003 89.8 95.6003C89.7 95.9003 89.8 96.1003 90 96.2003C90.1 96.3003 90.3 96.4003 90.6 96.3003C91.2 96.2003 92.1 95.2003 92.8 94.5003Z"
          fill="#FFE0BC"/>
    <path d="M65.9 88.0002C66 87.9002 66.1 88.0002 66.3 88.2002L67.9 89.9002C68 90.1002 68.1 90.2002 68 90.3002C67.9 90.4002 67.8 90.3002 67.6 90.1002L66 88.4002C65.9 88.2002 65.9 88.1002 65.9 88.0002Z"
          fill="#FFE0BC"/>
    <path d="M66.5 87.5002C66.6 87.4002 66.7 87.5002 66.9 87.7002L68.5 89.4002C68.6 89.6002 68.7 89.7002 68.6 89.8002C68.5 89.9002 68.4 89.8002 68.2 89.6002L66.6 87.9002C66.5 87.7002 66.4 87.6002 66.5 87.5002Z"
          fill="#FFE0BC"/>
    <path d="M80.9 102.4C81 102.3 81.1 102.4 81.2 102.5L82.2 104C82.3 104.1 82.3 104.3 82.2 104.3C82.1 104.4 82 104.3 81.9 104.2L80.9 102.7C80.8 102.6 80.8 102.5 80.9 102.4Z"
          fill="#FFE0BC"/>
    <path d="M81.5 102.1C81.6 102 81.7 102.1 81.8 102.2L82.8 103.7C82.9 103.8 82.9 104 82.8 104C82.7 104.1 82.6 104 82.5 103.9L81.5 102.4C81.4 102.2 81.4 102.1 81.5 102.1Z"
          fill="#FFE0BC"/>
    <path d="M70 137C33.1 137 3 106.9 3 70C3 33.1 33.1 3 70 3C106.9 3 137 33.1 137 70C137 106.9 106.9 137 70 137ZM70 5C34.2 5 5 34.2 5 70C5 105.8 34.2 135 70 135C105.8 135 135 105.8 135 70C135 34.2 105.8 5 70 5Z"
          fill="white"/>
</svg>
