<svg width="140" height="140" viewBox="0 0 140 140" fill="none" xmlns="http://www.w3.org/2000/svg">
    <path d="M70 140C108.66 140 140 108.66 140 70C140 31.3401 108.66 0 70 0C31.3401 0 0 31.3401 0 70C0 108.66 31.3401 140 70 140Z"
          fill="#6EBCBB"/>
    <path d="M100 34.8999H27.8V91.4999H100V34.8999Z" fill="#D6D6D6"/>
    <path d="M100 34.8999H27.8V87.8999H100V34.8999Z" fill="white"/>
    <path d="M100 34.8999H27.8V43.4999H100V34.8999Z" fill="#FE4F3E"/>
    <path d="M41.4 39.4999C41.4 40.3999 40.7 41.0999 39.8 41.0999C38.9 41.0999 38.2 40.3999 38.2 39.4999C38.2 38.5999 38.9 37.8999 39.8 37.8999C40.7 37.8999 41.4 38.5999 41.4 39.4999Z"
          fill="#626884"/>
    <path d="M51.1 39.4999C51.1 40.3999 50.4 41.0999 49.5 41.0999C48.6 41.0999 47.9 40.3999 47.9 39.4999C47.9 38.5999 48.6 37.8999 49.5 37.8999C50.3 37.8999 51.1 38.5999 51.1 39.4999Z"
          fill="#626884"/>
    <path d="M80.2 39.4999C80.2 40.3999 79.5 41.0999 78.6 41.0999C77.7 41.0999 77 40.3999 77 39.4999C77 38.5999 77.7 37.8999 78.6 37.8999C79.5 37.8999 80.2 38.5999 80.2 39.4999Z"
          fill="#626884"/>
    <path d="M89.8 39.4999C89.8 40.3999 89.1 41.0999 88.2 41.0999C87.3 41.0999 86.6 40.3999 86.6 39.4999C86.6 38.5999 87.3 37.8999 88.2 37.8999C89.1 37.8999 89.8 38.5999 89.8 39.4999Z"
          fill="#626884"/>
    <path d="M40.9 38.4V32.1C40.9 31.5 40.4 31 39.8 31V39.5C40.4 39.5 40.9 39 40.9 38.4Z" fill="#AAAAAA"/>
    <path d="M38.8 32.1V38.4C38.8 39 39.3 39.5 39.9 39.5V31C39.2 31 38.8 31.5 38.8 32.1Z" fill="#C1C1C1"/>
    <path d="M50.5 38.4V32.1C50.5 31.5 50 31 49.4 31V39.5C50.1 39.5 50.5 39 50.5 38.4Z" fill="#AAAAAA"/>
    <path d="M48.4 32.1V38.4C48.4 39 48.9 39.5 49.5 39.5V31C48.9 31 48.4 31.5 48.4 32.1Z" fill="#C1C1C1"/>
    <path d="M79.5 38.4V32.1C79.5 31.5 79 31 78.4 31V39.5C79 39.5 79.5 39 79.5 38.4Z" fill="#AAAAAA"/>
    <path d="M77.4 32.1V38.4C77.4 39 77.9 39.5 78.5 39.5V31C77.9 31 77.4 31.5 77.4 32.1Z" fill="#C1C1C1"/>
    <path d="M89.1 38.4V32.1C89.1 31.5 88.6 31 88 31V39.5C88.7 39.5 89.1 39 89.1 38.4Z" fill="#AAAAAA"/>
    <path d="M87 32.1V38.4C87 39 87.5 39.5 88.1 39.5V31C87.5 31 87 31.5 87 32.1Z" fill="#C1C1C1"/>
    <path d="M51.1 62H44.7V68.4H51.1V62Z" fill="#D6D6D6"/>
    <path d="M58.9 62H52.5V68.4H58.9V62Z" fill="white"/>
    <path d="M66.7 62H60.3V68.4H66.7V62Z" fill="#D6D6D6"/>
    <path d="M74.5 62H68.1V68.4H74.5V62Z" fill="#D6D6D6"/>
    <path d="M82.3 62H75.9V68.4H82.3V62Z" fill="#FE4F3E"/>
    <path d="M90.1 62H83.7V68.4H90.1V62Z" fill="#FE4F3E"/>
    <path d="M51.1 69.6997H44.7V76.0997H51.1V69.6997Z" fill="#D6D6D6"/>
    <path d="M58.9 69.6997H52.5V76.0997H58.9V69.6997Z" fill="#D6D6D6"/>
    <path d="M66.7 69.6997H60.3V76.0997H66.7V69.6997Z" fill="#D6D6D6"/>
    <path d="M74.5 69.6997H68.1V76.0997H74.5V69.6997Z" fill="#D6D6D6"/>
    <path d="M82.3 69.6997H75.9V76.0997H82.3V69.6997Z" fill="#FE4F3E"/>
    <path d="M90.1 69.6997H83.7V76.0997H90.1V69.6997Z" fill="#FE4F3E"/>
    <path d="M51.1 77.5H44.7V83.9H51.1V77.5Z" fill="#D6D6D6"/>
    <path d="M58.9 77.5H52.5V83.9H58.9V77.5Z" fill="#D6D6D6"/>
    <path d="M66.7 77.5H60.3V83.9H66.7V77.5Z" fill="#D6D6D6"/>
    <path d="M74.5 77.5H68.1V83.9H74.5V77.5Z" fill="#D6D6D6"/>
    <path d="M51.1 54.1997H44.7V60.5997H51.1V54.1997Z" fill="#D6D6D6"/>
    <path d="M58.9 54.1997H52.5V60.5997H58.9V54.1997Z" fill="#D6D6D6"/>
    <path d="M66.7 54.1997H60.3V60.5997H66.7V54.1997Z" fill="#D6D6D6"/>
    <path d="M74.5 54.1997H68.1V60.5997H74.5V54.1997Z" fill="#D6D6D6"/>
    <path d="M82.3 54.1997H75.9V60.5997H82.3V54.1997Z" fill="#FE4F3E"/>
    <path d="M90.1 54.1997H83.7V60.5997H90.1V54.1997Z" fill="#FE4F3E"/>
    <path d="M43.2 62H36.8V68.4H43.2V62Z" fill="#D6D6D6"/>
    <path d="M43.2 69.6997H36.8V76.0997H43.2V69.6997Z" fill="#D6D6D6"/>
    <path d="M43.2 77.5H36.8V83.9H43.2V77.5Z" fill="#D6D6D6"/>
    <path d="M43.2 54.1997H36.8V60.5997H43.2V54.1997Z" fill="#D6D6D6"/>
    <path d="M58.9 62H52.5V68.4H58.9V62Z" fill="#D6D6D6"/>
    <path d="M58.9 46.3999H52.5V52.7999H58.9V46.3999Z" fill="#D6D6D6"/>
    <path d="M66.7 46.3999H60.3V52.7999H66.7V46.3999Z" fill="#D6D6D6"/>
    <path d="M74.5 46.3999H68.1V52.7999H74.5V46.3999Z" fill="#D6D6D6"/>
    <path d="M82.3 46.3999H75.9V52.7999H82.3V46.3999Z" fill="#FE4F3E"/>
    <path d="M90.1 46.3999H83.7V52.7999H90.1V46.3999Z" fill="#FE4F3E"/>
    <path d="M117.8 91.3998C117.8 103.9 107.7 114 95.2 114C82.7 114 72.6 103.9 72.6 91.3998C72.6 78.8998 82.7 68.7998 95.2 68.7998C107.7 68.7998 117.8 78.8998 117.8 91.3998Z"
          fill="white"/>
    <path d="M96.4628 111.569C107.601 110.93 116.112 101.383 115.473 90.2445C114.834 79.1062 105.287 70.5949 94.1485 71.234C83.0102 71.873 74.4989 81.4205 75.138 92.5588C75.777 103.697 85.3245 112.208 96.4628 111.569Z"
          fill="#FE4F3E"/>
    <path d="M111.1 91.3997C111.1 100.1 104 107.2 95.3 107.2C86.6 107.2 79.5 100.1 79.5 91.3997C79.5 82.6997 86.6 75.5997 95.3 75.5997C104 75.4997 111.1 82.5997 111.1 91.3997Z"
          fill="white"/>
    <path d="M98.9 91.3998C98.9 93.3998 97.3 94.9998 95.3 94.9998C93.3 94.9998 91.7 93.3998 91.7 91.3998C91.7 89.3998 93.3 87.7998 95.3 87.7998C97.2 87.7998 98.9 89.3998 98.9 91.3998Z"
          fill="#FFD215"/>
    <path d="M96.1 77.0996H94.5V80.2996H96.1V77.0996Z" fill="#9CB0E2"/>
    <path d="M96.1 102.5H94.5V105.7H96.1V102.5Z" fill="#9CB0E2"/>
    <path d="M84.2 90.5996H81V92.1996H84.2V90.5996Z" fill="#9CB0E2"/>
    <path d="M109.6 90.5996H106.4V92.1996H109.6V90.5996Z" fill="#9CB0E2"/>
    <path d="M101.682 78.5791L100.482 80.6577L101.868 81.4576L103.068 79.3789L101.682 78.5791Z" fill="#9CB0E2"/>
    <path d="M88.609 101.274L87.4092 103.353L88.795 104.153L89.9948 102.074L88.609 101.274Z" fill="#9CB0E2"/>
    <path d="M83.2516 83.5351L82.4518 84.9209L84.5304 86.1207L85.3302 84.7349L83.2516 83.5351Z" fill="#9CB0E2"/>
    <path d="M105.946 96.6079L105.146 97.9937L107.225 99.1934L108.025 97.8077L105.946 96.6079Z" fill="#9CB0E2"/>
    <path d="M88.7819 78.5724L87.3963 79.3726L88.5965 81.451L89.9821 80.6508L88.7819 78.5724Z" fill="#9CB0E2"/>
    <path d="M101.89 101.272L100.504 102.072L101.704 104.15L103.09 103.351L101.89 101.272Z" fill="#9CB0E2"/>
    <path d="M84.5349 96.6259L82.4563 97.8257L83.2561 99.2114L85.3347 98.0117L84.5349 96.6259Z" fill="#9CB0E2"/>
    <path d="M107.228 83.5146L105.149 84.7144L105.949 86.1001L108.028 84.9004L107.228 83.5146Z" fill="#9CB0E2"/>
    <path d="M97 91.3996C97 92.3996 96.2 93.1996 95.2 93.1996C94.2 93.1996 93.4 92.3996 93.4 91.3996C93.4 90.3996 94.2 89.5996 95.2 89.5996C96.2 89.5996 97 90.3996 97 91.3996Z"
          fill="#29304A"/>
    <path d="M105.4 91H95.3V91.8H105.4V91Z" fill="#29304A"/>
    <path d="M102.7 89.3999L103.7 91.3999L102.7 93.3999L106.6 91.3999L102.7 89.3999Z" fill="#29304A"/>
    <path d="M95.7 79H94.9V91.4H95.7V79Z" fill="#29304A"/>
    <path d="M93.3 81.5998L95.3 80.5998L97.2 81.5998L95.3 77.7998L93.3 81.5998Z" fill="#29304A"/>
    <path d="M70 137C33.1 137 3 106.9 3 70C3 33.1 33.1 3 70 3C106.9 3 137 33.1 137 70C137 106.9 106.9 137 70 137ZM70 5C34.2 5 5 34.2 5 70C5 105.8 34.2 135 70 135C105.8 135 135 105.8 135 70C135 34.2 105.8 5 70 5Z"
          fill="white"/>
</svg>
