<svg width="140" height="140" viewBox="0 0 140 140" fill="none" xmlns="http://www.w3.org/2000/svg">
    <path d="M70 140C108.66 140 140 108.66 140 70C140 31.3401 108.66 0 70 0C31.3401 0 0 31.3401 0 70C0 108.66 31.3401 140 70 140Z"
          fill="#6EBCBB"/>
    <path d="M48.2 96.6001H24.3V100.8H48.2V96.6001Z" fill="#FFDE82"/>
    <path d="M48.2 97.2002H24.3V100.8H48.2V97.2002Z" fill="#FFBB00"/>
    <path d="M46.1 92.3003H22.2V96.5003H46.1V92.3003Z" fill="#FFDE82"/>
    <path d="M46.1 93.0005H22.2V96.6005H46.1V93.0005Z" fill="#FFBB00"/>
    <path d="M49.1 88.1001H25.2V92.3001H49.1V88.1001Z" fill="#FFDE82"/>
    <path d="M49.1 88.8003H25.2V92.4003H49.1V88.8003Z" fill="#FFBB00"/>
    <path d="M49.1 83.9004H25.2V88.1004H49.1V83.9004Z" fill="#FFDE82"/>
    <path d="M49.1 84.6006H25.2V88.2006H49.1V84.6006Z" fill="#FFBB00"/>
    <path d="M47.8 79.7002H23.9V83.9002H47.8V79.7002Z" fill="#FFDE82"/>
    <path d="M47.8 80.4004H23.9V84.0004H47.8V80.4004Z" fill="#FFBB00"/>
    <path d="M77 96.6001H53.1V100.8H77V96.6001Z" fill="#FFDE82"/>
    <path d="M77 97.2002H53.1V100.8H77V97.2002Z" fill="#FFBB00"/>
    <path d="M77.9 92.3003H54V96.5003H77.9V92.3003Z" fill="#FFDE82"/>
    <path d="M77.9 93.0005H54V96.6005H77.9V93.0005Z" fill="#FFBB00"/>
    <path d="M76.6 88.1001H52.7V92.3001H76.6V88.1001Z" fill="#FFDE82"/>
    <path d="M76.6 88.8003H52.7V92.4003H76.6V88.8003Z" fill="#FFBB00"/>
    <path d="M77.9 83.9004H54V88.1004H77.9V83.9004Z" fill="#FFDE82"/>
    <path d="M77.9 84.6006H54V88.2006H77.9V84.6006Z" fill="#FFBB00"/>
    <path d="M76.6 79.7002H52.7V83.9002H76.6V79.7002Z" fill="#FFDE82"/>
    <path d="M76.6 80.4004H52.7V84.0004H76.6V80.4004Z" fill="#FFBB00"/>
    <path d="M75.7 75.5H51.8V79.7H75.7V75.5Z" fill="#FFDE82"/>
    <path d="M75.7 76.1001H51.8V79.7001H75.7V76.1001Z" fill="#FFBB00"/>
    <path d="M79 71.3003H55.1V75.5003H79V71.3003Z" fill="#FFDE82"/>
    <path d="M79 71.9004H55.1V75.5004H79V71.9004Z" fill="#FFBB00"/>
    <path d="M77.9 67.1001H54V71.3001H77.9V67.1001Z" fill="#FFDE82"/>
    <path d="M77.9 67.7002H54V71.3002H77.9V67.7002Z" fill="#FFBB00"/>
    <path d="M107.2 96.6001H83.3V100.8H107.2V96.6001Z" fill="#FFDE82"/>
    <path d="M107.2 97.2002H83.3V100.8H107.2V97.2002Z" fill="#FFBB00"/>
    <path d="M106.5 92.3003H82.6V96.5003H106.5V92.3003Z" fill="#FFDE82"/>
    <path d="M106.5 93.0005H82.6V96.6005H106.5V93.0005Z" fill="#FFBB00"/>
    <path d="M106.8 88.1001H82.9V92.3001H106.8V88.1001Z" fill="#FFDE82"/>
    <path d="M106.8 88.8003H82.9V92.4003H106.8V88.8003Z" fill="#FFBB00"/>
    <path d="M108.1 83.9004H84.2V88.1004H108.1V83.9004Z" fill="#FFDE82"/>
    <path d="M108.1 84.6006H84.2V88.2006H108.1V84.6006Z" fill="#FFBB00"/>
    <path d="M109.1 79.7002H85.2V83.9002H109.1V79.7002Z" fill="#FFDE82"/>
    <path d="M109.1 80.4004H85.2V84.0004H109.1V80.4004Z" fill="#FFBB00"/>
    <path d="M108.4 75.5H84.5V79.7H108.4V75.5Z" fill="#FFDE82"/>
    <path d="M108.4 76.1001H84.5V79.7001H108.4V76.1001Z" fill="#FFBB00"/>
    <path d="M109.1 71.3003H85.2V75.5003H109.1V71.3003Z" fill="#FFDE82"/>
    <path d="M109.1 71.9004H85.2V75.5004H109.1V71.9004Z" fill="#FFBB00"/>
    <path d="M108.1 67.1001H84.2V71.3001H108.1V67.1001Z" fill="#FFDE82"/>
    <path d="M108.1 67.7002H84.2V71.3002H108.1V67.7002Z" fill="#FFBB00"/>
    <path d="M107.2 62.8003H83.3V67.0003H107.2V62.8003Z" fill="#FFDE82"/>
    <path d="M107.2 63.5005H83.3V67.1005H107.2V63.5005Z" fill="#FFBB00"/>
    <path d="M104.7 58.6001H80.8V62.8001H104.7V58.6001Z" fill="#FFDE82"/>
    <path d="M104.7 59.3003H80.8V62.9003H104.7V59.3003Z" fill="#FFBB00"/>
    <path d="M108.3 54.4004H84.4V58.6004H108.3V54.4004Z" fill="#FFDE82"/>
    <path d="M108.3 55.1006H84.4V58.7006H108.3V55.1006Z" fill="#FFBB00"/>
    <path d="M109.1 50.2002H85.2V54.4002H109.1V50.2002Z" fill="#FFDE82"/>
    <path d="M109.1 50.9004H85.2V54.5004H109.1V50.9004Z" fill="#FFBB00"/>
    <path d="M101.836 49.8655C108.233 48.3552 112.193 41.9459 110.683 35.5498C109.173 29.1538 102.763 25.1931 96.3672 26.7034C89.9712 28.2137 86.0105 34.623 87.5208 41.0191C89.031 47.4151 95.4404 51.3758 101.836 49.8655Z"
          fill="#FFBB00"/>
    <path d="M100.46 47.4941C105.54 46.7427 109.05 42.0147 108.299 36.9339C107.547 31.8532 102.819 28.3435 97.7384 29.095C92.6576 29.8464 89.148 34.5743 89.8994 39.6551C90.6508 44.7359 95.3788 48.2455 100.46 47.4941Z"
          fill="#FFDE82"/>
    <path d="M23.6 75.2005L21 71.5005L42.9 56.4005L63.5 56.0005L75.1 39.5005L78.8 42.1005L65.9 60.4005L44.4 60.9005L23.6 75.2005Z"
          fill="#FE4F3E"/>
    <path d="M81.3 46.3003L84.4 30.3003L70.3 38.6003L81.3 46.3003Z" fill="#FE4F3E"/>
    <path d="M70 137C33.1 137 3 106.9 3 70C3 33.1 33.1 3 70 3C106.9 3 137 33.1 137 70C137 106.9 106.9 137 70 137ZM70 5C34.2 5 5 34.2 5 70C5 105.8 34.2 135 70 135C105.8 135 135 105.8 135 70C135 34.2 105.8 5 70 5Z"
          fill="white"/>
</svg>
