<svg width="40" height="48" viewBox="0 0 40 48" fill="none" xmlns="http://www.w3.org/2000/svg">
    <path d="M11 48H36.1C37.8 48 39.1 46.7 39.1 45V7.5C39.1 5.8 37.8 4.5 36.1 4.5H29.7L25.5 0.3C25.3 0.0999999 25 0 24.8 0H3.89999C2.19999 0 0.899994 1.3 0.899994 3V38.6C0.899994 40.3 2.19999 41.6 3.89999 41.6H7.99999V45C7.99999 46.7 9.29999 48 11 48V48ZM36.1 6.5C36.7 6.5 37.1 6.9 37.1 7.5V45C37.1 45.6 36.7 46 36.1 46H11C10.4 46 9.99999 45.6 9.99999 45V41.6H31C32.7 41.6 34 40.3 34 38.6V9.2C34 9.1 34 9 33.9 8.9V8.8C33.9 8.7 33.8 8.6 33.7 8.5L31.7 6.5H36.1ZM25.8 3.4L30.6 8.2H25.8V3.4ZM2.89999 38.6V3C2.89999 2.4 3.29999 2 3.89999 2H23.8V9.2C23.8 9.8 24.2 10.2 24.8 10.2H32V38.6C32 39.2 31.6 39.6 31 39.6H3.89999C3.39999 39.6 2.89999 39.1 2.89999 38.6V38.6Z" fill="white"/>
    <path d="M7 14.2H15.5C16.1 14.2 16.5 13.8 16.5 13.2C16.5 12.6 16.1 12.2 15.5 12.2H7C6.4 12.2 6 12.6 6 13.2C6 13.8 6.5 14.2 7 14.2Z" fill="white"/>
    <path d="M28.9 18C28.9 17.4 28.5 17 27.9 17H7C6.4 17 6 17.4 6 18C6 18.6 6.4 19 7 19H27.9C28.5 19 28.9 18.5 28.9 18Z" fill="white"/>
    <path d="M12.1254 34.6323C11.9582 34.465 11.9582 34.1939 12.1254 34.0266L22.0266 24.1254C22.1939 23.9582 22.465 23.9582 22.6323 24.1254L22.8746 24.3677C23.0418 24.535 23.0418 24.8061 22.8746 24.9734L12.9734 34.8746C12.8061 35.0418 12.535 35.0418 12.3677 34.8746L12.1254 34.6323Z" fill="white"/>
    <path d="M12.3677 24.1254C12.535 23.9582 12.8061 23.9582 12.9734 24.1254L22.8746 34.0266C23.0418 34.1939 23.0418 34.465 22.8746 34.6323L22.6323 34.8746C22.465 35.0418 22.1939 35.0418 22.0266 34.8746L12.1254 24.9734C11.9582 24.8061 11.9582 24.535 12.1254 24.3677L12.3677 24.1254Z" fill="white"/>
    <path d="M12.1254 34.6323C11.9582 34.465 11.9582 34.1939 12.1254 34.0266L22.0266 24.1254C22.1939 23.9582 22.465 23.9582 22.6323 24.1254L22.8746 24.3677C23.0418 24.535 23.0418 24.8061 22.8746 24.9734L12.9734 34.8746C12.8061 35.0418 12.535 35.0418 12.3677 34.8746L12.1254 34.6323Z" stroke="white"/>
    <path d="M12.3677 24.1254C12.535 23.9582 12.8061 23.9582 12.9734 24.1254L22.8746 34.0266C23.0418 34.1939 23.0418 34.465 22.8746 34.6323L22.6323 34.8746C22.465 35.0418 22.1939 35.0418 22.0266 34.8746L12.1254 24.9734C11.9582 24.8061 11.9582 24.535 12.1254 24.3677L12.3677 24.1254Z" stroke="white"/>
</svg>
