<svg width="40" height="48" viewBox="0 0 40 48" fill="none" xmlns="http://www.w3.org/2000/svg">
    <path d="M11 48H36.1C37.8 48 39.1 46.7 39.1 45V7.5C39.1 5.8 37.8 4.5 36.1 4.5H29.7L25.5 0.3C25.3 0.0999999 25 0 24.8 0H3.89999C2.19999 0 0.899994 1.3 0.899994 3V38.6C0.899994 40.3 2.19999 41.6 3.89999 41.6H7.99999V45C7.99999 46.7 9.29999 48 11 48V48ZM36.1 6.5C36.7 6.5 37.1 6.9 37.1 7.5V45C37.1 45.6 36.7 46 36.1 46H11C10.4 46 9.99999 45.6 9.99999 45V41.6H31C32.7 41.6 34 40.3 34 38.6V9.2C34 9.1 34 9 33.9 8.9V8.8C33.9 8.7 33.8 8.6 33.7 8.5L31.7 6.5H36.1ZM25.8 3.4L30.6 8.2H25.8V3.4ZM2.89999 38.6V3C2.89999 2.4 3.29999 2 3.89999 2H23.8V9.2C23.8 9.8 24.2 10.2 24.8 10.2H32V38.6C32 39.2 31.6 39.6 31 39.6H3.89999C3.39999 39.6 2.89999 39.1 2.89999 38.6V38.6Z" fill="white"/>
    <path d="M7 14.2H15.5C16.1 14.2 16.5 13.8 16.5 13.2C16.5 12.6 16.1 12.2 15.5 12.2H7C6.4 12.2 6 12.6 6 13.2C6 13.8 6.5 14.2 7 14.2Z" fill="white"/>
    <path d="M28.9 18C28.9 17.4 28.5 17 27.9 17H7C6.4 17 6 17.4 6 18C6 18.6 6.4 19 7 19H27.9C28.5 19 28.9 18.5 28.9 18Z" fill="white"/>
    <path d="M23.5 24L15.2 32.2L11.5 28.5C11.1 28.1 10.5 28.1 10.1 28.5C9.69999 28.9 9.69999 29.5 10.1 29.9L14.5 34.4C14.7 34.6 15 34.7 15.2 34.7C15.5 34.7 15.7 34.6 15.9 34.4L24.9 25.5C25.3 25.1 25.3 24.5 24.9 24.1C24.5 23.7 23.9 23.6 23.5 24V24Z" fill="white"/>
</svg>
