<svg width="50" height="50" viewBox="0 0 50 50" fill="none" xmlns="http://www.w3.org/2000/svg">
<path d="M17.7006 1.39922C11.0006 3.89922 6.60061 7.49922 3.50061 13.0992C-2.89939 24.6992 0.800611 38.8992 11.9006 45.6992C21.1006 51.1992 28.9006 51.1992 38.1006 45.6992C41.8006 43.3992 44.1006 40.9992 46.2006 37.3992C51.2006 28.2992 51.0006 19.9992 45.2006 10.9992C39.9006 2.59922 26.7006 -2.00078 17.7006 1.39922ZM32.9006 22.2992L37.3006 24.7992L33.4006 27.1992C31.2006 28.5992 26.9006 31.0992 23.8006 32.8992L18.0006 36.0992V24.9992V13.8992L23.3006 16.7992C26.1006 18.4992 30.5006 20.9992 32.9006 22.2992Z" fill="#275957"/>
</svg>
