<svg width="50" height="50" viewBox="0 0 50 50" fill="none" xmlns="http://www.w3.org/2000/svg">
<path d="M17.7006 1.12774C11.0006 3.62774 6.60061 7.22773 3.50061 12.8277C-2.89939 24.4277 0.800611 38.6277 11.9006 45.4277C21.1006 50.9277 28.9006 50.9277 38.1006 45.4277C41.8006 43.1277 44.1006 40.7277 46.2006 37.1277C51.2006 28.0277 51.0006 19.7277 45.2006 10.7277C39.9006 2.32773 26.7006 -2.27227 17.7006 1.12774ZM32.9006 22.0277L37.3006 24.5277L33.4006 26.9277C31.2006 28.3277 26.9006 30.8277 23.8006 32.6277L18.0006 35.8277V24.7277V13.6277L23.3006 16.5277C26.1006 18.2277 30.5006 20.7277 32.9006 22.0277Z" fill="white"/>
</svg>
