<svg width="50" height="50" viewBox="0 0 50 50" fill="none" xmlns="http://www.w3.org/2000/svg">
    <path d="M16.361 40.1886C15.8412 39.6687 15.0005 39.6687 14.4806 40.1886C13.9607 40.7084 13.9607 41.5491 14.4806 42.069L15.985 43.5733H9.8791C5.90808 43.5733 2.68924 40.3434 2.68924 36.3835V31.9257C2.68924 31.1957 2.09192 30.5984 1.36188 30.5984C0.631828 30.5984 0.0345154 31.1957 0.0345154 31.9257V36.3835C0.0345154 41.8146 4.44799 46.2281 9.8791 46.2281H15.985L14.4806 47.7324C13.9607 48.2523 13.9607 49.0929 14.4806 49.6128C14.735 49.8672 15.0779 50 15.4208 50C15.7637 50 16.0956 49.8672 16.361 49.6128L20.133 45.8409C20.6528 45.321 20.6528 44.4804 20.133 43.9605L16.361 40.1886Z"
          fill="white"/>
    <path d="M23.2633 0.00274658H1.46142C0.731376 0.00274658 0.134064 0.600059 0.134064 1.33011V23.132C0.134064 23.862 0.731376 24.4594 1.46142 24.4594H23.2633C23.9934 24.4594 24.5907 23.862 24.5907 23.132V1.33011C24.5907 0.600059 24.0044 0.00274658 23.2633 0.00274658ZM21.936 21.8046H2.78878V2.65747H21.936V21.8046Z"
          fill="white"/>
    <path d="M40.1097 3.77468H34.0039L35.5082 2.27034C36.0281 1.75046 36.0281 0.909795 35.5082 0.389912C34.9883 -0.129971 34.1477 -0.129971 33.6278 0.389912L29.8669 4.16183C29.347 4.68171 29.347 5.52237 29.8669 6.04225L33.6388 9.81417C33.8933 10.0686 34.2362 10.2013 34.5791 10.2013C34.922 10.2013 35.2538 10.0686 35.5193 9.81417C36.0392 9.29429 36.0392 8.45363 35.5193 7.93374L34.0149 6.4294H40.1208C44.0918 6.4294 47.3107 9.65931 47.3107 13.6193V18.077C47.3107 18.807 47.908 19.4043 48.638 19.4043C49.3681 19.4043 49.9654 18.807 49.9654 18.077V13.6193C49.9654 8.18815 45.5408 3.77468 40.1097 3.77468Z"
          fill="white"/>
    <path d="M48.5385 47.3453C48.1845 47.3453 47.8416 47.4891 47.5983 47.7324C47.3549 47.9758 47.2111 48.3187 47.2111 48.6726C47.2111 49.0155 47.3549 49.3695 47.5983 49.6128C47.8416 49.8562 48.1845 50 48.5385 50C48.8924 50 49.2353 49.8562 49.4787 49.6128C49.722 49.3695 49.8658 49.0266 49.8658 48.6726C49.8658 48.3187 49.722 47.9758 49.4787 47.7324C49.2243 47.4891 48.8814 47.3453 48.5385 47.3453Z"
          fill="white"/>
    <path d="M43.0852 47.3453C42.3552 47.3453 41.7579 47.9426 41.7579 48.6726C41.7579 49.4027 42.3552 50 43.0852 50C43.8153 50 44.4126 49.4027 44.4126 48.6726C44.4126 47.9426 43.8153 47.3453 43.0852 47.3453Z"
          fill="white"/>
    <path d="M32.1787 47.3453C31.4487 47.3453 30.8514 47.9426 30.8514 48.6726C30.8514 49.4027 31.4487 50 32.1787 50C32.9088 50 33.5061 49.4027 33.5061 48.6726C33.5061 47.9426 32.9198 47.3453 32.1787 47.3453Z"
          fill="white"/>
    <path d="M37.632 47.3453C36.9019 47.3453 36.3046 47.9426 36.3046 48.6726C36.3046 49.4027 36.9019 50 37.632 50C38.362 50 38.9593 49.4027 38.9593 48.6726C38.9593 47.9426 38.362 47.3453 37.632 47.3453Z"
          fill="white"/>
    <path d="M26.7367 47.3453C26.3827 47.3453 26.0398 47.4891 25.7965 47.7324C25.5531 47.9758 25.4093 48.3187 25.4093 48.6726C25.4093 49.0155 25.5531 49.3695 25.7965 49.6128C26.0398 49.8562 26.3827 50 26.7367 50C27.0796 50 27.4336 49.8562 27.6769 49.6128C27.9203 49.3695 28.0641 49.0266 28.0641 48.6726C28.0641 48.3187 27.9203 47.9758 27.6769 47.7324C27.4336 47.4891 27.0795 47.3453 26.7367 47.3453Z"
          fill="white"/>
    <path d="M26.7367 41.892C26.0066 41.892 25.4093 42.4893 25.4093 43.2194C25.4093 43.9494 26.0066 44.5467 26.7367 44.5467C27.4667 44.5467 28.0641 43.9494 28.0641 43.2194C28.0641 42.4893 27.4666 41.892 26.7367 41.892Z"
          fill="white"/>
    <path d="M26.7367 36.4388C26.0066 36.4388 25.4093 37.0361 25.4093 37.7661C25.4093 38.4962 26.0066 39.0935 26.7367 39.0935C27.4667 39.0935 28.0641 38.4962 28.0641 37.7661C28.0641 37.0361 27.4666 36.4388 26.7367 36.4388Z"
          fill="white"/>
    <path d="M26.7367 30.9855C26.0066 30.9855 25.4093 31.5828 25.4093 32.3129C25.4093 33.0429 26.0066 33.6403 26.7367 33.6403C27.4667 33.6403 28.0641 33.0429 28.0641 32.3129C28.0641 31.5828 27.4666 30.9855 26.7367 30.9855Z"
          fill="white"/>
    <path d="M26.7367 25.5434C26.3827 25.5434 26.0398 25.6872 25.7965 25.9305C25.5531 26.1739 25.4093 26.5168 25.4093 26.8708C25.4093 27.2247 25.5531 27.5676 25.7965 27.811C26.0398 28.0543 26.3827 28.1981 26.7367 28.1981C27.0796 28.1981 27.4336 28.0543 27.6769 27.811C27.9203 27.5676 28.0641 27.2247 28.0641 26.8708C28.0641 26.5279 27.9203 26.1739 27.6769 25.9305C27.4224 25.6761 27.0795 25.5434 26.7367 25.5434Z"
          fill="white"/>
    <path d="M43.0852 25.5434C42.3552 25.5434 41.7579 26.1407 41.7579 26.8708C41.7579 27.6008 42.3552 28.1981 43.0852 28.1981C43.8153 28.1981 44.4126 27.6008 44.4126 26.8708C44.4126 26.1407 43.8153 25.5434 43.0852 25.5434Z"
          fill="white"/>
    <path d="M37.632 25.5434C36.9019 25.5434 36.3046 26.1407 36.3046 26.8708C36.3046 27.6008 36.9019 28.1981 37.632 28.1981C38.362 28.1981 38.9593 27.6008 38.9593 26.8708C38.9593 26.1407 38.362 25.5434 37.632 25.5434Z"
          fill="white"/>
    <path d="M32.1787 25.5434C31.4487 25.5434 30.8514 26.1407 30.8514 26.8708C30.8514 27.6008 31.4487 28.1981 32.1787 28.1981C32.9088 28.1981 33.5061 27.6008 33.5061 26.8708C33.5061 26.1407 32.9198 25.5434 32.1787 25.5434Z"
          fill="white"/>
    <path d="M48.5385 25.5434C48.1845 25.5434 47.8416 25.6872 47.5983 25.9305C47.3549 26.1739 47.2111 26.5168 47.2111 26.8708C47.2111 27.2247 47.3549 27.5676 47.5983 27.811C47.8416 28.0543 48.1845 28.1981 48.5385 28.1981C48.8924 28.1981 49.2353 28.0543 49.4787 27.811C49.722 27.5676 49.8658 27.2247 49.8658 26.8708C49.8658 26.5279 49.722 26.1739 49.4787 25.9305C49.2243 25.6872 48.8814 25.5434 48.5385 25.5434Z"
          fill="white"/>
    <path d="M48.5385 30.9855C47.8084 30.9855 47.2111 31.5828 47.2111 32.3129C47.2111 33.0429 47.8084 33.6403 48.5385 33.6403C49.2685 33.6403 49.8658 33.0429 49.8658 32.3129C49.8658 31.5828 49.2685 30.9855 48.5385 30.9855Z"
          fill="white"/>
    <path d="M48.5385 41.892C47.8084 41.892 47.2111 42.4893 47.2111 43.2194C47.2111 43.9494 47.8084 44.5467 48.5385 44.5467C49.2685 44.5467 49.8658 43.9494 49.8658 43.2194C49.8658 42.4893 49.2685 41.892 48.5385 41.892Z"
          fill="white"/>
    <path d="M48.5385 36.4388C47.8084 36.4388 47.2111 37.0361 47.2111 37.7661C47.2111 38.4962 47.8084 39.0935 48.5385 39.0935C49.2685 39.0935 49.8658 38.4962 49.8658 37.7661C49.8658 37.0361 49.2685 36.4388 48.5385 36.4388Z"
          fill="white"/>
</svg>
