<svg width="52" height="52" viewBox="0 0 52 52" fill="none" xmlns="http://www.w3.org/2000/svg">
    <path d="M51.5501 10.6065L41.3181 0.442749C41.0324 0.159088 40.6464 0 40.2441 0H19.8678C19.0263 0 18.3439 0.682373 18.3439 1.52423V6.86816H1.52423C0.682373 6.86816 0 7.55054 0 8.392V50.3996C0 51.2415 0.682373 51.9238 1.52423 51.9238H32.1322C32.9737 51.9238 33.6561 51.2415 33.6561 50.3996V45.0557H50.4758C51.3176 45.0557 52 44.3733 52 43.5318V11.688C52 11.2818 51.8381 10.8926 51.5501 10.6065V10.6065ZM41.768 5.18643L46.7791 10.1638H41.768V5.18643ZM23.4244 12.0542L28.4351 17.0316H23.4244V12.0542ZM30.608 48.8754H3.04846V9.91623H20.376V18.5558C20.376 19.3976 21.0583 20.08 21.9002 20.08H30.608V29.8348H26.0107C25.1693 29.8348 24.4865 30.5172 24.4865 31.3586C24.4865 32.2005 25.1693 32.8828 26.0107 32.8828H30.608V48.8754ZM33.6561 42.0076V32.8828H38.4977L38.1292 33.2514C37.5341 33.8465 37.5341 34.8113 38.1292 35.4068C38.4267 35.7044 38.8171 35.8531 39.2071 35.8531C39.5971 35.8531 39.9871 35.7044 40.2846 35.4068L43.2549 32.4365C43.85 31.8414 43.85 30.8762 43.2549 30.2811L40.2846 27.3108C39.6895 26.7157 38.7247 26.7157 38.1292 27.3108C37.5341 27.9059 37.5341 28.8711 38.1292 29.4662L38.4977 29.8348H33.6561V18.5558C33.6561 18.1499 33.4942 17.7607 33.2062 17.4747L22.9742 7.31091C22.6885 7.02725 22.3025 6.86816 21.9002 6.86816H21.392V3.04846H38.7199V11.688C38.7199 12.5295 39.4023 13.2119 40.2441 13.2119H48.9519V42.0076H33.6561Z" fill="white"/>
    <path d="M26.0357 42.0675H7.62155C6.78009 42.0675 6.09732 42.7499 6.09732 43.5917C6.09732 44.4332 6.78009 45.1156 7.62155 45.1156H26.0357C26.8772 45.1156 27.5595 44.4332 27.5595 43.5917C27.5595 42.7499 26.8772 42.0675 26.0357 42.0675V42.0675Z" fill="white"/>
    <path d="M26.0357 35.9709H7.62155C6.78009 35.9709 6.09732 36.6533 6.09732 37.4952C6.09732 38.3366 6.78009 39.019 7.62155 39.019H26.0357C26.8772 39.019 27.5595 38.3366 27.5595 37.4952C27.5595 36.6533 26.8772 35.9709 26.0357 35.9709Z" fill="white"/>
    <path d="M7.62155 32.9225H19.8999C20.7414 32.9225 21.4241 32.2401 21.4241 31.3983C21.4241 30.5568 20.7414 29.8745 19.8999 29.8745H7.62155C6.78009 29.8745 6.09732 30.5568 6.09732 31.3983C6.09732 32.2401 6.78009 32.9225 7.62155 32.9225Z" fill="white"/>
    <path d="M7.62155 26.826H16.8197C17.6616 26.826 18.3439 26.1436 18.3439 25.3018C18.3439 24.4603 17.6616 23.778 16.8197 23.778H7.62155C6.78009 23.778 6.09732 24.4603 6.09732 25.3018C6.09732 26.1436 6.78009 26.826 7.62155 26.826Z" fill="white"/>
</svg>
