<svg width="53" height="80" viewBox="0 0 53 80" fill="none" xmlns="http://www.w3.org/2000/svg">
<path fill-rule="evenodd" clip-rule="evenodd" d="M18.3322 11.5328H22.8485C23.4001 11.5328 23.8468 11.0861 23.8468 10.5345V6.0182C23.8468 5.46656 23.4001 5.01813 22.8485 5.01813H18.3322C17.7805 5.01813 17.3339 5.46656 17.3339 6.0182V10.5345C17.3339 11.0861 17.7805 11.5328 18.3322 11.5328ZM26.4092 43.4175C30.7262 43.4175 34.6358 45.1685 37.4651 47.9979C40.2945 50.8272 42.0455 54.7367 42.0455 59.0538C42.0455 63.3708 40.2945 67.2803 37.4651 70.1097C34.6358 72.939 30.7262 74.69 26.4092 74.69C22.0922 74.69 18.1827 72.939 15.3533 70.1097C12.524 67.2803 10.773 63.3708 10.773 59.0538C10.773 54.7367 12.524 50.8272 15.3533 47.9979C18.1827 45.1685 22.0922 43.4175 26.4092 43.4175ZM36.0273 49.4357C33.5663 46.9747 30.1657 45.4514 26.4092 45.4514C22.6528 45.4514 19.2522 46.9747 16.7912 49.4357C14.3301 51.8967 12.8069 55.2973 12.8069 59.0538C12.8069 62.8102 14.3301 66.2108 16.7912 68.6718C19.2522 71.1329 22.6528 72.6561 26.4092 72.6561C30.1657 72.6561 33.5663 71.1329 36.0273 68.6718C38.4883 66.2108 40.0116 62.8102 40.0116 59.0538C40.0116 55.2973 38.4883 51.8967 36.0273 49.4357ZM22.8681 59.7157H25.7099V51.7615H20.7736C18.761 51.7615 17.1275 53.395 17.1275 55.4076V62.6999C17.1275 64.7143 18.761 66.3461 20.7736 66.3461H25.7099V64.273H21.4196C20.6188 64.273 19.9693 63.6235 19.9693 62.8227V55.2866C19.9693 54.4858 20.6188 53.8363 21.4196 53.8363H23.1225C22.9588 54.331 22.8699 54.8595 22.8699 55.4094V59.7175L22.8681 59.7157ZM29.9504 62.6999C29.9504 63.2498 29.8614 63.7783 29.6977 64.273H31.4007C32.2014 64.273 32.8509 63.6235 32.8509 62.8227V55.2866C32.8509 54.4858 32.2014 53.8363 31.4007 53.8363H27.1103V51.7632H32.0466C34.0592 51.7632 35.6928 53.3968 35.6928 55.4094V62.7017C35.6928 64.7143 34.0592 66.3478 32.0466 66.3478H27.1103V58.3936H29.9522L29.9504 62.7017V62.6999ZM48.957 13.9867H40.3123V1.00007C40.3123 0.446649 39.8657 0 39.3122 0H13.5045C12.951 0 12.5062 0.446649 12.5062 1.00007V13.9867H3.86147C1.73321 13.9867 0 15.7199 0 17.8482V76.1385C0 78.2668 1.73321 80 3.86147 80H48.9588C51.087 80 52.8203 78.2668 52.8203 76.1385V17.8482C52.8203 15.7199 51.087 13.9867 48.9588 13.9867H48.957ZM40.3123 28.2759H41.8462C43.0563 28.2759 44.0403 29.26 44.0403 30.47V35.481C44.0403 36.6911 43.0563 37.6751 41.8462 37.6751H40.3123V28.2777V28.2759ZM14.5045 1.99835H38.3139V37.6733H32.4951V28.0695C32.4951 27.5179 32.0484 27.0694 31.4968 27.0694C30.9451 27.0694 30.4985 27.5179 30.4985 28.0695V37.6733H27.4093V28.0695C27.4093 27.5179 26.9627 27.0694 26.411 27.0694C25.8594 27.0694 25.4127 27.5179 25.4127 28.0695V37.6733H22.3236V28.0695C22.3236 27.5179 21.8769 27.0694 21.3253 27.0694C20.7736 27.0694 20.327 27.5179 20.327 28.0695V37.6733H14.5099V1.99835H14.5045ZM12.5062 37.6733H10.9723C9.76222 37.6733 8.77817 36.6893 8.77817 35.4792V30.4682C8.77817 29.2582 9.76222 28.2741 10.9723 28.2741H12.5062V37.6716V37.6733ZM50.8201 76.1385C50.8201 77.1653 49.9855 78.0016 48.957 78.0016H3.85969C2.83115 78.0016 1.99657 77.1653 1.99657 76.1385V17.8464C1.99657 16.8196 2.83115 15.9833 3.85969 15.9833H12.5044V26.2758H10.9705C8.65894 26.2758 6.77803 28.1567 6.77803 30.4682V35.4792C6.77803 37.7908 8.65894 39.6717 10.9705 39.6717H41.8444C44.156 39.6717 46.0369 37.7908 46.0369 35.4792V30.4682C46.0369 28.1567 44.156 26.2758 41.8444 26.2758H40.3105V15.9851H48.9552C49.982 15.9851 50.8183 16.8214 50.8183 17.8482V76.1385H50.8201ZM18.3126 22.2328H34.5076C35.0593 22.2328 35.5077 21.7862 35.5077 21.2327C35.5077 20.6811 35.0593 20.2327 34.5076 20.2327H18.3126C17.761 20.2327 17.3143 20.6793 17.3143 21.2327C17.3143 21.7844 17.761 22.2328 18.3126 22.2328ZM19.3323 7.01826H21.8502V9.53622H19.3323V7.01826Z" fill="#FEFEFE"/>
</svg>
