<svg width="42" height="50" viewBox="0 0 42 50" fill="none" xmlns="http://www.w3.org/2000/svg">
    <path d="M13.1875 0H1.46875C0.659766 0 0.00390625 0.655859 0.00390625 1.46484V13.1836C0.00390625 13.9926 0.659766 14.6484 1.46875 14.6484H13.1875C13.9965 14.6484 14.6523 13.9926 14.6523 13.1836V1.46484C14.6523 0.655859 13.9965 0 13.1875 0ZM11.7227 11.7188H2.93359V2.92969H11.7227V11.7188Z" fill="white"/>
    <path d="M13.1875 17.6758H1.46875C0.659766 17.6758 0.00390625 18.3316 0.00390625 19.1406V30.8594C0.00390625 31.6684 0.659766 32.3242 1.46875 32.3242H13.1875C13.9965 32.3242 14.6523 31.6684 14.6523 30.8594V19.1406C14.6523 18.3316 13.9965 17.6758 13.1875 17.6758ZM11.7227 29.3945H2.93359V20.6055H11.7227V29.3945Z" fill="white"/>
    <path d="M13.1875 35.3516H1.46875C0.659766 35.3516 0.00390625 36.0074 0.00390625 36.8164V48.5352C0.00390625 49.3441 0.659766 50 1.46875 50H13.1875C13.9965 50 14.6523 49.3441 14.6523 48.5352V36.8164C14.6523 36.0074 13.9965 35.3516 13.1875 35.3516ZM11.7227 47.0703H2.93359V38.2812H11.7227V47.0703Z" fill="white"/>
    <path d="M36.625 5.85939H24.5364L25.942 4.45382C26.5141 3.88175 26.5141 2.95431 25.942 2.38224C25.3699 1.81017 24.4425 1.81017 23.8704 2.38224L19.9642 6.28849C19.3921 6.86056 19.3921 7.788 19.9642 8.36007L23.8704 12.2663C24.4425 12.8384 25.3699 12.8384 25.942 12.2663C26.5141 11.6943 26.5141 10.7668 25.942 10.1947L24.5364 8.78908H36.625C37.9712 8.78908 39.0664 9.88429 39.0664 11.2305V38.7695C39.0664 40.1157 37.9712 41.211 36.625 41.211H21C20.191 41.211 19.5352 41.8668 19.5352 42.6758C19.5352 43.4848 20.191 44.1406 21 44.1406H36.625C39.5866 44.1406 41.9961 41.7312 41.9961 38.7695V11.2305C41.9961 8.26886 39.5866 5.85939 36.625 5.85939Z" fill="white"/>
</svg>
