<svg width="60" height="60" viewBox="0 0 60 60" fill="none" xmlns="http://www.w3.org/2000/svg">
<path d="M16.5946 38.2127C18.7568 40.3759 21.6317 41.566 24.6902 41.566C27.7477 41.566 30.6226 40.3759 32.7849 38.2127C37.2487 33.7489 37.2487 26.4862 32.7849 22.0224C30.6217 19.8601 27.7477 18.6691 24.6902 18.6691C21.6317 18.6691 18.7577 19.8601 16.5946 22.0224C12.1308 26.4862 12.1308 33.7489 16.5946 38.2127ZM29.9995 0C38.2833 0 45.7838 3.3578 51.2126 8.78653C56.6413 14.2153 59.9991 21.7158 59.9991 29.9995C59.9991 38.2833 56.6413 45.7838 51.2126 51.2126C45.7838 56.6413 38.2833 59.9991 29.9995 59.9991C21.7158 59.9991 14.2153 56.6413 8.78653 51.2126C3.3578 45.7838 0 38.2833 0 29.9995C0 21.7158 3.3578 14.2153 8.78653 8.78653C14.2153 3.3578 21.7158 0 29.9995 0V0ZM49.7982 10.2009C44.7312 5.13392 37.7316 2.00039 29.9995 2.00039C22.2675 2.00039 15.267 5.13482 10.2009 10.2009C5.13392 15.2679 2.00039 22.2675 2.00039 29.9995C2.00039 35.1199 3.37498 39.9192 5.77509 44.0484L9.3843 40.4392L14.01 45.0649L9.74422 49.3306C9.89525 49.488 10.0472 49.6444 10.2009 49.7982C15.2679 54.8652 22.2675 57.9987 29.9995 57.9987C37.7316 57.9987 44.7321 54.8643 49.7982 49.7982C54.8652 44.7312 57.9987 37.7316 57.9987 29.9995C57.9987 22.2675 54.8643 15.267 49.7982 10.2009ZM34.1722 39.6C31.6391 42.133 28.2723 43.5284 24.6902 43.5293C22.546 43.5293 20.4841 43.0202 18.6275 42.0761L15.9534 44.9726L9.47654 38.4958L12.4364 35.5359C10.2687 30.6181 11.183 24.6576 15.2064 20.6342C17.7395 18.1012 21.1063 16.7058 24.6893 16.7058C28.2714 16.7058 31.6391 18.1012 34.1712 20.6342C39.4001 25.8622 39.4001 34.3711 34.1712 39.6H34.1722ZM28.936 11.7618V13.0704H36.7857V11.7618H28.936ZM37.4404 16.3414V17.6499H44.6362V16.3414H37.4404ZM44.6362 22.8842V21.5748H41.3652V22.8842H44.6362ZM44.6362 28.7715V27.4629H41.3652V28.7715H44.6362ZM44.6362 34.0058V32.6972H40.7114V34.0058H44.6362ZM44.6362 39.2392V37.9306H39.4019V39.2392H44.6362ZM44.6362 44.4734V43.1649H35.4771V44.4734H44.6362ZM19.2506 16.8903L19.124 9.8012H46.5995V49.0521H19.8276L19.7272 43.4678C21.364 44.1144 23.1447 44.4734 25.0103 44.4734C32.9594 44.4734 39.4028 38.0291 39.4028 30.0809C39.4028 22.1318 32.9594 15.6875 25.0103 15.6875C22.962 15.6875 21.0141 16.1189 19.2506 16.8903ZM20.5103 23.2432H28.87V25.7428H20.5103V23.2432ZM20.5103 34.4932H28.87V36.9928H20.5103V34.4932ZM18.1536 28.8682H32.5272V31.3678H18.1536V28.8682ZM17.9854 36.8228C19.7769 38.6143 22.1571 39.6 24.6902 39.6C27.2223 39.6 29.6034 38.6143 31.3949 36.8228C35.0919 33.1258 35.0919 27.1102 31.3949 23.4133C29.6034 21.6218 27.2232 20.636 24.6902 20.636C22.1571 20.636 19.776 21.6218 17.9854 23.4133C17.4021 23.9966 16.9111 24.6377 16.5114 25.3187V34.9173C16.9102 35.5983 17.4012 36.2395 17.9854 36.8228Z" fill="white"/>
</svg>
