<svg width="60" height="60" viewBox="0 0 60 60" fill="none" xmlns="http://www.w3.org/2000/svg">
<path fill-rule="evenodd" clip-rule="evenodd" d="M22.1348 20.9085L32.9206 31.6943L41.9675 22.698L31.1312 11.9122L22.1348 20.9085ZM30 0C38.284 0 45.7846 3.3586 51.213 8.787C56.6426 14.2166 60 21.716 60 30C60 38.284 56.6414 45.7846 51.213 51.213C45.7834 56.6426 38.284 60 30 60C21.716 60 14.2154 56.6414 8.787 51.213C3.3574 45.7834 0 38.284 0 30C0 21.716 3.3586 14.2154 8.787 8.787C14.2166 3.3574 21.716 0 30 0V0ZM49.799 10.201C44.7316 5.13478 37.7316 2 30 2C22.2684 2 15.2671 5.13478 10.201 10.201C5.13478 15.2684 2 22.2684 2 30C2 37.7316 5.13478 44.7328 10.201 49.799C15.2684 54.8652 22.2684 58 30 58C37.7316 58 44.7328 54.8652 49.799 49.799C54.8652 44.7316 58 37.7316 58 30C58 22.2684 54.8652 15.2671 49.799 10.201ZM33.5668 32.2912C32.722 33.136 32.722 34.4777 33.5668 35.2732C34.4116 36.1179 35.7533 36.1179 36.5487 35.2732L45.5451 26.2768C46.3899 25.432 46.3899 24.0903 45.5451 23.2948C44.7004 22.4501 43.3586 22.4501 42.5632 23.2948L33.5668 32.2912ZM25.4645 25.3827L9.55836 41.2888C8.7136 42.1336 8.7136 43.4753 9.55836 44.2708C10.4031 45.1155 11.7449 45.1155 12.5403 44.2708L28.4464 28.3646L25.4645 25.3827ZM21.5379 20.3129L30.5343 11.3165C31.3791 10.4717 31.3791 9.12996 30.5343 8.33454C29.6895 7.48977 28.3478 7.48977 27.5523 8.33454L18.556 17.2816C17.7112 18.1264 17.7112 19.4681 18.556 20.2635C19.4007 21.1083 20.7425 21.1083 21.5379 20.3129ZM47.136 43.426H30.1865C28.994 43.426 28.0493 44.3706 28.0493 45.5632C28.0493 46.7557 28.994 47.7004 30.1865 47.7004H47.136C48.3285 47.7004 49.2732 46.7557 49.2732 45.5632C49.2732 44.3706 48.2792 43.426 47.136 43.426Z" fill="white"/>
</svg>
