<svg width="60" height="60" viewBox="0 0 60 60" fill="none" xmlns="http://www.w3.org/2000/svg">
<path d="M20.5934 11.5345L17.0529 15.0837H20.7348C20.6131 14.2078 20.4773 12.8286 20.5934 11.5345ZM41.7686 15.3363L41.6525 45.3894C41.6506 45.7878 41.3276 46.1097 40.9286 46.1097H19.6576V49.9998H45.5445L45.6785 15.3363H41.7686ZM40.3424 10.0002H22.9776C22.7868 10.0002 22.5977 10.0268 22.418 10.0768C21.7719 11.2535 21.9893 14.0818 22.2945 15.6699C22.3352 15.8817 22.2803 16.101 22.1425 16.2665C22.0048 16.4333 21.7997 16.5297 21.5848 16.5297H16.5204C15.3073 16.5297 14.3221 17.5167 14.3221 18.7292V44.6637H40.209L40.343 10.0002H40.3424ZM30 0C38.2843 0 45.7841 3.3577 51.2129 8.78709C56.6417 14.2159 60 21.7157 60 30C60 38.2843 56.6423 45.7841 51.2129 51.2129C45.7841 56.6417 38.2843 60 30 60C21.7157 60 14.2159 56.6423 8.78709 51.2129C3.35831 45.7841 0 38.2843 0 30C0 21.7157 3.3577 14.2159 8.78709 8.78709C14.2159 3.35831 21.7157 0 30 0V0ZM49.799 10.201C44.7322 5.13414 37.7321 2.00004 30 2.00004C22.2679 2.00004 15.2678 5.13414 10.201 10.201C5.13414 15.2678 2.00004 22.2679 2.00004 30C2.00004 37.7321 5.13414 44.7322 10.201 49.799C15.2678 54.8659 22.2679 58 30 58C37.7321 58 44.7322 54.8659 49.799 49.799C54.8659 44.7322 58 37.7321 58 30C58 22.2679 54.8659 15.2678 49.799 10.201ZM36.17 38.7834H18.1906C17.7916 38.7834 17.4667 38.4591 17.4667 38.0607C17.4667 37.6617 17.7916 37.3374 18.1906 37.3374H36.17C36.569 37.3374 36.8939 37.6617 36.8939 38.0607C36.8939 38.4597 36.569 38.784 36.17 38.784V38.7834ZM36.17 34.0279H18.1906C17.7916 34.0279 17.4667 33.7036 17.4667 33.3046C17.4667 32.9056 17.7916 32.5813 18.1906 32.5813H36.17C36.569 32.5813 36.8939 32.9056 36.8939 33.3046C36.8939 33.7036 36.569 34.0279 36.17 34.0279ZM36.17 29.2736H18.1906C17.7916 29.2736 17.4667 28.9493 17.4667 28.5509C17.4667 28.1519 17.7916 27.8276 18.1906 27.8276H36.17C36.569 27.8276 36.8939 28.1519 36.8939 28.5509C36.8939 28.9499 36.569 29.2736 36.17 29.2736ZM36.17 24.5193H18.1906C17.7916 24.5193 17.4667 24.1951 17.4667 23.796C17.4667 23.397 17.7916 23.0727 18.1906 23.0727H36.17C36.569 23.0727 36.8939 23.397 36.8939 23.796C36.8939 24.1951 36.569 24.5193 36.17 24.5193ZM36.17 19.7645H18.1906C17.7916 19.7645 17.4667 19.4402 17.4667 19.0418C17.4667 18.6428 17.7916 18.3185 18.1906 18.3185H36.17C36.569 18.3185 36.8939 18.6428 36.8939 19.0418C36.8939 19.4408 36.569 19.7645 36.17 19.7645Z" fill="white"/>
</svg>
