<svg width="27" height="27" viewBox="0 0 27 27" fill="none" xmlns="http://www.w3.org/2000/svg">
    <path d="M16.8749 0H25.5535C26.3523 0 26.9999 0.647644 26.9999 1.44643V10.125C26.9999 10.9238 26.3523 11.5714 25.5535 11.5714H16.8749C16.0761 11.5714 15.4285 10.9238 15.4285 10.125V1.44643C15.4285 0.647644 16.0761 0 16.8749 0Z" fill="#275957"/>
    <path d="M1.44643 0H10.125C10.9238 0 11.5714 0.647644 11.5714 1.44643V10.125C11.5714 10.9238 10.9238 11.5714 10.125 11.5714H1.44643C0.647644 11.5714 0 10.9238 0 10.125V1.44643C0 0.647644 0.647644 0 1.44643 0Z" fill="#275957"/>
    <path d="M16.8749 15.4285H25.5535C26.3523 15.4285 26.9999 16.0761 26.9999 16.8749V25.5535C26.9999 26.3523 26.3523 26.9999 25.5535 26.9999H16.8749C16.0761 26.9999 15.4285 26.3523 15.4285 25.5535V16.8749C15.4285 16.0761 16.0761 15.4285 16.8749 15.4285Z" fill="#275957"/>
    <path d="M1.44643 15.4285H10.125C10.9238 15.4285 11.5714 16.0761 11.5714 16.8749V25.5535C11.5714 26.3523 10.9238 26.9999 10.125 26.9999H1.44643C0.647644 26.9999 0 26.3523 0 25.5535V16.8749C0 16.0761 0.647644 15.4285 1.44643 15.4285Z" fill="#275957"/>
</svg>
