<svg width="512" height="512" viewBox="0 0 512 512" fill="none" xmlns="http://www.w3.org/2000/svg">
    <path d="M271 30C268.612 30 237.783 30 226 30C226 13.431 212.569 0 196 0C179.431 0 166 13.431 166 30C155.116 30 148.984 30 121 30C112.716 30 106 37.716 106 46V61C106 77.569 119.431 91 136 91H256C272.569 91 286 77.569 286 61V46C286 37.716 279.284 30 271 30Z" fill="black"/>
    <path d="M347 61H317C317 94.091 289.091 121 256 121H136C102.909 121 76 94.091 76 61H46C21.186 61 0 81.186 0 106V466C0 490.814 21.186 512 46 512H347C371.814 512 392 490.814 392 466V106C392 81.186 371.814 61 347 61ZM65.395 176.605C59.536 170.746 59.536 161.253 65.395 155.394C71.254 149.535 80.747 149.535 86.606 155.394L106 174.789L125.395 155.394C131.254 149.535 140.747 149.535 146.606 155.394C152.465 161.253 152.465 170.746 146.606 176.605L127.211 196L146.606 215.395C152.465 221.254 152.465 230.747 146.606 236.606C140.747 242.465 131.254 242.465 125.395 236.606L106 217.211L86.605 236.606C80.746 242.465 71.253 242.465 65.394 236.606C59.535 230.747 59.535 221.254 65.394 215.395L84.789 196L65.395 176.605ZM176.606 386.605L116.606 446.605C113.676 449.535 109.838 451 106.001 451C102.164 451 98.325 449.535 95.396 446.605L65.396 416.605C59.535 410.746 59.535 401.254 65.395 395.395C71.254 389.536 80.747 389.536 86.606 395.395L106 414.789L155.395 365.394C161.254 359.535 170.747 359.535 176.606 365.394C182.465 371.253 182.465 380.746 176.606 386.605ZM176.606 281.605L116.606 341.605C113.676 344.535 109.838 346 106.001 346C102.164 346 98.325 344.535 95.396 341.605L65.396 311.605C59.535 305.746 59.535 296.254 65.395 290.395C71.254 284.536 80.747 284.536 86.606 290.395L106 309.789L155.395 260.394C161.254 254.535 170.747 254.535 176.606 260.394C182.465 266.253 182.465 275.746 176.606 281.605ZM317 421H226C217.709 421 211 414.291 211 406C211 397.709 217.709 391 226 391H317C325.291 391 332 397.709 332 406C332 414.291 325.291 421 317 421ZM317 316H226C217.709 316 211 309.291 211 301C211 292.709 217.709 286 226 286H317C325.291 286 332 292.709 332 301C332 309.291 325.291 316 317 316ZM317 211H226C217.709 211 211 204.291 211 196C211 187.709 217.709 181 226 181H317C325.291 181 332 187.709 332 196C332 204.291 325.291 211 317 211Z" fill="black"/>
    <path d="M467 91C442.186 91 422 111.186 422 136V181H512V136C512 111.186 491.814 91 467 91Z" fill="black"/>
    <path d="M422.001 211V369.788L426.395 365.394C448.778 343.011 485.223 343.011 507.606 365.394L512.001 369.789V211H422.001Z" fill="black"/>
    <path d="M486.395 386.605C475.702 375.912 458.299 375.912 447.606 386.605L430.449 403.762L452.777 470.746C454.813 476.869 460.54 481 467 481C473.46 481 479.188 476.869 481.224 470.746L503.552 403.762L486.395 386.605Z" fill="black"/>
</svg>
