<svg width="59" height="60" viewBox="0 0 59 60" fill="none" xmlns="http://www.w3.org/2000/svg">
    <path d="M47.3483 8.57143C47.94 8.57143 48.4197 8.09169 48.4197 7.5V1.07143C48.4197 0.479736 47.94 0 47.3483 0C46.7566 0 46.2769 0.479736 46.2769 1.07143V7.5C46.2769 8.09169 46.7566 8.57143 47.3483 8.57143Z" fill="black"/>
    <path d="M36.6339 8.57143C37.2256 8.57143 37.7054 8.09169 37.7054 7.5V1.07143C37.7054 0.479736 37.2256 0 36.6339 0C36.0422 0 35.5625 0.479736 35.5625 1.07143V7.5C35.5625 8.09169 36.0422 8.57143 36.6339 8.57143Z" fill="black"/>
    <path d="M15.2052 8.57143C15.7969 8.57143 16.2766 8.09169 16.2766 7.5V1.07143C16.2766 0.479736 15.7969 0 15.2052 0C14.6135 0 14.1338 0.479736 14.1338 1.07143V7.5C14.1338 8.09169 14.6135 8.57143 15.2052 8.57143Z" fill="black"/>
    <path d="M25.9196 8.57143C26.5113 8.57143 26.991 8.09169 26.991 7.5V1.07143C26.991 0.479736 26.5113 0 25.9196 0C25.3279 0 24.8481 0.479736 24.8481 1.07143V7.5C24.8481 8.09169 25.3279 8.57143 25.9196 8.57143Z" fill="black"/>
    <path d="M7.70557 27.8571H30.2056C30.7973 27.8571 31.277 28.3369 31.277 28.9286V51.4286H54.8484V15H7.70557V27.8571ZM48.4199 17.1429C50.7866 17.1429 52.7056 19.0618 52.7056 21.4286C52.7056 23.7953 50.7866 25.7143 48.4199 25.7143C46.0531 25.7143 44.1341 23.7953 44.1341 21.4286C44.1341 19.0618 46.0531 17.1429 48.4199 17.1429ZM48.4199 27.8571C50.7866 27.8571 52.7056 29.7761 52.7056 32.1429C52.7056 34.5096 50.7866 36.4286 48.4199 36.4286C46.0531 36.4286 44.1341 34.5096 44.1341 32.1429C44.1341 29.7761 46.0531 27.8571 48.4199 27.8571ZM48.4199 38.5714C50.7866 38.5714 52.7056 40.4904 52.7056 42.8571C52.7056 45.2239 50.7866 47.1429 48.4199 47.1429C46.0531 47.1429 44.1341 45.2239 44.1341 42.8571C44.1341 40.4904 46.0531 38.5714 48.4199 38.5714ZM37.7056 17.1429C40.0723 17.1429 41.9913 19.0618 41.9913 21.4286C41.9913 23.7953 40.0723 25.7143 37.7056 25.7143C35.3388 25.7143 33.4199 23.7953 33.4199 21.4286C33.4199 19.0618 35.3388 17.1429 37.7056 17.1429ZM37.7056 27.8571C40.0723 27.8571 41.9913 29.7761 41.9913 32.1429C41.9913 34.5096 40.0723 36.4286 37.7056 36.4286C35.3388 36.4286 33.4199 34.5096 33.4199 32.1429C33.4199 29.7761 35.3388 27.8571 37.7056 27.8571ZM37.7056 38.5714C40.0723 38.5714 41.9913 40.4904 41.9913 42.8571C41.9913 45.2239 40.0723 47.1429 37.7056 47.1429C35.3388 47.1429 33.4199 45.2239 33.4199 42.8571C33.4199 40.4904 35.3388 38.5714 37.7056 38.5714ZM24.8484 17.1429C27.2152 17.1429 29.1341 19.0618 29.1341 21.4286C29.1341 23.7953 27.2152 25.7143 24.8484 25.7143C22.4817 25.7143 20.5627 23.7953 20.5627 21.4286C20.5627 19.0618 22.4817 17.1429 24.8484 17.1429ZM14.1341 17.1429C16.5009 17.1429 18.4199 19.0618 18.4199 21.4286C18.4199 23.7953 16.5009 25.7143 14.1341 25.7143C11.7674 25.7143 9.84842 23.7953 9.84842 21.4286C9.84842 19.0618 11.7674 17.1429 14.1341 17.1429Z" fill="black"/>
    <path d="M56.9912 30.0706V44.9999H58.9818L56.9912 30.0706Z" fill="black"/>
    <path d="M50.5627 7.4999C50.5627 9.27497 49.1235 10.7142 47.3484 10.7142C45.5733 10.7142 44.1341 9.27497 44.1341 7.4999V6.42847H39.8484V7.4999C39.8484 9.27497 38.4092 10.7142 36.6341 10.7142C34.8591 10.7142 33.4199 9.27497 33.4199 7.4999V6.42847H29.1341V7.4999C29.1341 9.27497 27.6949 10.7142 25.9199 10.7142C24.1448 10.7142 22.7056 9.27497 22.7056 7.4999V6.42847H18.4199V7.4999C18.4199 9.27497 16.9806 10.7142 15.2056 10.7142C13.4305 10.7142 11.9913 9.27497 11.9913 7.4999V6.42847H7.70557V12.857H54.8484V6.42847H50.5627V7.4999Z" fill="black"/>
    <path d="M19.6553 51.8952C22.586 51.5249 24.8277 49.6121 24.8277 47.3104C24.8277 45.0087 22.586 43.0959 19.6553 42.7256V51.8952Z" fill="black"/>
    <path d="M18.6209 23.0001C13.6785 22.9874 8.93489 24.9451 5.44008 28.4399C1.94527 31.9347 -0.0124708 36.6784 0.000208405 41.6208C-0.0201687 45.9007 1.45433 50.0534 4.16917 53.3621C4.37796 53.6282 4.44715 53.978 4.35538 54.3035C3.70935 56.3449 2.71542 58.2592 1.41745 59.9621C3.68339 59.5646 5.85301 58.7396 7.81055 57.5311C8.14282 57.3142 8.57081 57.3102 8.90711 57.5208C15.6353 61.6217 24.2164 61.0438 30.334 56.0777C36.4515 51.1117 38.7812 42.8327 36.151 35.4052C33.5209 27.9776 26.5004 23.0096 18.6209 23.0001ZM26.8968 47.3104C26.8968 50.7345 23.7312 53.5587 19.6554 53.9725V55.069C19.6554 55.6404 19.1922 56.1035 18.6209 56.1035C18.0496 56.1035 17.5864 55.6404 17.5864 55.069V53.9725C13.5106 53.5587 10.345 50.7345 10.345 47.3104C10.345 46.7391 10.8082 46.2759 11.3795 46.2759C11.9508 46.2759 12.414 46.7391 12.414 47.3104C12.414 49.6173 14.6588 51.5207 17.5864 51.8932V42.5932C13.5106 42.1794 10.345 39.3552 10.345 35.9311C10.345 32.507 13.5106 29.6828 17.5864 29.269V28.1725C17.5864 27.6011 18.0496 27.138 18.6209 27.138C19.1922 27.138 19.6554 27.6011 19.6554 28.1725V29.269C23.7312 29.6828 26.8968 32.507 26.8968 35.9311C26.8968 36.5024 26.4336 36.9656 25.8623 36.9656C25.291 36.9656 24.8278 36.5024 24.8278 35.9311C24.8278 33.6242 22.583 31.7208 19.6554 31.3483V40.6483C23.7312 41.0621 26.8968 43.8863 26.8968 47.3104Z" fill="black"/>
    <path d="M12.4141 35.9313C12.4141 38.233 14.6558 40.1457 17.5865 40.5161V31.3464C14.6558 31.7168 12.4141 33.6295 12.4141 35.9313Z" fill="black"/>
</svg>
