<svg version="1.2" width="6.88mm" height="6.88mm" viewBox="0 0 688 688" preserveAspectRatio="xMidYMid" fill-rule="evenodd" stroke-width="28.222" stroke-linejoin="round" xmlns="http://www.w3.org/2000/svg"><defs class="ClipPathGroup"><clipPath id="a" clipPathUnits="userSpaceOnUse"><rect width="688" height="688"/></clipPath></defs><g class="SlideGroup"><g class="Slide" clip-path="url(#a)"><g class="Page"><g class="Graphic"><rect class="BoundingBox" fill="none" width="688" height="688"/><path fill="#BBB" d="M344 674c182 0 330-148 330-330 0-183-148-331-330-331C161 13 13 161 13 344c0 182 148 330 331 330z"/><path fill="#FFF" d="M531 201H156c-22 0-40 17-40 39v207c0 22 18 39 40 39h375c22 0 40-17 40-39V240c0-22-18-39-40-39zM139 447V240c0-3 1-6 3-9l1-2 148 126-151 98v-2c-1-1-1-2-1-4zm224-87c-9 8-22 7-31 0L171 223h357L363 360zm-54 10l8 7c9 8 19 12 30 12s21-4 30-11l5-4 138 90H166l143-94zm91-12l148-122v211c0 2 0 3-1 5l-1 1-146-95z"/></g></g></g></g></svg>