<svg version="1.2" width="6.88mm" height="6.88mm" viewBox="0 0 688 688" preserveAspectRatio="xMidYMid" fill-rule="evenodd" stroke-width="28.222" stroke-linejoin="round" xmlns="http://www.w3.org/2000/svg"><defs class="ClipPathGroup"><clipPath id="a" clipPathUnits="userSpaceOnUse"><rect width="688" height="688"/></clipPath></defs><g class="SlideGroup"><g class="Slide" clip-path="url(#a)"><g class="Page"><g class="Graphic"><rect class="BoundingBox" fill="none" width="688" height="688"/><path fill="#BBB" d="M344 674c182 0 330-148 330-330 0-183-148-331-330-331C161 13 13 161 13 344c0 182 148 330 331 330z"/><path fill="#FFF" d="M426 116H261c-22 0-41 19-41 41v372c0 23 19 41 41 41h165c22 0 41-18 41-41V157c0-22-19-41-41-41zm-100 23c0-2 2-4 4-4h27c2 0 4 2 4 4s-2 4-4 4h-27c-2 0-4-2-4-4zm18 416c-14 0-24-11-24-24s10-24 24-24c13 0 23 11 23 24s-10 24-23 24zm100-73c0 5-4 9-9 9H252c-5 0-9-4-9-9V182c0-5 4-9 9-9h183c5 0 9 4 9 9v300z"/></g></g></g></g></svg>